<svg width="118" height="100" viewBox="0 0 118 100" fill="none" xmlns="http://www.w3.org/2000/svg">
<g clip-path="url(#clip0_1395_524)">
<path d="M87.8729 23.0581C90.7539 22.0009 91.9876 18.2922 91.1305 15.3413C90.2734 12.3905 87.8657 10.1481 85.2973 8.45554C79.4179 4.65153 72.3983 3.01123 65.4419 3.81585C58.9924 1.75626 52.1189 1.40489 45.4929 2.79607C41.1819 3.78922 37.3016 6.13551 34.4194 9.49185C31.5373 12.8482 29.8045 17.0385 29.4744 21.4502C19.202 23.86 14.6996 36.4356 21.0262 49.9418C25.6265 59.7064 36.0098 66.4667 37.295 71.328L76.265 41.1066C77.7826 43.4781 82.4825 43.5928 84.4034 42.6547C86.3244 41.7166 87.5278 38.2378 86.2495 36.5165C88.0355 36.7304 89.8334 36.2261 91.2476 35.1145C92.6618 34.0029 93.5765 32.375 93.7904 30.589C94.0043 28.8029 93.5 27.0051 92.3884 25.5909C91.2768 24.1767 89.6489 23.262 87.8629 23.0481L87.8729 23.0581Z" fill="#B89366"/>
<path d="M188.113 87.1993C190.254 85.3814 190.645 84.9118 193.527 82.6047C195.669 80.8968 197.38 79.5085 197.931 78.5091C199.013 76.5101 198.005 74.5791 197.105 74.8982C195.294 75.5364 193.153 77.0643 188.98 79.8902C184.387 83.0356 181.144 86.1424 180.904 85.6422C182.386 83.5888 184.023 81.6515 185.8 79.847C191.426 73.7826 192.527 72.6837 193.559 70.7347C195.743 66.6769 192.684 66.0038 191.343 66.8425C189.812 67.841 188.15 69.6294 184.126 73.6154C179.762 77.941 175.957 82.3473 175.608 82.0869C175.258 81.8266 181.304 75.2226 184.929 70.3862C188.284 65.8995 186.106 63.9973 185.146 63.8464C184.186 63.6954 182.955 64.9942 181.333 66.7326C178.4 69.9197 169.869 80.3712 168.087 82.3695C166.305 84.3677 164.955 85.0864 164.728 81.8561C164.511 78.8559 164.664 75.5961 163.346 73.5048C161.14 70.0126 158.699 70.8702 158.686 73.2001C158.683 76.5001 157.889 80.1994 157.304 85.4688C156.992 88.2185 157.038 91.4685 156.976 93.4085C156.63 100.098 151.016 103.553 146.343 106.768C141.67 109.983 128.943 117.221 128.943 117.221C128.943 117.221 117.517 97.5254 102.029 86.01C93.535 79.6951 87.7705 79.1498 76.1604 79.2283L92.5385 121.475C92.5385 121.475 114.838 142.147 122.414 146.564C129.989 150.982 133.072 148.575 142.29 140.414C149.366 134.151 161.02 119.792 163.833 116.605C166.647 113.418 167.839 111.359 171.13 110.162C175.561 108.547 177.844 106.319 180.797 102.942C182.209 101.333 184.542 98.0958 186.694 95.9479C189.602 93.1925 192.674 90.6143 195.892 88.227C197.833 86.599 198.137 83.2293 195.415 84.3066C190.253 86.3015 185.079 90.6563 184.909 90.3661C184.74 90.076 186.661 88.4379 188.113 87.1993Z" fill="#FFC7A4"/>
<path d="M15.6596 91.5614L24.8132 87.9105C24.8132 87.9105 38.4667 84.384 49.8192 81.9353C61.8207 80.4371 72.1318 79.3174 72.1318 79.3174L76.1818 79.2514C76.1818 79.2514 84.0744 88.4805 90.6572 95.797C97.2399 103.114 96.5988 112.573 96.9597 121.803C97.4373 134.274 96.9474 134.152 96.9474 134.152L96.9314 150.303L107.802 179.503L34.5301 222.241C37.6256 186.394 38.5851 166.745 33.5861 165.74C32.739 152.74 23.8326 137.291 22.7415 128.23C18.9326 96.9359 15.6596 91.5614 15.6596 91.5614Z" fill="#87C4F4"/>
<path d="M36.9327 75.9635C37.317 71.5739 37.9457 62.8445 37.9457 62.8445C36.8542 64.2934 30.9422 66.2976 26.9479 60.6136C22.2944 54.059 23.039 49.3697 26.2921 46.233C29.9957 42.6566 36.4748 43.583 39.1691 49.2457C40.8552 53.2474 44.1699 48.5307 40.8461 42.2474C39.7471 31.1863 53.8498 38.5303 62.6626 15.479C71.5331 14.9878 76.8807 17.4931 81.1833 24.8774C83.18 28.2193 85.5052 33.0316 85.0114 46.9612C84.3738 64.7005 81.6983 70.2779 75.4854 73.2417C72.624 74.6089 69.6835 75.126 64.1739 74.7105L64.1222 76.4105C64.1134 76.8047 64.133 77.1991 64.1811 77.5905C64.2068 78.0816 64.4125 78.546 64.759 78.895C65.1054 79.244 65.5683 79.4531 66.0592 79.4824C68.0906 79.5639 70.1252 79.5091 72.1493 79.3184C72.1493 79.3184 76.6581 90.6829 61.6549 93.898C49.0406 96.5733 35.8819 94.4381 24.7608 87.9115C26.9936 86.7689 29.1435 85.4712 31.1947 84.0278C35.828 80.6824 36.6699 78.7133 36.9327 75.9635Z" fill="#FFC7A4"/>
<path d="M81.2927 34.3564L75.2241 32.9003C75.3 32.501 75.4562 32.1212 75.6832 31.7841C75.9103 31.4469 76.2035 31.1594 76.5451 30.9391C76.8867 30.7187 77.2694 30.57 77.6702 30.5021C78.071 30.4342 78.4814 30.4484 78.8765 30.544C79.6907 30.7494 80.3951 31.2592 80.8446 31.9685C81.2941 32.6777 81.4545 33.5324 81.2927 34.3564Z" fill="#CDAB62"/>
<path d="M52.2482 34.3127L58.1604 32.0885C58.0388 31.6901 57.8355 31.3213 57.5636 31.0057C57.2916 30.6902 56.957 30.4347 56.5808 30.2556C56.2047 30.0765 55.7954 29.9776 55.379 29.9654C54.9626 29.9532 54.5482 30.0278 54.1623 30.1846C53.3775 30.4995 52.7425 31.102 52.3868 31.8691C52.0311 32.6363 51.9815 33.5102 52.2482 34.3127Z" fill="#CDAB62"/>
<path d="M75.3254 41.2209C75.2898 41.904 75.5158 42.5751 75.9574 43.0976C76.399 43.62 77.0231 43.9546 77.7026 44.0332C78.038 44.0693 78.3771 44.0375 78.6998 43.9396C79.0226 43.8417 79.3223 43.6798 79.581 43.4635C79.8398 43.2472 80.0523 42.981 80.2059 42.6807C80.3595 42.3805 80.451 42.0524 80.4749 41.716C80.5123 41.026 80.2817 40.3482 79.8313 39.8242C79.3809 39.3001 78.7455 38.9703 78.0577 38.9036C77.7256 38.8731 77.3907 38.9092 77.0726 39.0097C76.7545 39.1102 76.4597 39.2731 76.2053 39.4889C75.9509 39.7046 75.7421 39.9689 75.591 40.2663C75.4399 40.5637 75.3496 40.8882 75.3254 41.2209Z" fill="#719BEA"/>
<path d="M54.1784 41.332C54.1357 42.0227 54.3628 42.703 54.8118 43.2295C55.2609 43.756 55.8968 44.0876 56.5856 44.1544C56.9212 44.192 57.2609 44.1611 57.5842 44.0638C57.9075 43.9665 58.2078 43.8046 58.4668 43.5881C58.7259 43.3715 58.9384 43.1048 59.0916 42.8038C59.2447 42.5029 59.3353 42.1741 59.3579 41.8372C59.4005 41.1476 59.1731 40.4684 58.7238 39.9435C58.2745 39.4186 57.6386 39.0891 56.9507 39.0248C56.6162 38.9887 56.2778 39.0202 55.9557 39.1175C55.6336 39.2148 55.3343 39.3758 55.0757 39.591C54.8171 39.8063 54.6044 40.0713 54.4502 40.3704C54.2961 40.6695 54.2036 40.9965 54.1784 41.332Z" fill="#719BEA"/>
<path d="M64.1341 74.7168C58.3911 74.1675 52.7936 72.5902 47.6087 70.0604C44.7624 68.4188 42.5101 65.9167 41.1758 62.9141C41.2393 64.6422 41.6668 66.3375 42.4304 67.8892C43.1939 69.4408 44.2763 70.8138 45.6068 71.9185C50.6027 76.1234 64.1413 77.5568 64.1413 77.5568C64.0838 77.1663 64.0641 76.7711 64.0824 76.3768L64.1341 74.7168Z" fill="#FFAD8F"/>
<path d="M45.818 172.691C29.809 181.755 15.7978 193.051 0.285522 195.366C-14.8367 197.611 -15.2943 185.091 -15.015 175.761C-14.6634 163.981 -9.80595 127.977 -6.36378 115.7C-2.71082 102.634 1.43314 96.8871 15.6084 91.5811C27.3008 99.2627 30.1139 128.155 27.6143 137.823C24.9543 147.91 15.1074 163.191 15.1074 163.191C15.1074 163.191 33.5532 157.399 37.9855 155.063C42.4178 152.728 49.8477 142.775 52.7808 139.588C56.7851 135.252 58.9147 135.664 61.0845 135.856C68.2139 136.483 69.8034 136.975 71.3526 137.866C71.8141 138.143 72.198 138.533 72.4686 138.998C72.7391 139.464 72.8875 139.99 72.8999 140.528C74.7898 140.65 77.59 140.413 78.147 143.473C78.3547 144.276 78.4449 145.105 78.4146 145.933C78.8942 145.987 79.3399 146.206 79.674 146.555C81.3523 148.266 79.0559 154.694 77.4543 156.322C76.3231 157.471 74.6329 157.71 72.383 157.547C70.4632 157.406 71.2252 155.416 71.2252 155.416L68.5748 155.744C63.0904 160.178 62.8139 166.738 55.3317 168.991C51.9925 169.739 48.7853 170.987 45.818 172.691Z" fill="#FFC7A4"/>
<path d="M45.8317 35.8799L33.0034 44.2372C34.3763 44.4375 35.6613 45.0329 36.7017 45.9509L46.5484 39.2606L45.8317 35.8799Z" fill="#FFE062"/>
<path d="M87.4611 34.6489L86.4613 34.5179C83.1116 34.1646 78.6517 34.0802 75.9608 34.9675C72.4797 36.1241 71.2784 37.4029 69.2483 37.4508C67.0483 37.4487 65.5996 36.2172 61.5007 35.1032C58.1615 34.2199 52.5014 34.3742 48.0009 34.8398L46.5708 34.9984C46.0807 35.1307 45.6498 35.4248 45.348 35.833C45.0462 36.2412 44.8914 36.7394 44.9085 37.2467C45.0696 38.2358 45.5374 39.1493 46.2459 39.858C46.4614 40.1811 46.6169 40.5403 46.7049 40.9185C47.1631 42.759 47.4295 46.3492 48.3675 48.3302C48.8116 49.3167 49.4346 50.2124 50.2049 50.972C50.4949 51.2499 50.8093 51.5012 51.1442 51.7229L51.6938 52.0635C52.2046 52.3418 52.7443 52.5637 53.3032 52.7251L53.5731 52.7953L53.993 52.8957L54.443 52.9662C54.9059 53.0428 55.3737 53.0867 55.8428 53.0976L56.4428 53.0982L57.1828 53.0989C62.8132 52.7345 65.016 49.8867 66.2488 47.1079C67.4815 44.3291 66.9852 40.6586 69.3652 40.601L69.5852 40.6012C69.6549 40.5908 69.7256 40.5909 69.7952 40.6014C71.5449 40.9631 71.5015 44.3331 72.7191 46.7443C73.185 47.7019 73.7945 48.5827 74.5265 49.3561C74.659 49.4971 74.7991 49.6308 74.9461 49.7565L75.166 49.9367L75.3958 50.1169L75.6056 50.2672L75.8355 50.4174L76.0154 50.5176L76.1353 50.5877C76.7755 50.9405 77.467 51.1909 78.1846 51.3297L78.3646 51.3299C79.1601 51.4675 79.9701 51.5019 80.7745 51.4323C82.248 51.4138 83.6719 50.8975 84.8148 49.9673C85.9577 49.037 86.7523 47.7476 87.0696 46.3085C87.6014 44.509 87.5745 41.389 87.7561 39.7592C87.7864 39.459 87.8896 39.1707 88.0569 38.9195C88.5152 38.2249 88.7626 37.4124 88.7692 36.5802C88.7102 35.6201 88.0311 34.7195 87.4611 34.6489ZM64.7912 44.6264C64.5476 46.0497 63.94 47.3857 63.0274 48.5047C62.2651 49.3336 61.3364 49.9923 60.302 50.4376C59.2676 50.8829 58.1509 51.1048 57.0248 51.0887C55.8756 51.2266 54.7104 51.0634 53.6432 50.6154C52.5761 50.1673 51.6437 49.4496 50.9374 48.5327C50.8674 48.4426 50.8075 48.3426 50.7476 48.2525C50.6809 48.1672 50.6208 48.0769 50.5679 47.9823C50.5106 47.9001 50.4605 47.8131 50.4182 47.7222L50.2884 47.4921L50.1986 47.302C50.1679 47.2473 50.1412 47.1904 50.1187 47.1319C50.1188 47.0419 50.0289 46.9518 49.989 46.8518C49.8793 46.5717 49.7796 46.3016 49.6898 46.0315C49.64 45.8714 49.5902 45.7014 49.5503 45.5413C49.5105 45.3813 49.4009 44.9912 49.3511 44.7511L49.3512 44.6011C49.3512 44.6011 49.3513 44.5111 49.3514 44.4611C48.9233 42.5207 48.4271 38.7302 49.4379 37.8712C50.4488 37.0122 53.0197 36.1148 57.1593 36.4589L57.5993 36.4593C58.2209 36.5216 58.8385 36.619 59.449 36.7511C59.689 36.7514 59.9289 36.8516 60.1689 36.9118C60.7735 37.0522 61.368 37.2332 61.9483 37.4536L62.4981 37.6642C62.708 37.7444 62.898 37.8446 63.0879 37.9347L63.2078 37.9949L63.4177 38.1051C63.8811 38.3281 64.2928 38.6452 64.6268 39.0363C65.3257 40.117 65.1733 42.5068 64.7913 44.5964L64.7912 44.6264ZM86.1829 42.9976C86.0415 44.3575 85.7285 47.3472 83.3871 48.8049C82.6004 49.2839 81.7063 49.558 80.7863 49.6023C79.7097 49.761 78.6102 49.6184 77.6098 49.1902C76.6094 48.762 75.7471 48.0651 75.1187 47.1767L75.0089 47.0166C74.9641 46.9564 74.924 46.8928 74.8891 46.8264C74.8625 46.7955 74.839 46.762 74.8191 46.7264L74.6594 46.4462L74.4898 46.116C74.4898 46.056 74.4399 46.006 74.4199 45.946C74.4162 45.9161 74.4162 45.8859 74.42 45.856C74.396 45.8146 74.3759 45.7711 74.3601 45.7259L74.3603 45.6159C74.1883 45.1789 74.0451 44.7312 73.9316 44.2755C73.4336 42.275 73.1058 39.9747 73.7369 38.8653C74.368 37.7559 76.9592 36.5585 79.4396 36.2009C80.0097 36.1215 80.5397 36.072 81.0397 36.0525L82.1797 36.0537L82.4397 36.0539L82.8697 36.1044C83.139 36.1341 83.4062 36.1812 83.6696 36.2451L83.8495 36.2453L83.8995 36.2454L84.0296 36.2455L84.2195 36.2457L84.4595 36.3259L84.8393 36.4763L84.9093 36.4764C85.2274 36.6168 85.5236 36.8023 85.7888 37.0272C86.4579 37.8979 86.3545 41.2878 86.1829 42.9676L86.1829 42.9976Z" fill="#FFE062"/>
<path d="M77.0782 51.7227L69.2744 55.6249L67.2867 43.223C67.3178 42.7549 67.444 42.2982 67.6576 41.8806C67.8712 41.463 68.1677 41.0933 68.5291 40.7942L77.0782 51.7227Z" fill="#FFAD8F"/>
<path d="M70.4252 66.3013C69.3711 67.2176 67.2766 66.2186 65.8917 66.2186C64.5068 66.2186 62.4123 67.2176 61.3651 66.3013C61.0688 66.0464 60.9586 65.3918 61.0137 64.5444C61.1997 61.7953 63.1082 57 65.8917 57C68.6752 57 70.5975 61.8091 70.7766 64.5582C70.8317 65.3987 70.7215 66.0464 70.4252 66.3013Z" fill="#B16668"/>
<path d="M70.4252 66.3018C69.3711 67.2182 67.2766 66.3018 65.8917 66.3018C64.5068 66.3018 62.4123 67.2182 61.3651 66.3018C61.0688 66.0469 60.9586 65.3924 61.0137 64.5449C62.1229 63.3323 63.8936 62.5469 65.8917 62.5469C67.8966 62.5469 69.6811 63.3392 70.7766 64.5587C70.8317 65.3993 70.7215 66.0469 70.4252 66.3018Z" fill="#F28F8F"/>
</g>
<defs>
<clipPath id="clip0_1395_524">
<rect width="118" height="100" fill="white"/>
</clipPath>
</defs>
</svg>
