<svg width="554" height="48" viewBox="0 0 554 48" fill="none" xmlns="http://www.w3.org/2000/svg">
<g clip-path="url(#clip0_1069_30)">
<g clip-path="url(#clip1_1069_30)">
<path d="M11.2451 0.511719H36.7334C42.6677 0.511719 47.4785 5.32258 47.4785 11.2568V36.7451C47.4785 42.6794 42.6677 47.4902 36.7334 47.4902H11.2451C5.31086 47.4902 0.5 42.6794 0.5 36.7451V11.2568L0.513672 10.7041C0.791982 5.20962 5.1979 0.803701 10.6924 0.525391L11.2451 0.511719Z" fill="#F4F2ED" stroke="#E5E5E5"/>
<path d="M22.7603 5.2679C22.6797 5.27523 22.4231 5.30088 22.1922 5.3192C16.8684 5.79918 11.8817 8.67179 8.72327 13.087C6.96452 15.5419 5.83968 18.3265 5.41464 21.276C5.26442 22.3057 5.24609 22.6099 5.24609 24.0057C5.24609 25.4018 5.26442 25.706 5.41464 26.7355C6.43324 33.774 11.442 39.6879 18.2351 41.879C19.4516 42.2711 20.7339 42.5385 22.1922 42.6997C22.7603 42.7619 25.215 42.7619 25.7831 42.6997C28.3003 42.4212 30.4327 41.7984 32.5358 40.7247C32.8582 40.56 32.9206 40.5159 32.8766 40.4794C32.8473 40.4573 31.4732 38.6142 29.8245 36.3866L26.8274 32.3379L23.0715 26.7795C21.0051 23.7237 19.3051 21.2247 19.2903 21.2247C19.2756 21.2211 19.261 23.6907 19.2537 26.7062C19.2427 31.9861 19.2391 32.1986 19.1731 32.3231C19.0779 32.5026 19.0046 32.5759 18.8506 32.6567C18.7334 32.7151 18.6308 32.7262 18.0775 32.7262H17.4437L17.2751 32.6199C17.1652 32.5504 17.0846 32.4587 17.0296 32.3525L16.9527 32.1876L16.96 24.8412L16.971 17.4911L17.0846 17.3482C17.1432 17.2713 17.2678 17.1724 17.3557 17.1247C17.5059 17.0514 17.5646 17.0441 18.1985 17.0441C18.946 17.0441 19.0704 17.0734 19.2648 17.286C19.3197 17.3446 21.3531 20.4077 23.7862 24.0974C26.219 27.787 29.546 32.8251 31.1801 35.2983L34.148 39.7942L34.2983 39.6952C35.6282 38.8305 37.0353 37.5994 38.1491 36.3169C40.5197 33.5945 42.0477 30.275 42.5607 26.7355C42.7108 25.706 42.7292 25.4018 42.7292 24.0057C42.7292 22.6099 42.7108 22.3057 42.5607 21.276C41.5421 14.2375 36.5332 8.32371 29.7402 6.13262C28.542 5.74423 27.267 5.47676 25.838 5.31554C25.4862 5.2789 23.0642 5.23859 22.7603 5.2679ZM30.4327 16.6044C30.6085 16.6924 30.7515 16.8609 30.8028 17.0368C30.832 17.132 30.8394 19.1693 30.832 23.7602L30.821 30.3483L29.6596 28.5674L28.4944 26.7868V21.998C28.4944 18.9019 28.509 17.1614 28.531 17.0771C28.5896 16.8719 28.7178 16.7107 28.8938 16.6154C29.0439 16.5385 29.099 16.5312 29.6742 16.5312C30.2166 16.5312 30.3118 16.5385 30.4327 16.6044Z" fill="black"/>
</g>
<g clip-path="url(#clip2_1069_30)">
<path d="M67.4717 0.511719H92.96C98.8942 0.511719 103.705 5.32258 103.705 11.2568V36.7451C103.705 42.6794 98.8942 47.4902 92.96 47.4902H67.4717C61.5374 47.4902 56.7266 42.6794 56.7266 36.7451V11.2568L56.7402 10.7041C57.0185 5.20962 61.4245 0.803701 66.9189 0.525391L67.4717 0.511719Z" fill="#007ACC" stroke="#E5E5E5"/>
<path d="M66.8355 24.1617L66.8203 26.1266H69.9427H73.0651V34.9988V43.8709H75.2737H77.4822V34.9988V26.1266H80.6045H83.7269V24.1997C83.7269 23.1335 83.7042 22.2426 83.6737 22.2197C83.6508 22.1893 79.8506 22.174 75.2432 22.1816L66.8584 22.2045L66.8355 24.1617Z" fill="white"/>
<path d="M94.9394 22.1467C96.1578 22.4514 97.087 22.9921 97.9399 23.8754C98.3816 24.3477 99.0365 25.2083 99.0899 25.4139C99.105 25.4748 97.0184 26.8761 95.7542 27.6604C95.7085 27.691 95.5256 27.4929 95.32 27.1883C94.7032 26.2897 94.0559 25.9012 93.0658 25.8328C91.6112 25.7336 90.6745 26.4953 90.6822 27.7671C90.6822 28.1402 90.7355 28.361 90.8878 28.6657C91.2076 29.3282 91.8017 29.7243 93.6676 30.5315C97.1021 32.009 98.5719 32.9838 99.4859 34.3697C100.506 35.9157 100.735 38.3832 100.042 40.2186C99.2803 42.2138 97.3915 43.5694 94.7336 44.0188C93.9112 44.1635 91.9615 44.1406 91.0782 43.9808C89.1514 43.638 87.3237 42.6861 86.1966 41.4372C85.7549 40.9497 84.8943 39.6779 84.9477 39.5864C84.9704 39.5561 85.1685 39.4342 85.3892 39.3047C85.6025 39.1829 86.4099 38.7183 87.1714 38.2766L88.5498 37.4769L88.8392 37.9034C89.2429 38.5202 90.1262 39.3657 90.6594 39.6473C92.19 40.4547 94.292 40.3404 95.3277 39.4114C95.7694 39.0077 95.9522 38.5888 95.9522 37.972C95.9522 37.416 95.8836 37.1723 95.5942 36.7535C95.2211 36.2205 94.4596 35.771 92.2966 34.8343C89.8216 33.7681 88.7554 33.1056 87.7807 32.0546C87.2171 31.4455 86.6839 30.4705 86.4631 29.6557C86.2804 28.978 86.2347 27.2796 86.3794 26.5942C86.8895 24.203 88.6945 22.5352 91.299 22.04C92.1444 21.8802 94.1091 21.9411 94.9394 22.1467Z" fill="white"/>
</g>
<g clip-path="url(#clip3_1069_30)">
<path d="M123.694 0.511719H149.183C155.117 0.511719 159.928 5.32258 159.928 11.2568V36.7451C159.928 42.6794 155.117 47.4902 149.183 47.4902H123.694C117.76 47.4902 112.949 42.6794 112.949 36.7451V11.2568L112.963 10.7041C113.241 5.20962 117.647 0.803701 123.142 0.525391L123.694 0.511719Z" fill="#F4F2ED" stroke="#E5E5E5"/>
<path d="M136.438 27.5514C138.369 27.5514 139.934 25.986 139.934 24.055C139.934 22.1241 138.369 20.5586 136.438 20.5586C134.507 20.5586 132.941 22.1241 132.941 24.055C132.941 25.986 134.507 27.5514 136.438 27.5514Z" fill="#00D8FF"/>
<path fill-rule="evenodd" clip-rule="evenodd" d="M136.437 16.9453C141.132 16.9453 145.493 17.6189 148.781 18.7509C152.743 20.1148 155.178 22.1822 155.178 24.0543C155.178 26.0051 152.597 28.2014 148.342 29.611C145.126 30.6766 140.893 31.2329 136.437 31.2329C131.868 31.2329 127.542 30.7107 124.289 29.5992C120.174 28.1926 117.695 25.968 117.695 24.0543C117.695 22.1974 120.021 20.1459 123.927 18.7842C127.228 17.6335 131.696 16.9453 136.436 16.9453H136.437Z" stroke="#00D8FF" stroke-width="1.67006"/>
<path fill-rule="evenodd" clip-rule="evenodd" d="M130.249 20.5216C132.595 16.4551 135.356 13.0138 137.98 10.7308C141.14 7.98021 144.148 6.90299 145.77 7.83809C147.46 8.81265 148.073 12.1463 147.169 16.5358C146.486 19.8546 144.852 23.7989 142.626 27.6593C140.344 31.6171 137.73 35.1042 135.142 37.3659C131.868 40.2281 128.703 41.264 127.045 40.3079C125.436 39.381 124.821 36.3409 125.593 32.2768C126.245 28.8428 127.881 24.628 130.248 20.5216H130.249Z" stroke="#00D8FF" stroke-width="1.67006"/>
<path fill-rule="evenodd" clip-rule="evenodd" d="M130.257 27.6707C127.905 23.6087 126.304 19.4964 125.635 16.0835C124.831 11.9715 125.4 8.82749 127.02 7.88967C128.708 6.91226 131.902 8.04607 135.254 11.0218C137.788 13.2716 140.39 16.6558 142.622 20.5124C144.911 24.4665 146.627 28.4725 147.294 31.8437C148.139 36.11 147.455 39.3697 145.799 40.3284C144.192 41.2587 141.251 40.2738 138.116 37.5754C135.467 35.2957 132.632 31.7732 130.257 27.6707Z" stroke="#00D8FF" stroke-width="1.67006"/>
</g>
<g clip-path="url(#clip4_1069_30)">
<path d="M179.921 0.511719H205.409C211.343 0.511719 216.154 5.32258 216.154 11.2568V36.7451C216.154 42.6794 211.343 47.4902 205.409 47.4902H179.921C173.987 47.4902 169.176 42.6794 169.176 36.7451V11.2568L169.189 10.7041C169.468 5.20962 173.874 0.803701 179.368 0.525391L179.921 0.511719Z" fill="#F4F2ED" stroke="#E5E5E5"/>
<path fill-rule="evenodd" clip-rule="evenodd" d="M184.231 20.6259C185.355 16.1281 188.166 13.8789 192.664 13.8789C199.411 13.8789 200.255 18.9391 203.628 19.7825C205.877 20.3449 207.845 19.5016 209.532 17.2524C208.407 21.7502 205.596 23.9993 201.098 23.9993C194.351 23.9993 193.508 18.9391 190.134 18.0958C187.885 17.5333 185.917 18.3767 184.231 20.6259ZM175.797 30.7463C176.921 26.2485 179.733 23.9993 184.231 23.9993C190.978 23.9993 191.821 29.0596 195.194 29.9029C197.444 30.4654 199.411 29.622 201.098 27.3728C199.974 31.8706 197.162 34.1198 192.664 34.1198C185.917 34.1198 185.074 29.0596 181.7 28.2162C179.451 27.6538 177.484 28.4971 175.797 30.7463Z" fill="url(#paint0_linear_1069_30)"/>
</g>
<g clip-path="url(#clip5_1069_30)">
<path d="M236.144 0.324219H261.632C267.566 0.324219 272.377 5.13508 272.377 11.0693V36.5576C272.377 42.4919 267.566 47.3027 261.632 47.3027H236.144C230.209 47.3027 225.398 42.4919 225.398 36.5576V11.0693L225.412 10.5166C225.69 5.02212 230.096 0.616201 235.591 0.337891L236.144 0.324219Z" fill="#F4F2ED" stroke="#E5E5E5"/>
<path d="M265.941 26.0525C267.112 24.8815 267.112 22.9828 265.941 21.8118C264.77 20.6407 262.871 20.6407 261.7 21.8118L246.698 36.8133C245.527 37.9844 245.527 39.883 246.698 41.0541C247.869 42.2251 249.768 42.2251 250.939 41.0541L265.941 26.0525Z" fill="black"/>
<path d="M262.937 9.56031C264.108 8.38926 264.108 6.49063 262.937 5.31958C261.766 4.14854 259.867 4.14854 258.696 5.31958L230.204 33.812C229.033 34.983 229.033 36.8816 230.204 38.0527C231.375 39.2237 233.273 39.2237 234.444 38.0527L262.937 9.56031Z" fill="black"/>
</g>
<g clip-path="url(#clip6_1069_30)">
<path d="M292.37 0.511719H317.858C323.793 0.511719 328.604 5.32258 328.604 11.2568V36.7451C328.604 42.6794 323.793 47.4902 317.858 47.4902H292.37C286.436 47.4902 281.625 42.6794 281.625 36.7451V11.2568L281.639 10.7041C281.917 5.20962 286.323 0.803701 291.817 0.525391L292.37 0.511719Z" fill="#F4F2ED" stroke="#E5E5E5"/>
<path d="M287.871 36.9336H296.492V28.3125H305.113V19.6914H296.492V11.0703H287.871V36.9336ZM305.113 28.3125V36.9336H322.356V11.0703H305.113V19.6914H313.734V28.3125H305.113Z" fill="black"/>
</g>
<g clip-path="url(#clip7_1069_30)">
<path d="M348.593 0.511719H374.081C380.015 0.511719 384.826 5.32258 384.826 11.2568V36.7451C384.826 42.6794 380.015 47.4902 374.081 47.4902H348.593C342.659 47.4902 337.848 42.6794 337.848 36.7451V11.2568L337.861 10.7041C338.14 5.20962 342.546 0.803701 348.04 0.525391L348.593 0.511719Z" fill="#F4F2ED" stroke="#E5E5E5"/>
<path d="M351.281 23.6612C351.717 22.8997 351.45 21.9356 350.684 21.5078C349.918 21.0799 348.943 21.3502 348.507 22.1114L343.385 31.0482C342.949 31.8094 343.216 32.7735 343.982 33.2016C344.748 33.6294 345.723 33.3592 346.159 32.5979L351.281 23.6612Z" fill="#8DBF15"/>
<path d="M362.32 16.8095C362.756 16.0482 362.489 15.0841 361.723 14.6562C360.957 14.2283 359.982 14.4986 359.546 15.2599L354.424 24.1966C353.988 24.9579 354.255 25.9219 355.021 26.35C355.787 26.7779 356.762 26.5076 357.198 25.7463L362.32 16.8095Z" fill="#8DBF15"/>
<path d="M379.304 16.8095C379.74 16.0482 379.473 15.0842 378.707 14.6562C377.941 14.2283 376.966 14.4986 376.53 15.2599L371.409 24.1967C370.972 24.958 371.24 25.922 372.006 26.3499C372.772 26.7778 373.747 26.5075 374.183 25.7462L379.304 16.8095Z" fill="#8DBF15"/>
<path d="M368.261 23.6612C368.697 22.8997 368.43 21.9356 367.664 21.5078C366.898 21.0799 365.923 21.3502 365.487 22.1114L360.366 31.0482C359.929 31.8094 360.197 32.7735 360.963 33.2016C361.729 33.6294 362.704 33.3592 363.14 32.5979L368.261 23.6612Z" fill="#8DBF15"/>
</g>
<g clip-path="url(#clip8_1069_30)">
<path d="M404.819 0.511719H430.308C436.242 0.511719 441.053 5.32258 441.053 11.2568V36.7451C441.053 42.6794 436.242 47.4902 430.308 47.4902H404.819C398.885 47.4902 394.074 42.6794 394.074 36.7451V11.2568L394.088 10.7041C394.366 5.20962 398.772 0.803701 404.267 0.525391L404.819 0.511719Z" fill="#F4F2ED" stroke="#E5E5E5"/>
<mask id="mask0_1069_30" style="mask-type:luminance" maskUnits="userSpaceOnUse" x="400" y="7" width="35" height="34">
<path d="M434.43 7.13281H400.695V40.8676H434.43V7.13281Z" fill="white"/>
</mask>
<g mask="url(#mask0_1069_30)">
<path d="M425.71 31.6928C425.924 29.9047 425.86 29.6438 427.191 29.9324L427.529 29.9626C428.553 30.0087 429.892 29.7978 430.692 29.4329C432.386 28.6475 433.39 27.335 431.72 27.6802C427.912 28.4657 427.635 27.1755 427.635 27.1755C431.658 21.2062 433.341 13.629 431.887 11.7749C427.929 6.71464 421.075 9.10771 420.961 9.17096L420.924 9.17754C420.172 9.01942 419.342 8.92717 418.38 8.91399C416.657 8.88764 415.35 9.36598 414.356 10.1184C414.356 10.1184 402.131 5.08193 402.699 16.4529C402.82 18.8723 406.165 34.7698 410.157 29.96C411.619 28.2022 413.029 26.7169 413.029 26.7169C413.727 27.1821 414.567 27.4194 415.446 27.3337L415.514 27.2758C415.494 27.5035 415.503 27.7329 415.542 27.9584C414.514 29.1074 414.817 29.3091 412.761 29.7321C410.682 30.1603 411.905 30.9233 412.701 31.1236C413.668 31.3661 415.906 31.7087 417.418 29.5924L417.358 29.8335C417.761 30.1564 417.733 32.1527 417.792 33.5786C417.852 35.0044 417.945 36.3368 418.237 37.1207C418.528 37.9049 418.869 39.9277 421.571 39.3609C423.828 38.8774 425.554 38.1802 425.712 31.7048" fill="black"/>
<path d="M425.71 31.6928C425.924 29.9047 425.86 29.6438 427.191 29.9324L427.529 29.9626C428.553 30.0087 429.892 29.7978 430.692 29.4329C432.386 28.6475 433.39 27.335 431.72 27.6802C427.912 28.4657 427.635 27.1755 427.635 27.1755C431.658 21.2062 433.341 13.629 431.887 11.7749C427.929 6.71464 421.075 9.10771 420.961 9.17096L420.924 9.17754C420.172 9.01942 419.342 8.92717 418.38 8.91399C416.657 8.88764 415.35 9.36598 414.356 10.1184C414.356 10.1184 402.131 5.08193 402.699 16.4529C402.82 18.8723 406.165 34.7698 410.157 29.96C411.619 28.2022 413.029 26.7169 413.029 26.7169C413.727 27.1821 414.567 27.4194 415.446 27.3337L415.514 27.2758C415.494 27.5035 415.503 27.7329 415.542 27.9584C414.514 29.1074 414.817 29.3091 412.761 29.7321C410.682 30.1603 411.905 30.9233 412.701 31.1236C413.668 31.3661 415.906 31.7087 417.418 29.5924L417.358 29.8335C417.761 30.1564 417.733 32.1527 417.792 33.5786C417.852 35.0044 417.945 36.3368 418.237 37.1207C418.528 37.9049 418.869 39.9277 421.571 39.3609C423.828 38.8774 425.554 38.1802 425.712 31.7048" fill="#336791"/>
<path d="M425.71 31.6928C425.924 29.9047 425.86 29.6438 427.191 29.9324L427.529 29.9626C428.553 30.0087 429.892 29.7978 430.692 29.4329C432.386 28.6475 433.39 27.335 431.72 27.6802C427.912 28.4657 427.635 27.1755 427.635 27.1755C431.658 21.2062 433.341 13.629 431.887 11.7749C427.929 6.71464 421.075 9.10771 420.961 9.17096L420.924 9.17754C420.172 9.01942 419.342 8.92717 418.38 8.91399C416.657 8.88764 415.35 9.36598 414.356 10.1184C414.356 10.1184 402.131 5.08193 402.699 16.4529C402.82 18.8723 406.165 34.7698 410.157 29.96C411.619 28.2022 413.029 26.7169 413.029 26.7169C413.727 27.1821 414.567 27.4194 415.446 27.3337L415.514 27.2758C415.494 27.5035 415.503 27.7329 415.542 27.9584C414.514 29.1074 414.817 29.3091 412.761 29.7321C410.682 30.1603 411.905 30.9233 412.701 31.1236C413.668 31.3661 415.906 31.7087 417.418 29.5924L417.358 29.8335C417.761 30.1564 417.733 32.1527 417.792 33.5786C417.852 35.0044 417.945 36.3368 418.237 37.1207C418.528 37.9049 418.869 39.9277 421.571 39.3609C423.828 38.8774 425.554 38.1802 425.712 31.7048" stroke="black" stroke-width="2.83185"/>
<path d="M431.706 27.6916C427.897 28.4768 427.621 27.1869 427.621 27.1869C431.644 21.2173 433.327 13.6402 431.874 11.7861C427.916 6.72586 421.062 9.12024 420.947 9.18216L420.911 9.18876C420.074 9.0208 419.222 8.93211 418.369 8.92388C416.645 8.89753 415.338 9.37587 414.344 10.1283C414.344 10.1283 402.118 5.09182 402.687 16.4628C402.808 18.8823 406.153 34.7798 410.146 29.97C411.616 28.2015 413.027 26.7163 413.027 26.7163C413.725 27.1814 414.564 27.4187 415.443 27.333L415.512 27.2751C415.492 27.5028 415.501 27.7322 415.539 27.9577C414.512 29.1067 414.815 29.3084 412.759 29.7314C410.68 30.1596 411.902 30.9226 412.698 31.123C413.666 31.3655 415.903 31.7081 417.416 29.5918L417.355 29.8328C417.759 30.1557 418.04 31.932 417.993 33.5423C417.946 35.1528 417.914 36.257 418.23 37.1214C418.546 37.9859 418.863 39.9283 421.564 39.3616C423.822 38.878 424.99 37.6222 425.155 35.5323C425.271 34.0457 425.532 34.2644 425.551 32.9362L425.761 32.3063C426.002 30.2901 425.801 29.6405 427.191 29.9436L427.53 29.9739C428.554 30.02 429.894 29.8092 430.679 29.4441C432.372 28.6588 433.377 27.3462 431.707 27.6916H431.706Z" fill="#336791"/>
<path d="M420.948 9.11996C420.526 9.25175 427.753 6.47786 431.861 11.7265C433.311 13.5806 431.631 21.1578 427.608 27.1272M417.579 28.8338C417.474 32.5842 417.606 36.3608 417.972 37.2675C418.338 38.174 419.125 39.9689 421.828 39.3917C424.085 38.9081 424.907 37.971 425.263 35.9035L426.097 29.2924L417.579 28.8338ZM414.34 10.0332C414.34 10.0332 402.106 5.03095 402.676 16.4019C402.797 18.8213 406.141 34.7188 410.134 29.909C411.592 28.1524 412.909 26.778 412.909 26.778L414.34 10.0332Z" fill="#336791"/>
<path d="M420.948 9.11996C420.526 9.25175 427.753 6.47786 431.861 11.7265C433.311 13.5806 431.631 21.1578 427.608 27.1272M417.579 28.8338C417.474 32.5842 417.606 36.3608 417.972 37.2675C418.338 38.174 419.125 39.9689 421.828 39.3917C424.085 38.9081 424.907 37.971 425.263 35.9035L426.097 29.2924L417.579 28.8338ZM414.34 10.0332C414.34 10.0332 402.106 5.03095 402.676 16.4019C402.797 18.8213 406.141 34.7188 410.134 29.909C411.592 28.1524 412.909 26.778 412.909 26.778L414.34 10.0332Z" stroke="white" stroke-width="0.943449" stroke-linecap="round" stroke-linejoin="round"/>
<path d="M427.61 27.1232C427.61 27.1232 427.874 28.4147 431.695 27.6266C433.365 27.2814 432.359 28.5938 430.667 29.3793C429.278 30.0249 426.163 30.1897 426.112 29.3002C425.98 27.0006 427.751 27.6991 427.623 27.1232C427.507 26.604 426.714 26.0954 426.192 24.8251C425.735 23.718 419.919 15.2185 427.805 16.4796C428.095 16.4203 425.749 8.96837 418.37 8.86032C410.99 8.75226 411.223 17.9331 411.223 17.9331" fill="#336791"/>
<path d="M427.61 27.1232C427.61 27.1232 427.874 28.4147 431.695 27.6266C433.365 27.2814 432.359 28.5938 430.667 29.3793C429.278 30.0249 426.163 30.1897 426.112 29.3002C425.98 27.0006 427.751 27.6991 427.623 27.1232C427.507 26.604 426.714 26.0954 426.192 24.8251C425.735 23.718 419.919 15.2185 427.805 16.4796C428.095 16.4203 425.749 8.96837 418.37 8.86032C410.99 8.75226 411.223 17.9331 411.223 17.9331" stroke="white" stroke-width="0.943449" stroke-linecap="round" stroke-linejoin="bevel"/>
<path d="M415.516 27.9131C414.488 29.0622 414.791 29.2638 412.735 29.6868C410.656 30.115 411.879 30.878 412.675 31.0784C413.642 31.3209 415.879 31.6635 417.392 29.5457C417.854 28.9 417.39 27.8722 416.757 27.6114C416.451 27.4849 416.043 27.3267 415.518 27.9144L415.516 27.9131Z" fill="#336791" stroke="white" stroke-width="0.943449" stroke-linejoin="round"/>
<path d="M415.446 27.8924C415.341 27.2164 415.667 26.4139 416.017 25.4731C416.541 24.0632 417.751 22.6531 416.784 18.1766C416.063 14.8427 411.223 17.4822 411.223 17.9342C411.223 18.3862 411.441 20.2272 411.144 22.3684C410.752 25.1648 412.923 27.5289 415.421 27.2877" fill="#336791"/>
<path d="M415.446 27.8924C415.341 27.2164 415.667 26.4139 416.017 25.4731C416.541 24.0632 417.751 22.6531 416.784 18.1766C416.063 14.8427 411.223 17.4822 411.223 17.9342C411.223 18.3862 411.441 20.2272 411.144 22.3684C410.752 25.1648 412.923 27.5289 415.421 27.2877" stroke="white" stroke-width="0.943449" stroke-linecap="round" stroke-linejoin="round"/>
<path d="M414.294 17.8684C414.272 18.0226 414.577 18.4351 414.974 18.4904C415.371 18.5458 415.709 18.2242 415.732 18.0687C415.754 17.9132 415.448 17.7446 415.052 17.6892C414.655 17.6339 414.314 17.7156 414.294 17.8684Z" fill="white" stroke="white" stroke-width="0.314858"/>
<path d="M426.372 17.552C426.393 17.7062 426.089 18.1187 425.692 18.174C425.295 18.2294 424.954 17.9078 424.935 17.7523C424.915 17.5968 425.218 17.4282 425.614 17.3728C426.011 17.3175 426.352 17.3992 426.372 17.552Z" fill="white" stroke="white" stroke-width="0.156867"/>
<path d="M427.789 16.4844C427.855 17.6967 427.528 18.5203 427.486 19.8105C427.425 21.6843 428.379 23.8296 426.941 25.9776" fill="#336791"/>
<path d="M427.789 16.4844C427.855 17.6967 427.528 18.5203 427.486 19.8105C427.425 21.6843 428.379 23.8296 426.941 25.9776" stroke="white" stroke-width="0.943449" stroke-linecap="round" stroke-linejoin="round"/>
</g>
</g>
<g clip-path="url(#clip9_1069_30)">
<path d="M461.042 0.511719H486.53C492.465 0.511719 497.275 5.32258 497.275 11.2568V36.7451C497.275 42.6794 492.465 47.4902 486.53 47.4902H461.042C455.108 47.4902 450.297 42.6794 450.297 36.7451V11.2568L450.311 10.7041C450.589 5.20962 454.995 0.803701 460.489 0.525391L461.042 0.511719Z" fill="#F4F2ED" stroke="#E5E5E5"/>
<path d="M472.365 4.50781L490.279 15.3071V35.8024L476.787 43.6304V23.1352L458.863 12.3445L472.365 4.50781Z" fill="#242938"/>
<path d="M470.999 42.4948V26.5L457.48 34.3452L470.999 42.4948Z" fill="#242938"/>
</g>
<g clip-path="url(#clip10_1069_30)">
<path d="M517.269 0.511719H542.757C548.691 0.511719 553.502 5.32258 553.502 11.2568V36.7451C553.502 42.6794 548.691 47.4902 542.757 47.4902H517.269C511.334 47.4902 506.523 42.6794 506.523 36.7451V11.2568L506.537 10.7041C506.815 5.20962 511.221 0.803701 516.716 0.525391L517.269 0.511719Z" fill="#F4F2ED" stroke="#E5E5E5"/>
<path fill-rule="evenodd" clip-rule="evenodd" d="M549.129 24.2005C549.129 21.4683 547.805 19.3125 545.276 19.3125C542.736 19.3125 541.199 21.4683 541.199 24.1791C541.199 27.3914 543.014 29.0137 545.618 29.0137C546.888 29.0137 547.848 28.7254 548.574 28.3199V26.1856C547.848 26.5484 547.016 26.7726 545.959 26.7726C544.924 26.7726 544.006 26.4095 543.889 25.1503H549.107C549.107 25.0116 549.129 24.4567 549.129 24.2005ZM543.857 23.1866C543.857 21.9805 544.593 21.479 545.265 21.479C545.916 21.479 546.61 21.9805 546.61 23.1866H543.857Z" fill="#635BFF"/>
<path fill-rule="evenodd" clip-rule="evenodd" d="M537.078 19.3125C536.032 19.3125 535.36 19.8035 534.987 20.145L534.848 19.4832H532.5V31.9272L535.168 31.3616L535.179 28.3412C535.563 28.6188 536.129 29.0137 537.068 29.0137C538.978 29.0137 540.718 27.4769 540.718 24.0937C540.707 20.9989 538.946 19.3125 537.078 19.3125ZM536.438 26.6657C535.808 26.6657 535.435 26.4416 535.179 26.1642L535.168 22.2047C535.445 21.8953 535.83 21.6818 536.438 21.6818C537.409 21.6818 538.082 22.7703 538.082 24.1684C538.082 25.5986 537.42 26.6657 536.438 26.6657Z" fill="#635BFF"/>
<path fill-rule="evenodd" clip-rule="evenodd" d="M528.832 18.6842L531.511 18.1079V15.9414L528.832 16.507V18.6842Z" fill="#635BFF"/>
<path d="M531.511 19.4961H528.832V28.8343H531.511V19.4961Z" fill="#635BFF"/>
<path fill-rule="evenodd" clip-rule="evenodd" d="M525.96 20.2868L525.79 19.497H523.484V28.8353H526.152V22.5067C526.782 21.6849 527.849 21.8343 528.18 21.9518V19.497C527.839 19.369 526.59 19.1342 525.96 20.2868Z" fill="#635BFF"/>
<path fill-rule="evenodd" clip-rule="evenodd" d="M520.623 17.1797L518.018 17.7346L518.008 26.2831C518.008 27.8626 519.192 29.0259 520.772 29.0259C521.647 29.0259 522.287 28.8658 522.64 28.6737V26.5072C522.298 26.6459 520.612 27.1369 520.612 25.5574V21.7688H522.64V19.4956H520.612L520.623 17.1797Z" fill="#635BFF"/>
<path fill-rule="evenodd" clip-rule="evenodd" d="M513.407 22.2047C513.407 21.7884 513.749 21.6284 514.314 21.6284C515.125 21.6284 516.15 21.8739 516.961 22.3115V19.8035C516.075 19.4514 515.2 19.3125 514.314 19.3125C512.148 19.3125 510.707 20.4437 510.707 22.3329C510.707 25.2783 514.762 24.8088 514.762 26.0788C514.762 26.5698 514.336 26.7298 513.738 26.7298C512.852 26.7298 511.721 26.367 510.824 25.876V28.416C511.817 28.8429 512.82 29.0244 513.738 29.0244C515.958 29.0244 517.484 27.9252 517.484 26.0147C517.473 22.8344 513.407 23.4 513.407 22.2047Z" fill="#635BFF"/>
</g>
</g>
<defs>
<linearGradient id="paint0_linear_1069_30" x1="184.887" y1="13.8789" x2="199.318" y2="34.7757" gradientUnits="userSpaceOnUse">
<stop stop-color="#32B1C1"/>
<stop offset="1" stop-color="#14C6B7"/>
</linearGradient>
<clipPath id="clip0_1069_30">
<rect width="554" height="48" fill="white"/>
</clipPath>
<clipPath id="clip1_1069_30">
<rect width="47.9783" height="47.9783" fill="white" transform="translate(0 0.0117188)"/>
</clipPath>
<clipPath id="clip2_1069_30">
<rect width="47.9783" height="47.9783" fill="white" transform="translate(56.2266 0.0117188)"/>
</clipPath>
<clipPath id="clip3_1069_30">
<rect width="47.9783" height="47.9783" fill="white" transform="translate(112.449 0.0117188)"/>
</clipPath>
<clipPath id="clip4_1069_30">
<rect width="47.9783" height="47.9783" fill="white" transform="translate(168.676 0.0117188)"/>
</clipPath>
<clipPath id="clip5_1069_30">
<rect width="47.9783" height="47.9783" fill="white" transform="translate(224.898 0.0117188)"/>
</clipPath>
<clipPath id="clip6_1069_30">
<rect width="47.9783" height="47.9783" fill="white" transform="translate(281.125 0.0117188)"/>
</clipPath>
<clipPath id="clip7_1069_30">
<rect width="47.9783" height="47.9783" fill="white" transform="translate(337.348 0.0117188)"/>
</clipPath>
<clipPath id="clip8_1069_30">
<rect width="47.9783" height="47.9783" fill="white" transform="translate(393.574 0.0117188)"/>
</clipPath>
<clipPath id="clip9_1069_30">
<rect width="47.9783" height="47.9783" fill="white" transform="translate(449.797 0.0117188)"/>
</clipPath>
<clipPath id="clip10_1069_30">
<rect width="47.9783" height="47.9783" fill="white" transform="translate(506.023 0.0117188)"/>
</clipPath>
</defs>
</svg>
