<svg width="722" height="48" viewBox="0 0 722 48" fill="none" xmlns="http://www.w3.org/2000/svg">
<g clip-path="url(#clip0_1069_99)">
<g clip-path="url(#clip1_1069_99)">
<path d="M11.2822 0.511719H36.8545C42.8106 0.511846 47.6357 5.3242 47.6357 11.2568V36.7451C47.6357 42.6778 42.8106 47.4901 36.8545 47.4902H11.2822C5.32599 47.4902 0.5 42.6778 0.5 36.7451V11.2568L0.513672 10.7041C0.80222 5.02799 5.51203 0.511719 11.2822 0.511719Z" fill="#0A0A0A" stroke="#2E2F2F"/>
<path d="M22.8335 5.2679C22.7526 5.27523 22.4952 5.30088 22.2636 5.3192C16.9223 5.79918 11.9191 8.67179 8.75033 13.087C6.9858 15.5419 5.85725 18.3265 5.43082 21.276C5.28011 22.3057 5.26172 22.6099 5.26172 24.0057C5.26172 25.4018 5.28011 25.706 5.43082 26.7355C6.45277 33.774 11.478 39.6879 18.2935 41.879C19.514 42.2711 20.8005 42.5385 22.2636 42.6997C22.8335 42.7619 25.2963 42.7619 25.8663 42.6997C28.3917 42.4212 30.5311 41.7984 32.6412 40.7247C32.9646 40.56 33.0273 40.5159 32.9831 40.4794C32.9537 40.4573 31.5751 38.6142 29.921 36.3866L26.914 32.3379L23.1458 26.7795C21.0726 23.7237 19.3669 21.2247 19.3521 21.2247C19.3374 21.2211 19.3227 23.6907 19.3154 26.7062C19.3043 31.9861 19.3007 32.1986 19.2346 32.3231C19.139 32.5026 19.0655 32.5759 18.911 32.6567C18.7934 32.7151 18.6905 32.7262 18.1354 32.7262H17.4994L17.3303 32.6199C17.22 32.5504 17.1392 32.4587 17.084 32.3525L17.0068 32.1876L17.0142 24.8412L17.0252 17.4911L17.1392 17.3482C17.198 17.2713 17.323 17.1724 17.4112 17.1247C17.5619 17.0514 17.6207 17.0441 18.2567 17.0441C19.0067 17.0441 19.1315 17.0734 19.3265 17.286C19.3816 17.3446 21.4217 20.4077 23.8628 24.0974C26.3036 27.787 29.6416 32.8251 31.281 35.2983L34.2587 39.7942L34.4095 39.6952C35.7438 38.8305 37.1555 37.5994 38.273 36.3169C40.6514 33.5945 42.1844 30.275 42.6991 26.7355C42.8497 25.706 42.8681 25.4018 42.8681 24.0057C42.8681 22.6099 42.8497 22.3057 42.6991 21.276C41.6771 14.2375 36.6518 8.32371 29.8364 6.13262C28.6343 5.74423 27.3551 5.47676 25.9214 5.31554C25.5684 5.2789 23.1385 5.23859 22.8335 5.2679ZM30.5311 16.6044C30.7075 16.6924 30.851 16.8609 30.9025 17.0368C30.9318 17.132 30.9392 19.1693 30.9318 23.7602L30.9207 30.3483L29.7555 28.5674L28.5865 26.7868V21.998C28.5865 18.9019 28.6012 17.1614 28.6232 17.0771C28.682 16.8719 28.8106 16.7107 28.9872 16.6154C29.1378 16.5385 29.1931 16.5312 29.7702 16.5312C30.3143 16.5312 30.4099 16.5385 30.5311 16.6044Z" fill="white"/>
</g>
<g clip-path="url(#clip2_1069_99)">
<path d="M67.4189 0.511719H92.9912C98.9473 0.511846 103.772 5.3242 103.772 11.2568V36.7451C103.772 42.6778 98.9473 47.4901 92.9912 47.4902H67.4189C61.4627 47.4902 56.6367 42.6778 56.6367 36.7451V11.2568L56.6504 10.7041C56.9389 5.02799 61.6487 0.511719 67.4189 0.511719Z" fill="#007ACC" stroke="#2E2F2F"/>
<path d="M66.7809 24.1617L66.7656 26.1266H69.8983H73.031V34.9988V43.8709H75.2468H77.4626V34.9988V26.1266H80.5952H83.7278V24.1997C83.7278 23.1335 83.7051 22.2426 83.6744 22.2197C83.6515 22.1893 79.8388 22.174 75.2162 22.1816L66.8038 22.2045L66.7809 24.1617Z" fill="white"/>
<path d="M94.9761 22.1467C96.1985 22.4514 97.1308 22.9921 97.9865 23.8754C98.4297 24.3477 99.0867 25.2083 99.1403 25.4139C99.1555 25.4748 97.062 26.8761 95.7937 27.6604C95.7478 27.691 95.5643 27.4929 95.358 27.1883C94.7392 26.2897 94.0898 25.9012 93.0964 25.8328C91.6371 25.7336 90.6973 26.4953 90.705 27.7671C90.705 28.1402 90.7584 28.361 90.9113 28.6657C91.2321 29.3282 91.8281 29.7243 93.7002 30.5315C97.146 32.009 98.6206 32.9838 99.5376 34.3697C100.561 35.9157 100.791 38.3832 100.095 40.2186C99.3313 42.2138 97.4364 43.5694 94.7697 44.0188C93.9446 44.1635 91.9885 44.1406 91.1023 43.9808C89.1692 43.638 87.3355 42.6861 86.2046 41.4372C85.7615 40.9497 84.898 39.6779 84.9516 39.5864C84.9744 39.5561 85.1731 39.4342 85.3946 39.3047C85.6086 39.1829 86.4186 38.7183 87.1826 38.2766L88.5656 37.4769L88.8559 37.9034C89.2609 38.5202 90.1471 39.3657 90.6821 39.6473C92.2177 40.4547 94.3267 40.3404 95.3658 39.4114C95.8089 39.0077 95.9923 38.5888 95.9923 37.972C95.9923 37.416 95.9235 37.1723 95.6331 36.7535C95.2588 36.2205 94.4948 35.771 92.3247 34.8343C89.8416 33.7681 88.7718 33.1056 87.7939 32.0546C87.2285 31.4455 86.6935 30.4705 86.472 29.6557C86.2887 28.978 86.2428 27.2796 86.388 26.5942C86.8998 24.203 88.7107 22.5352 91.3238 22.04C92.172 21.8802 94.1432 21.9411 94.9761 22.1467Z" fill="white"/>
</g>
<g clip-path="url(#clip3_1069_99)">
<path d="M123.556 0.511719H149.128C155.084 0.511846 159.909 5.3242 159.909 11.2568V36.7451C159.909 42.6778 155.084 47.4901 149.128 47.4902H123.556C117.599 47.4902 112.773 42.6778 112.773 36.7451V11.2568L112.787 10.7041C113.076 5.02799 117.785 0.511719 123.556 0.511719Z" fill="#0A0A0A" stroke="#2E2F2F"/>
<path d="M136.34 27.5514C138.277 27.5514 139.848 25.986 139.848 24.055C139.848 22.1241 138.277 20.5586 136.34 20.5586C134.403 20.5586 132.832 22.1241 132.832 24.055C132.832 25.986 134.403 27.5514 136.34 27.5514Z" fill="#00D8FF"/>
<path fill-rule="evenodd" clip-rule="evenodd" d="M136.339 16.9453C141.049 16.9453 145.424 17.6189 148.723 18.7509C152.698 20.1148 155.142 22.1822 155.142 24.0543C155.142 26.0051 152.552 28.2014 148.283 29.611C145.056 30.6766 140.81 31.2329 136.339 31.2329C131.755 31.2329 127.414 30.7107 124.151 29.5992C120.022 28.1926 117.535 25.968 117.535 24.0543C117.535 22.1974 119.869 20.1459 123.787 18.7842C127.099 17.6335 131.583 16.9453 136.339 16.9453Z" stroke="#00D8FF" stroke-width="1.67006"/>
<path fill-rule="evenodd" clip-rule="evenodd" d="M130.133 20.5216C132.486 16.4551 135.257 13.0138 137.889 10.7308C141.06 7.98021 144.078 6.90299 145.705 7.83809C147.4 8.81265 148.015 12.1463 147.108 16.5358C146.423 19.8546 144.784 23.7989 142.55 27.6593C140.26 31.6171 137.638 35.1042 135.042 37.3659C131.757 40.2281 128.581 41.264 126.918 40.3079C125.304 39.381 124.687 36.3409 125.461 32.2768C126.115 28.8428 127.757 24.628 130.132 20.5216H130.133Z" stroke="#00D8FF" stroke-width="1.67006"/>
<path fill-rule="evenodd" clip-rule="evenodd" d="M130.141 27.6707C127.781 23.6087 126.174 19.4964 125.504 16.0835C124.697 11.9715 125.267 8.82749 126.893 7.88967C128.587 6.91226 131.791 8.04606 135.154 11.0218C137.696 13.2716 140.306 16.6558 142.546 20.5124C144.843 24.4665 146.564 28.4725 147.234 31.8437C148.081 36.11 147.395 39.3697 145.734 40.3284C144.122 41.2587 141.171 40.2738 138.025 37.5754C135.367 35.2957 132.523 31.7732 130.141 27.6707Z" stroke="#00D8FF" stroke-width="1.67006"/>
</g>
<g clip-path="url(#clip4_1069_99)">
<path d="M179.692 0.511719H205.265C211.221 0.511846 216.046 5.3242 216.046 11.2568V36.7451C216.046 42.6778 211.221 47.4901 205.265 47.4902H179.692C173.736 47.4902 168.91 42.6778 168.91 36.7451V11.2568L168.924 10.7041C169.212 5.02799 173.922 0.511719 179.692 0.511719Z" fill="#0A0A0A" stroke="#2E2F2F"/>
<path fill-rule="evenodd" clip-rule="evenodd" d="M184.016 20.6259C185.144 16.1281 187.965 13.8789 192.478 13.8789C199.247 13.8789 200.093 18.9391 203.477 19.7825C205.734 20.3449 207.708 19.5016 209.4 17.2524C208.272 21.7502 205.452 23.9993 200.939 23.9993C194.17 23.9993 193.324 18.9391 189.939 18.0958C187.683 17.5333 185.708 18.3767 184.016 20.6259ZM175.555 30.7463C176.683 26.2485 179.504 23.9993 184.016 23.9993C190.785 23.9993 191.631 29.0596 195.016 29.9029C197.273 30.4654 199.247 29.622 200.939 27.3728C199.811 31.8706 196.99 34.1198 192.478 34.1198C185.708 34.1198 184.862 29.0596 181.478 28.2162C179.221 27.6538 177.247 28.4971 175.555 30.7463Z" fill="url(#paint0_linear_1069_99)"/>
</g>
<g clip-path="url(#clip5_1069_99)">
<path d="M235.825 0.511719H261.397C267.354 0.511847 272.179 5.3242 272.179 11.2568V36.7451C272.179 42.6777 267.354 47.4901 261.397 47.4902H235.825C229.869 47.4902 225.043 42.6778 225.043 36.7451V11.2568L225.057 10.7041C225.345 5.02799 230.055 0.511719 235.825 0.511719Z" fill="#0A0A0A" stroke="#2E2F2F"/>
<path d="M265.795 26.1189C266.97 24.9479 266.97 23.0492 265.795 21.8782C264.62 20.7071 262.716 20.7071 261.541 21.8782L246.49 36.8797C245.315 38.0508 245.315 39.9494 246.49 41.1205C247.665 42.2915 249.569 42.2915 250.744 41.1205L265.795 26.1189Z" fill="white"/>
<path d="M262.78 9.62672C263.955 8.45567 263.955 6.55703 262.78 5.38599C261.605 4.21494 259.7 4.21494 258.525 5.38599L229.939 33.8784C228.764 35.0494 228.764 36.9481 229.939 38.1191C231.114 39.2901 233.019 39.2901 234.194 38.1191L262.78 9.62672Z" fill="white"/>
</g>
<g clip-path="url(#clip6_1069_99)">
<path d="M348.099 0.511719H373.671C379.627 0.511846 384.452 5.3242 384.452 11.2568V36.7451C384.452 42.6778 379.627 47.4901 373.671 47.4902H348.099C342.142 47.4902 337.316 42.6778 337.316 36.7451V11.2568L337.33 10.7041C337.619 5.02799 342.328 0.511719 348.099 0.511719Z" fill="#0A0A0A" stroke="#2E2F2F"/>
<path d="M343.586 36.9336H352.235V28.3125H360.885V19.6914H352.235V11.0703H343.586V36.9336ZM360.885 28.3125V36.9336H378.184V11.0703H360.885V19.6914H369.534V28.3125H360.885Z" fill="white"/>
</g>
<g clip-path="url(#clip7_1069_99)">
<path d="M460.372 0.511719H485.944C491.9 0.511847 496.726 5.3242 496.726 11.2568V36.7451C496.726 42.6777 491.9 47.4901 485.944 47.4902H460.372C454.416 47.4902 449.59 42.6778 449.59 36.7451V11.2568L449.604 10.7041C449.892 5.02799 454.602 0.511719 460.372 0.511719Z" fill="#0A0A0A" stroke="#2E2F2F"/>
<path d="M463.069 23.6612C463.507 22.8997 463.239 21.9356 462.47 21.5078C461.701 21.0799 460.724 21.3502 460.286 22.1114L455.148 31.0482C454.71 31.8094 454.978 32.7735 455.747 33.2016C456.515 33.6294 457.493 33.3592 457.931 32.5979L463.069 23.6612Z" fill="#C5F74F"/>
<path d="M474.143 16.8095C474.581 16.0482 474.313 15.0841 473.544 14.6562C472.776 14.2283 471.798 14.4986 471.36 15.2599L466.222 24.1966C465.784 24.9579 466.052 25.9219 466.821 26.35C467.589 26.7779 468.567 26.5076 469.005 25.7463L474.143 16.8095Z" fill="#C5F74F"/>
<path d="M491.186 16.8095C491.624 16.0482 491.356 15.0842 490.587 14.6562C489.819 14.2283 488.841 14.4986 488.403 15.2599L483.265 24.1967C482.827 24.958 483.095 25.922 483.864 26.3499C484.632 26.7778 485.61 26.5075 486.048 25.7462L491.186 16.8095Z" fill="#C5F74F"/>
<path d="M480.104 23.6612C480.542 22.8997 480.274 21.9356 479.505 21.5078C478.737 21.0799 477.759 21.3502 477.321 22.1114L472.183 31.0482C471.745 31.8094 472.013 32.7735 472.782 33.2016C473.55 33.6294 474.528 33.3592 474.966 32.5979L480.104 23.6612Z" fill="#C5F74F"/>
</g>
<g clip-path="url(#clip8_1069_99)">
<path d="M516.509 0.511719H542.081C548.037 0.511846 552.862 5.3242 552.862 11.2568V36.7451C552.862 42.6778 548.037 47.4901 542.081 47.4902H516.509C510.553 47.4902 505.727 42.6778 505.727 36.7451V11.2568L505.74 10.7041C506.029 5.02799 510.739 0.511719 516.509 0.511719Z" fill="#0A0A0A" stroke="#2E2F2F"/>
<path d="M543.489 27.8791C539.668 28.6643 539.39 27.3744 539.39 27.3744C543.427 21.4048 545.115 13.8277 543.658 11.9736C539.686 6.91336 532.81 9.30774 532.695 9.36966L532.658 9.37626C531.818 9.2083 530.964 9.11961 530.108 9.11138C528.378 9.08503 527.067 9.56337 526.07 10.3158C526.07 10.3158 513.804 5.27932 514.375 16.6503C514.496 19.0698 517.852 34.9673 521.858 30.1575C523.333 28.389 524.748 26.9038 524.748 26.9038C525.449 27.3689 526.291 27.6062 527.173 27.5205L527.241 27.4626C527.221 27.6903 527.231 27.9197 527.269 28.1452C526.238 29.2942 526.542 29.4959 524.48 29.9189C522.393 30.3471 523.62 31.1101 524.419 31.3105C525.389 31.553 527.634 31.8956 529.152 29.7793L529.091 30.0203C529.496 30.3432 529.779 32.1195 529.731 33.7298C529.683 35.3403 529.652 36.4445 529.969 37.3089C530.286 38.1734 530.604 40.1158 533.314 39.5491C535.579 39.0655 536.751 37.8097 536.917 35.7198C537.033 34.2332 537.295 34.4519 537.313 33.1237L537.525 32.4938C537.767 30.4776 537.564 29.828 538.959 30.1311L539.299 30.1614C540.326 30.2075 541.671 29.9967 542.459 29.6316C544.158 28.8463 545.165 27.5337 543.49 27.8791H543.489Z" fill="#336791"/>
<path d="M532.695 9.11996C532.272 9.25175 539.523 6.47786 543.645 11.7265C545.099 13.5806 543.414 21.1578 539.377 27.1272M529.316 28.8338C529.21 32.5842 529.342 36.3608 529.71 37.2675C530.077 38.174 530.867 39.9689 533.578 39.3917C535.843 38.9081 536.668 37.971 537.025 35.9035L537.862 29.2924L529.316 28.8338ZM526.066 10.0332C526.066 10.0332 513.792 5.03095 514.363 16.4019C514.485 18.8213 517.84 34.7188 521.846 29.909C523.308 28.1524 524.631 26.778 524.631 26.778L526.066 10.0332Z" fill="#336791"/>
<path d="M532.695 9.11996C532.272 9.25175 539.523 6.47786 543.645 11.7265C545.099 13.5806 543.414 21.1578 539.377 27.1272M529.316 28.8338C529.21 32.5842 529.342 36.3608 529.71 37.2675C530.077 38.174 530.867 39.9689 533.578 39.3917C535.843 38.9081 536.668 37.971 537.025 35.9035L537.862 29.2924L529.316 28.8338ZM526.066 10.0332C526.066 10.0332 513.792 5.03095 514.363 16.4019C514.485 18.8213 517.84 34.7188 521.846 29.909C523.308 28.1524 524.631 26.778 524.631 26.778L526.066 10.0332Z" stroke="white" stroke-width="0.943449" stroke-linecap="round" stroke-linejoin="round"/>
<path d="M539.375 27.1232C539.375 27.1232 539.639 28.4147 543.473 27.6266C545.148 27.2814 544.14 28.5938 542.442 29.3793C541.049 30.0249 537.923 30.1897 537.872 29.3002C537.739 27.0006 539.516 27.6991 539.388 27.1232C539.272 26.604 538.476 26.0954 537.952 24.8251C537.493 23.718 531.659 15.2185 539.57 16.4796C539.861 16.4203 537.508 8.96837 530.104 8.86032C522.7 8.75226 522.934 17.9331 522.934 17.9331" fill="#336791"/>
<path d="M539.375 27.1232C539.375 27.1232 539.639 28.4147 543.473 27.6266C545.148 27.2814 544.14 28.5938 542.442 29.3793C541.049 30.0249 537.923 30.1897 537.872 29.3002C537.739 27.0006 539.516 27.6991 539.388 27.1232C539.272 26.604 538.476 26.0954 537.952 24.8251C537.493 23.718 531.659 15.2185 539.57 16.4796C539.861 16.4203 537.508 8.96837 530.104 8.86032C522.7 8.75226 522.934 17.9331 522.934 17.9331" stroke="white" stroke-width="0.943449" stroke-linecap="round" stroke-linejoin="bevel"/>
<path d="M527.24 27.9131C526.208 29.0622 526.512 29.2638 524.45 29.6868C522.364 30.115 523.591 30.878 524.389 31.0784C525.36 31.3209 527.605 31.6635 529.122 29.5457C529.585 28.9 529.12 27.8722 528.485 27.6114C528.178 27.4849 527.768 27.3267 527.242 27.9144L527.24 27.9131Z" fill="#0A0A0A" stroke="white" stroke-width="0.943449" stroke-linejoin="round"/>
<path d="M527.175 27.8924C527.069 27.2164 527.397 26.4139 527.748 25.4731C528.274 24.0632 529.488 22.6531 528.517 18.1766C527.794 14.8427 522.938 17.4822 522.938 17.9342C522.938 18.3862 523.157 20.2272 522.859 22.3684C522.466 25.1648 524.643 27.5289 527.15 27.2877" fill="#336791"/>
<path d="M527.175 27.8924C527.069 27.2164 527.397 26.4139 527.748 25.4731C528.274 24.0632 529.488 22.6531 528.517 18.1766C527.794 14.8427 522.938 17.4822 522.938 17.9342C522.938 18.3862 523.157 20.2272 522.859 22.3684C522.466 25.1648 524.643 27.5289 527.15 27.2877" stroke="white" stroke-width="0.943449" stroke-linecap="round" stroke-linejoin="round"/>
<path d="M526.017 17.8684C525.994 18.0226 526.301 18.4351 526.699 18.4904C527.097 18.5458 527.437 18.2242 527.459 18.0687C527.482 17.9132 527.175 17.7446 526.777 17.6892C526.379 17.6339 526.037 17.7156 526.017 17.8684Z" fill="white" stroke="white" stroke-width="0.314858"/>
<path d="M538.131 17.552C538.152 17.7062 537.847 18.1187 537.449 18.174C537.051 18.2294 536.708 17.9078 536.688 17.7523C536.668 17.5968 536.973 17.4282 537.371 17.3728C537.768 17.3175 538.111 17.3992 538.131 17.552Z" fill="white" stroke="white" stroke-width="0.156867"/>
<path d="M539.557 16.4844C539.623 17.6967 539.295 18.5203 539.253 19.8105C539.192 21.6843 540.15 23.8296 538.707 25.9776" fill="#0A0A0A"/>
<path d="M539.557 16.4844C539.623 17.6967 539.295 18.5203 539.253 19.8105C539.192 21.6843 540.15 23.8296 538.707 25.9776" stroke="white" stroke-width="0.943449" stroke-linecap="round" stroke-linejoin="round"/>
</g>
<g clip-path="url(#clip9_1069_99)">
<path d="M572.646 0.511719H598.218C604.174 0.511846 608.999 5.3242 608.999 11.2568V36.7451C608.999 42.6778 604.174 47.4901 598.218 47.4902H572.646C566.689 47.4902 561.863 42.6778 561.863 36.7451V11.2568L561.877 10.7041C562.166 5.02799 566.875 0.511719 572.646 0.511719Z" fill="#0A0A0A" stroke="#2E2F2F"/>
<path d="M584.007 4.50781L601.98 15.3071V35.8024L588.443 43.6304V23.1352L570.461 12.3445L584.007 4.50781Z" fill="#F4F2ED"/>
<path d="M582.634 42.4948V26.5L569.07 34.3452L582.634 42.4948Z" fill="#F4F2ED"/>
</g>
<g clip-path="url(#clip10_1069_99)">
<path d="M684.915 0.511719H710.487C716.443 0.511847 721.269 5.3242 721.269 11.2568V36.7451C721.269 42.6777 716.443 47.4901 710.487 47.4902H684.915C678.959 47.4902 674.133 42.6778 674.133 36.7451V11.2568L674.146 10.7041C674.435 5.02799 679.145 0.511719 684.915 0.511719Z" fill="#0A0A0A" stroke="#2E2F2F"/>
<path fill-rule="evenodd" clip-rule="evenodd" d="M716.881 24.2005C716.881 21.4683 715.554 19.3125 713.016 19.3125C710.468 19.3125 708.926 21.4683 708.926 24.1791C708.926 27.3914 710.746 29.0137 713.359 29.0137C714.633 29.0137 715.597 28.7254 716.325 28.3199V26.1856C715.597 26.5484 714.761 26.7726 713.701 26.7726C712.663 26.7726 711.742 26.4095 711.624 25.1503H716.86C716.86 25.0116 716.881 24.4567 716.881 24.2005ZM711.592 23.1866C711.592 21.9805 712.331 21.479 713.005 21.479C713.659 21.479 714.354 21.9805 714.354 23.1866H711.592Z" fill="#635BFF"/>
<path fill-rule="evenodd" clip-rule="evenodd" d="M704.789 19.3125C703.739 19.3125 703.065 19.8035 702.69 20.145L702.551 19.4832H700.195V31.9272L702.872 31.3616L702.883 28.3412C703.268 28.6188 703.836 29.0137 704.778 29.0137C706.695 29.0137 708.44 27.4769 708.44 24.0937C708.429 20.9989 706.662 19.3125 704.789 19.3125ZM704.146 26.6657C703.515 26.6657 703.14 26.4416 702.883 26.1642L702.872 22.2047C703.15 21.8953 703.536 21.6818 704.146 21.6818C705.121 21.6818 705.795 22.7703 705.795 24.1684C705.795 25.5986 705.131 26.6657 704.146 26.6657Z" fill="#635BFF"/>
<path fill-rule="evenodd" clip-rule="evenodd" d="M696.516 18.6842L699.203 18.1079V15.9414L696.516 16.507V18.6842Z" fill="#635BFF"/>
<path d="M699.203 19.4961H696.516V28.8343H699.203V19.4961Z" fill="#635BFF"/>
<path fill-rule="evenodd" clip-rule="evenodd" d="M693.637 20.2868L693.465 19.497H691.152V28.8353H693.829V22.5067C694.461 21.6849 695.532 21.8343 695.864 21.9518V19.497C695.521 19.369 694.268 19.1342 693.637 20.2868Z" fill="#635BFF"/>
<path fill-rule="evenodd" clip-rule="evenodd" d="M688.28 17.1797L685.667 17.7346L685.656 26.2831C685.656 27.8626 686.845 29.0259 688.429 29.0259C689.307 29.0259 689.95 28.8658 690.303 28.6737V26.5072C689.961 26.6459 688.269 27.1369 688.269 25.5574V21.7688H690.303V19.4956H688.269L688.28 17.1797Z" fill="#635BFF"/>
<path fill-rule="evenodd" clip-rule="evenodd" d="M681.041 22.2047C681.041 21.7884 681.384 21.6284 681.951 21.6284C682.765 21.6284 683.793 21.8739 684.607 22.3115V19.8035C683.718 19.4514 682.84 19.3125 681.951 19.3125C679.778 19.3125 678.332 20.4437 678.332 22.3329C678.332 25.2783 682.401 24.8088 682.401 26.0788C682.401 26.5698 681.973 26.7298 681.373 26.7298C680.484 26.7298 679.349 26.367 678.45 25.876V28.416C679.446 28.8429 680.452 29.0244 681.373 29.0244C683.6 29.0244 685.131 27.9252 685.131 26.0147C685.121 22.8344 681.041 23.4 681.041 22.2047Z" fill="#635BFF"/>
</g>
<g clip-path="url(#clip11_1069_99)">
<path d="M291.962 0.5H317.534C323.49 0.500127 328.315 5.31248 328.315 11.2451V36.7334C328.315 42.666 323.49 47.4784 317.534 47.4785H291.962C286.006 47.4785 281.18 42.6661 281.18 36.7334V11.2451L281.193 10.6924C281.482 5.01628 286.192 0.5 291.962 0.5Z" fill="#FFF312" stroke="#2E2F2F"/>
<path d="M300.583 18L293.843 29.989H287.703L292.965 20.628C293.782 19.176 295.818 18 297.513 18H300.583ZM315.641 20.997C315.641 19.342 317.015 18 318.711 18C320.406 18 321.781 19.342 321.781 20.997C321.781 22.653 320.406 23.995 318.711 23.995C317.015 23.995 315.641 22.653 315.641 20.997ZM301.734 18H307.874L301.134 29.989H294.994L301.734 18ZM308.987 18H315.127L309.864 27.362C309.048 28.813 307.012 29.989 305.317 29.989H302.247L308.987 18Z" fill="black"/>
</g>
<g clip-path="url(#clip12_1069_99)">
<path d="M404.235 0.5H429.808C435.764 0.500127 440.589 5.31248 440.589 11.2451V36.7334C440.589 42.666 435.764 47.4784 429.808 47.4785H404.235C398.279 47.4785 393.453 42.6661 393.453 36.7334V11.2451L393.467 10.6924C393.755 5.01628 398.465 0.5 404.235 0.5Z" fill="#0A0A0A" stroke="#2E2F2F"/>
<path d="M420.349 9C426.159 9 429.614 12.4556 429.614 17.0427C429.614 21.6299 426.159 25.0854 420.349 25.0854H417.413L432 39H421.694L410.593 28.4493C409.798 27.7157 409.431 26.8594 409.431 26.1255C409.431 25.0857 410.165 24.1683 411.572 23.7707L417.29 22.2415C419.462 21.6604 420.96 19.9784 420.96 17.7766C420.96 15.0856 418.758 13.526 416.036 13.526H402V9H420.349Z" fill="white"/>
</g>
<g clip-path="url(#clip13_1069_99)">
<path d="M628.778 0.5H654.351C660.307 0.500128 665.132 5.31248 665.132 11.2451V36.7334C665.132 42.666 660.307 47.4784 654.351 47.4785H628.778C622.822 47.4785 617.996 42.6661 617.996 36.7334V11.2451L618.01 10.6924C618.298 5.01627 623.008 0.5 628.778 0.5Z" fill="#0A0A0A" stroke="#2E2F2F"/>
</g>
<path d="M646.02 18.2344C645.19 18.2344 644.518 18.9029 644.518 19.7257V24.2035C644.518 25.8491 643.168 27.1881 641.509 27.1881C639.851 27.1881 638.501 25.8491 638.501 24.2035V19.7257C638.501 18.9011 637.829 18.2344 636.998 18.2344C636.168 18.2344 635.496 18.9029 635.496 19.7257V24.2035C635.496 27.4948 638.194 30.1726 641.509 30.1726C644.824 30.1726 647.523 27.4948 647.523 24.2035V19.7257C647.524 18.9029 646.85 18.2344 646.02 18.2344ZM646.02 20.7524C645.449 20.7524 644.986 20.2933 644.986 19.7257C644.986 19.1582 645.449 18.699 646.02 18.699C646.591 18.699 647.054 19.1582 647.054 19.7257C647.054 20.2933 646.591 20.7524 646.02 20.7524Z" fill="white"/>
<path d="M652.357 24.203L648.91 27.6247C648.322 28.2069 648.322 29.1528 648.91 29.735C649.497 30.3173 650.449 30.3173 651.035 29.735L654.482 26.3134L657.929 29.735C658.517 30.3173 659.468 30.3173 660.054 29.735C660.642 29.1528 660.642 28.2069 660.054 27.6247L656.609 24.203L660.056 20.7814C660.644 20.1991 660.644 19.2533 660.056 18.671C659.468 18.0888 658.517 18.0888 657.931 18.671L654.484 22.0927L651.035 18.671C650.447 18.0888 649.495 18.0888 648.91 18.671C648.322 19.2533 648.322 20.1991 648.91 20.7814L652.357 24.203ZM658.995 29.7075C658.423 29.7075 657.961 29.2483 657.961 28.6808C657.961 28.1133 658.423 27.6541 658.995 27.6541C659.566 27.6541 660.029 28.1133 660.029 28.6808C660.029 29.2465 659.566 29.7075 658.995 29.7075Z" fill="white"/>
<path d="M633.347 18.3481C632.785 18.1167 632.138 18.2453 631.709 18.6714L628.259 22.0931L624.812 18.6714C624.382 18.2453 623.736 18.1167 623.174 18.3481C622.612 18.5795 622.246 19.1232 622.246 19.7256V28.6793C622.246 29.504 622.918 30.1725 623.748 30.1725C624.579 30.1725 625.251 29.504 625.251 28.6811V23.3273L627.196 25.2576C627.784 25.8398 628.735 25.8398 629.321 25.2576L631.266 23.3273V28.6793C631.266 29.504 631.938 30.1707 632.768 30.1707C633.598 30.1707 634.271 29.5021 634.271 28.6793V19.7256C634.274 19.1232 633.909 18.5795 633.347 18.3481ZM632.77 29.7078C632.199 29.7078 631.736 29.2487 631.736 28.6811C631.736 28.1136 632.199 27.6544 632.77 27.6544C633.341 27.6544 633.804 28.1136 633.804 28.6811C633.806 29.2468 633.341 29.7078 632.77 29.7078Z" fill="white"/>
</g>
<defs>
<linearGradient id="paint0_linear_1069_99" x1="184.674" y1="13.8789" x2="199.088" y2="34.82" gradientUnits="userSpaceOnUse">
<stop stop-color="#32B1C1"/>
<stop offset="1" stop-color="#14C6B7"/>
</linearGradient>
<clipPath id="clip0_1069_99">
<rect width="722" height="48" fill="white"/>
</clipPath>
<clipPath id="clip1_1069_99">
<rect width="48.1362" height="47.9783" fill="white" transform="translate(0 0.0117188)"/>
</clipPath>
<clipPath id="clip2_1069_99">
<rect width="48.1362" height="47.9783" fill="white" transform="translate(56.1367 0.0117188)"/>
</clipPath>
<clipPath id="clip3_1069_99">
<rect width="48.1362" height="47.9783" fill="white" transform="translate(112.273 0.0117188)"/>
</clipPath>
<clipPath id="clip4_1069_99">
<rect width="48.1362" height="47.9783" fill="white" transform="translate(168.41 0.0117188)"/>
</clipPath>
<clipPath id="clip5_1069_99">
<rect width="48.1362" height="47.9783" fill="white" transform="translate(224.543 0.0117188)"/>
</clipPath>
<clipPath id="clip6_1069_99">
<rect width="48.1362" height="47.9783" fill="white" transform="translate(336.816 0.0117188)"/>
</clipPath>
<clipPath id="clip7_1069_99">
<rect width="48.1362" height="47.9783" fill="white" transform="translate(449.09 0.0117188)"/>
</clipPath>
<clipPath id="clip8_1069_99">
<rect width="48.1362" height="47.9783" fill="white" transform="translate(505.227 0.0117188)"/>
</clipPath>
<clipPath id="clip9_1069_99">
<rect width="48.1362" height="47.9783" fill="white" transform="translate(561.363 0.0117188)"/>
</clipPath>
<clipPath id="clip10_1069_99">
<rect width="48.1362" height="47.9783" fill="white" transform="translate(673.633 0.0117188)"/>
</clipPath>
<clipPath id="clip11_1069_99">
<rect width="48.1362" height="47.9783" fill="white" transform="translate(280.68)"/>
</clipPath>
<clipPath id="clip12_1069_99">
<rect width="48.1362" height="47.9783" fill="white" transform="translate(392.953)"/>
</clipPath>
<clipPath id="clip13_1069_99">
<rect width="48.1362" height="47.9783" fill="white" transform="translate(617.496)"/>
</clipPath>
</defs>
</svg>
