<svg width="777" height="48" viewBox="0 0 777 48" fill="none" xmlns="http://www.w3.org/2000/svg">
<g clip-path="url(#clip0_1069_30)">
<g clip-path="url(#clip1_1069_30)">
<path d="M11.2666 0.511719H36.8037C42.7505 0.511951 47.5693 5.32362 47.5693 11.2568V36.7451C47.5693 42.6783 42.7505 47.49 36.8037 47.4902H11.2666C5.31964 47.4902 0.5 42.6785 0.5 36.7451V11.2568L0.513672 10.7041C0.801812 5.02741 5.50537 0.511719 11.2666 0.511719Z" fill="#F4F2ED" stroke="#E5E5E5"/>
<path d="M22.8014 5.2679C22.7206 5.27523 22.4636 5.30088 22.2322 5.3192C16.8983 5.79918 11.9021 8.67179 8.73769 13.087C6.9756 15.5419 5.84862 18.3265 5.42277 21.276C5.27227 22.3057 5.25391 22.6099 5.25391 24.0057C5.25391 25.4018 5.27227 25.706 5.42277 26.7355C6.44331 33.774 11.4616 39.6879 18.2676 41.879C19.4865 42.2711 20.7712 42.5385 22.2322 42.6997C22.8014 42.7619 25.2608 42.7619 25.8299 42.6997C28.3519 42.4212 30.4884 41.7984 32.5956 40.7247C32.9185 40.56 32.9811 40.5159 32.9369 40.4794C32.9076 40.4573 31.5309 38.6142 29.8791 36.3866L26.8762 32.3379L23.1133 26.7795C21.0429 23.7237 19.3396 21.2247 19.3248 21.2247C19.3101 21.2211 19.2955 23.6907 19.2882 26.7062C19.2771 31.9861 19.2735 32.1986 19.2074 32.3231C19.112 32.5026 19.0386 32.5759 18.8843 32.6567C18.7669 32.7151 18.6641 32.7262 18.1098 32.7262H17.4747L17.3058 32.6199C17.1957 32.5504 17.1149 32.4587 17.0599 32.3525L16.9828 32.1876L16.9901 24.8412L17.0011 17.4911L17.1149 17.3482C17.1737 17.2713 17.2985 17.1724 17.3866 17.1247C17.5371 17.0514 17.5958 17.0441 18.2309 17.0441C18.9798 17.0441 19.1045 17.0734 19.2992 17.286C19.3543 17.3446 21.3916 20.4077 23.8292 24.0974C26.2667 27.787 29.6 32.8251 31.2372 35.2983L34.2108 39.7942L34.3614 39.6952C35.6938 38.8305 37.1036 37.5994 38.2195 36.3169C40.5946 33.5945 42.1255 30.275 42.6395 26.7355C42.7899 25.706 42.8083 25.4018 42.8083 24.0057C42.8083 22.6099 42.7899 22.3057 42.6395 21.276C41.6189 14.2375 36.6005 8.32371 29.7946 6.13262C28.5941 5.74423 27.3167 5.47676 25.885 5.31554C25.5325 5.2789 23.1059 5.23859 22.8014 5.2679ZM30.4884 16.6044C30.6645 16.6924 30.8078 16.8609 30.8592 17.0368C30.8885 17.132 30.8958 19.1693 30.8885 23.7602L30.8774 30.3483L29.7138 28.5674L28.5464 26.7868V21.998C28.5464 18.9019 28.5611 17.1614 28.5831 17.0771C28.6418 16.8719 28.7703 16.7107 28.9466 16.6154C29.097 16.5385 29.1522 16.5312 29.7285 16.5312C30.2719 16.5312 30.3673 16.5385 30.4884 16.6044Z" fill="black"/>
</g>
<g clip-path="url(#clip2_1069_30)">
<path d="M67.3369 0.511719H92.874C98.8208 0.511951 103.64 5.32362 103.64 11.2568V36.7451C103.64 42.6783 98.8208 47.49 92.874 47.4902H67.3369C61.3899 47.4902 56.5703 42.6785 56.5703 36.7451V11.2568L56.584 10.7041C56.8721 5.02741 61.5757 0.511719 67.3369 0.511719Z" fill="#007ACC" stroke="#E5E5E5"/>
<path d="M66.6989 24.1617L66.6836 26.1266H69.8119H72.9403V34.9988V43.8709H75.1531H77.3658V34.9988V26.1266H80.494H83.6223V24.1997C83.6223 23.1335 83.5996 22.2426 83.569 22.2197C83.5461 22.1893 79.7386 22.174 75.1225 22.1816L66.7217 22.2045L66.6989 24.1617Z" fill="white"/>
<path d="M94.8568 22.1467C96.0775 22.4514 97.0085 22.9921 97.863 23.8754C98.3056 24.3477 98.9617 25.2083 99.0152 25.4139C99.0304 25.4748 96.9398 26.8761 95.6732 27.6604C95.6274 27.691 95.4442 27.4929 95.2382 27.1883C94.6202 26.2897 93.9717 25.9012 92.9797 25.8328C91.5224 25.7336 90.5839 26.4953 90.5916 27.7671C90.5916 28.1402 90.6449 28.361 90.7976 28.6657C91.1179 29.3282 91.7131 29.7243 93.5826 30.5315C97.0237 32.009 98.4962 32.9838 99.412 34.3697C100.434 35.9157 100.663 38.3832 99.9689 40.2186C99.206 42.2138 97.3136 43.5694 94.6506 44.0188C93.8267 44.1635 91.8733 44.1406 90.9883 43.9808C89.0579 43.638 87.2267 42.6861 86.0974 41.4372C85.6549 40.9497 84.7926 39.6779 84.8461 39.5864C84.8689 39.5561 85.0673 39.4342 85.2885 39.3047C85.5022 39.1829 86.3111 38.7183 87.074 38.2766L88.4551 37.4769L88.745 37.9034C89.1495 38.5202 90.0345 39.3657 90.5687 39.6473C92.1022 40.4547 94.2082 40.3404 95.2459 39.4114C95.6885 39.0077 95.8715 38.5888 95.8715 37.972C95.8715 37.416 95.8028 37.1723 95.5129 36.7535C95.139 36.2205 94.3761 35.771 92.209 34.8343C89.7293 33.7681 88.6611 33.1056 87.6845 32.0546C87.1199 31.4455 86.5856 30.4705 86.3645 29.6557C86.1814 28.978 86.1356 27.2796 86.2805 26.5942C86.7916 24.203 88.6001 22.5352 91.2095 22.04C92.0566 21.8802 94.025 21.9411 94.8568 22.1467Z" fill="white"/>
</g>
<g clip-path="url(#clip3_1069_30)">
<path d="M123.407 0.511719H148.944C154.891 0.511951 159.71 5.32362 159.71 11.2568V36.7451C159.71 42.6783 154.891 47.49 148.944 47.4902H123.407C117.46 47.4902 112.641 42.6785 112.641 36.7451V11.2568L112.654 10.7041C112.942 5.02741 117.646 0.511719 123.407 0.511719Z" fill="#F4F2ED" stroke="#E5E5E5"/>
<path d="M136.175 27.5514C138.11 27.5514 139.678 25.986 139.678 24.055C139.678 22.1241 138.11 20.5586 136.175 20.5586C134.24 20.5586 132.672 22.1241 132.672 24.055C132.672 25.986 134.24 27.5514 136.175 27.5514Z" fill="#00D8FF"/>
<path fill-rule="evenodd" clip-rule="evenodd" d="M136.172 16.9453C140.875 16.9453 145.245 17.6189 148.539 18.7509C152.508 20.1148 154.949 22.1822 154.949 24.0543C154.949 26.0051 152.363 28.2014 148.1 29.611C144.877 30.6766 140.637 31.2329 136.172 31.2329C131.595 31.2329 127.26 30.7107 124.001 29.5992C119.878 28.1926 117.395 25.968 117.395 24.0543C117.395 22.1974 119.725 20.1459 123.638 18.7842C126.945 17.6335 131.422 16.9453 136.171 16.9453H136.172Z" stroke="#00D8FF" stroke-width="1.67006"/>
<path fill-rule="evenodd" clip-rule="evenodd" d="M129.974 20.5216C132.323 16.4551 135.09 13.0138 137.719 10.7308C140.886 7.98021 143.899 6.90299 145.524 7.83809C147.217 8.81265 147.831 12.1463 146.925 16.5358C146.241 19.8546 144.605 23.7989 142.374 27.6593C140.087 31.6171 137.469 35.1042 134.876 37.3659C131.595 40.2281 128.424 41.264 126.763 40.3079C125.151 39.381 124.535 36.3409 125.308 32.2768C125.961 28.8428 127.601 24.628 129.973 20.5216H129.974Z" stroke="#00D8FF" stroke-width="1.67006"/>
<path fill-rule="evenodd" clip-rule="evenodd" d="M129.981 27.6707C127.625 23.6087 126.021 19.4964 125.351 16.0835C124.545 11.9715 125.115 8.82749 126.738 7.88967C128.43 6.91226 131.63 8.04607 134.988 11.0218C137.526 13.2716 140.133 16.6558 142.37 20.5124C144.664 24.4665 146.382 28.4725 147.051 31.8437C147.897 36.11 147.212 39.3697 145.553 40.3284C143.943 41.2587 140.997 40.2738 137.855 37.5754C135.201 35.2957 132.361 31.7732 129.981 27.6707Z" stroke="#00D8FF" stroke-width="1.67006"/>
</g>
<g clip-path="url(#clip4_1069_30)">
<path d="M179.474 0.511719H205.011C210.958 0.511951 215.776 5.32362 215.776 11.2568V36.7451C215.776 42.6783 210.958 47.49 205.011 47.4902H179.474C173.527 47.4902 168.707 42.6785 168.707 36.7451V11.2568L168.721 10.7041C169.009 5.02741 173.712 0.511719 179.474 0.511719Z" fill="#F4F2ED" stroke="#E5E5E5"/>
<path fill-rule="evenodd" clip-rule="evenodd" d="M183.79 20.6259C184.916 16.1281 187.733 13.8789 192.239 13.8789C198.999 13.8789 199.844 18.9391 203.224 19.7825C205.477 20.3449 207.449 19.5016 209.139 17.2524C208.012 21.7502 205.195 23.9993 200.689 23.9993C193.929 23.9993 193.084 18.9391 189.704 18.0958C187.451 17.5333 185.48 18.3767 183.79 20.6259ZM175.34 30.7463C176.466 26.2485 179.283 23.9993 183.79 23.9993C190.549 23.9993 191.394 29.0596 194.774 29.9029C197.028 30.4654 198.999 29.622 200.689 27.3728C199.563 31.8706 196.746 34.1198 192.239 34.1198C185.48 34.1198 184.635 29.0596 181.255 28.2162C179.001 27.6538 177.03 28.4971 175.34 30.7463Z" fill="url(#paint0_linear_1069_30)"/>
</g>
<g clip-path="url(#clip5_1069_30)">
<path d="M235.544 0.324219H261.081C267.028 0.324451 271.847 5.13611 271.847 11.0693V36.5576C271.847 42.4908 267.028 47.3025 261.081 47.3027H235.544C229.597 47.3027 224.777 42.491 224.777 36.5576V11.0693L224.791 10.5166C225.079 4.83991 229.783 0.324219 235.544 0.324219Z" fill="#F4F2ED" stroke="#E5E5E5"/>
<path d="M265.398 26.0525C266.571 24.8815 266.571 22.9828 265.398 21.8118C264.225 20.6407 262.322 20.6407 261.149 21.8118L246.119 36.8133C244.946 37.9844 244.946 39.883 246.119 41.0541C247.292 42.2251 249.194 42.2251 250.368 41.0541L265.398 26.0525Z" fill="black"/>
<path d="M262.386 9.56031C263.559 8.38926 263.559 6.49063 262.386 5.31958C261.213 4.14854 259.311 4.14854 258.137 5.31958L229.591 33.812C228.417 34.983 228.417 36.8816 229.591 38.0527C230.764 39.2237 232.666 39.2237 233.84 38.0527L262.386 9.56031Z" fill="black"/>
</g>
<g clip-path="url(#clip6_1069_30)">
<path d="M347.685 0.511719H373.222C379.168 0.511951 383.987 5.32362 383.987 11.2568V36.7451C383.987 42.6783 379.168 47.49 373.222 47.4902H347.685C341.738 47.4902 336.918 42.6785 336.918 36.7451V11.2568L336.932 10.7041C337.22 5.02741 341.923 0.511719 347.685 0.511719Z" fill="#F4F2ED" stroke="#E5E5E5"/>
<path d="M343.18 36.9336H351.817V28.3125H360.455V19.6914H351.817V11.0703H343.18V36.9336ZM360.455 28.3125V36.9336H377.73V11.0703H360.455V19.6914H369.092V28.3125H360.455Z" fill="black"/>
</g>
<g clip-path="url(#clip7_1069_30)">
<path d="M459.825 0.511719H485.362C491.309 0.511951 496.128 5.32361 496.128 11.2568V36.7451C496.128 42.6783 491.309 47.49 485.362 47.4902H459.825C453.878 47.4902 449.059 42.6785 449.059 36.7451V11.2568L449.072 10.7041C449.36 5.02741 454.064 0.511719 459.825 0.511719Z" fill="#F4F2ED" stroke="#E5E5E5"/>
<path d="M462.519 23.6612C462.956 22.8997 462.688 21.9356 461.921 21.5078C461.153 21.0799 460.177 21.3502 459.739 22.1114L454.608 31.0482C454.171 31.8094 454.439 32.7735 455.207 33.2016C455.974 33.6294 456.951 33.3592 457.388 32.5979L462.519 23.6612Z" fill="#8DBF15"/>
<path d="M473.577 16.8095C474.015 16.0482 473.747 15.0841 472.979 14.6562C472.212 14.2283 471.235 14.4986 470.798 15.2599L465.667 24.1966C465.23 24.9579 465.498 25.9219 466.265 26.35C467.033 26.7779 468.009 26.5076 468.446 25.7463L473.577 16.8095Z" fill="#8DBF15"/>
<path d="M490.597 16.8095C491.034 16.0482 490.766 15.0842 489.999 14.6562C489.231 14.2283 488.255 14.4986 487.817 15.2599L482.686 24.1967C482.249 24.958 482.517 25.922 483.285 26.3499C484.052 26.7778 485.029 26.5075 485.466 25.7462L490.597 16.8095Z" fill="#8DBF15"/>
<path d="M479.53 23.6612C479.968 22.8997 479.7 21.9356 478.932 21.5078C478.165 21.0799 477.188 21.3502 476.751 22.1114L471.62 31.0482C471.183 31.8094 471.451 32.7735 472.218 33.2016C472.986 33.6294 473.962 33.3592 474.399 32.5979L479.53 23.6612Z" fill="#8DBF15"/>
</g>
<g clip-path="url(#clip8_1069_30)">
<path d="M515.892 0.511719H541.429C547.375 0.511951 552.194 5.32362 552.194 11.2568V36.7451C552.194 42.6783 547.375 47.49 541.429 47.4902H515.892C509.945 47.4902 505.125 42.6785 505.125 36.7451V11.2568L505.139 10.7041C505.427 5.02741 510.13 0.511719 515.892 0.511719Z" fill="#F4F2ED" stroke="#E5E5E5"/>
<mask id="mask0_1069_30" style="mask-type:luminance" maskUnits="userSpaceOnUse" x="511" y="7" width="35" height="34">
<path d="M545.557 7.13281H511.758V40.8676H545.557V7.13281Z" fill="white"/>
</mask>
<g mask="url(#mask0_1069_30)">
<path d="M536.82 31.6928C537.035 29.9047 536.97 29.6438 538.304 29.9324L538.643 29.9626C539.669 30.0087 541.01 29.7978 541.812 29.4329C543.508 28.6475 544.514 27.335 542.842 27.6802C539.026 28.4657 538.749 27.1755 538.749 27.1755C542.78 21.2062 544.466 13.629 543.009 11.7749C539.043 6.71464 532.176 9.10771 532.062 9.17096L532.025 9.17754C531.272 9.01942 530.44 8.92717 529.476 8.91399C527.75 8.88764 526.44 9.36598 525.444 10.1184C525.444 10.1184 513.196 5.08193 513.765 16.4529C513.887 18.8723 517.238 34.7698 521.238 29.96C522.702 28.2022 524.115 26.7169 524.115 26.7169C524.815 27.1821 525.656 27.4194 526.536 27.3337L526.605 27.2758C526.585 27.5035 526.594 27.7329 526.633 27.9584C525.603 29.1074 525.907 29.3091 523.847 29.7321C521.764 30.1603 522.989 30.9233 523.786 31.1236C524.755 31.3661 526.997 31.7087 528.513 29.5924L528.452 29.8335C528.856 30.1564 528.828 32.1527 528.888 33.5786C528.947 35.0044 529.041 36.3368 529.333 37.1207C529.624 37.9049 529.966 39.9277 532.673 39.3609C534.935 38.8774 536.664 38.1802 536.822 31.7048" fill="black"/>
<path d="M536.82 31.6928C537.035 29.9047 536.97 29.6438 538.304 29.9324L538.643 29.9626C539.669 30.0087 541.01 29.7978 541.812 29.4329C543.508 28.6475 544.514 27.335 542.842 27.6802C539.026 28.4657 538.749 27.1755 538.749 27.1755C542.78 21.2062 544.466 13.629 543.009 11.7749C539.043 6.71464 532.176 9.10771 532.062 9.17096L532.025 9.17754C531.272 9.01942 530.44 8.92717 529.476 8.91399C527.75 8.88764 526.44 9.36598 525.444 10.1184C525.444 10.1184 513.196 5.08193 513.765 16.4529C513.887 18.8723 517.238 34.7698 521.238 29.96C522.702 28.2022 524.115 26.7169 524.115 26.7169C524.815 27.1821 525.656 27.4194 526.536 27.3337L526.605 27.2758C526.585 27.5035 526.594 27.7329 526.633 27.9584C525.603 29.1074 525.907 29.3091 523.847 29.7321C521.764 30.1603 522.989 30.9233 523.786 31.1236C524.755 31.3661 526.997 31.7087 528.513 29.5924L528.452 29.8335C528.856 30.1564 528.828 32.1527 528.888 33.5786C528.947 35.0044 529.041 36.3368 529.333 37.1207C529.624 37.9049 529.966 39.9277 532.673 39.3609C534.935 38.8774 536.664 38.1802 536.822 31.7048" fill="#336791"/>
<path d="M536.82 31.6928C537.035 29.9047 536.97 29.6438 538.304 29.9324L538.643 29.9626C539.669 30.0087 541.01 29.7978 541.812 29.4329C543.508 28.6475 544.514 27.335 542.842 27.6802C539.026 28.4657 538.749 27.1755 538.749 27.1755C542.78 21.2062 544.466 13.629 543.009 11.7749C539.043 6.71464 532.176 9.10771 532.062 9.17096L532.025 9.17754C531.272 9.01942 530.44 8.92717 529.476 8.91399C527.75 8.88764 526.44 9.36598 525.444 10.1184C525.444 10.1184 513.196 5.08193 513.765 16.4529C513.887 18.8723 517.238 34.7698 521.238 29.96C522.702 28.2022 524.115 26.7169 524.115 26.7169C524.815 27.1821 525.656 27.4194 526.536 27.3337L526.605 27.2758C526.585 27.5035 526.594 27.7329 526.633 27.9584C525.603 29.1074 525.907 29.3091 523.847 29.7321C521.764 30.1603 522.989 30.9233 523.786 31.1236C524.755 31.3661 526.997 31.7087 528.513 29.5924L528.452 29.8335C528.856 30.1564 528.828 32.1527 528.888 33.5786C528.947 35.0044 529.041 36.3368 529.333 37.1207C529.624 37.9049 529.966 39.9277 532.673 39.3609C534.935 38.8774 536.664 38.1802 536.822 31.7048" stroke="black" stroke-width="2.83185"/>
<path d="M542.827 27.6916C539.012 28.4768 538.735 27.1869 538.735 27.1869C542.765 21.2173 544.451 13.6402 542.996 11.7861C539.03 6.72586 532.164 9.12024 532.049 9.18216L532.012 9.18876C531.173 9.0208 530.32 8.93211 529.465 8.92388C527.738 8.89753 526.428 9.37587 525.433 10.1283C525.433 10.1283 513.183 5.09182 513.754 16.4628C513.875 18.8823 517.226 34.7798 521.226 29.97C522.7 28.2015 524.113 26.7163 524.113 26.7163C524.812 27.1814 525.653 27.4187 526.534 27.333L526.602 27.2751C526.582 27.5028 526.592 27.7322 526.63 27.9577C525.601 29.1067 525.904 29.3084 523.844 29.7314C521.761 30.1596 522.986 30.9226 523.784 31.123C524.753 31.3655 526.995 31.7081 528.51 29.5918L528.45 29.8328C528.854 30.1557 529.136 31.932 529.089 33.5423C529.041 35.1528 529.009 36.257 529.326 37.1214C529.643 37.9859 529.96 39.9283 532.667 39.3616C534.928 38.878 536.099 37.6222 536.264 35.5323C536.381 34.0457 536.642 34.2644 536.66 32.9362L536.872 32.3063C537.113 30.2901 536.911 29.6405 538.304 29.9436L538.643 29.9739C539.669 30.02 541.012 29.8092 541.799 29.4441C543.495 28.6588 544.501 27.3462 542.829 27.6916H542.827Z" fill="#336791"/>
<path d="M532.049 9.11996C531.626 9.25175 538.867 6.47786 542.983 11.7265C544.436 13.5806 542.752 21.1578 538.721 27.1272M528.674 28.8338C528.569 32.5842 528.701 36.3608 529.068 37.2675C529.435 38.174 530.223 39.9689 532.931 39.3917C535.192 38.9081 536.016 37.971 536.373 35.9035L537.208 29.2924L528.674 28.8338ZM525.429 10.0332C525.429 10.0332 513.172 5.03095 513.742 16.4019C513.863 18.8213 517.214 34.7188 521.215 29.909C522.675 28.1524 523.995 26.778 523.995 26.778L525.429 10.0332Z" fill="#336791"/>
<path d="M532.049 9.11996C531.626 9.25175 538.867 6.47786 542.983 11.7265C544.436 13.5806 542.752 21.1578 538.721 27.1272M528.674 28.8338C528.569 32.5842 528.701 36.3608 529.068 37.2675C529.435 38.174 530.223 39.9689 532.931 39.3917C535.192 38.9081 536.016 37.971 536.373 35.9035L537.208 29.2924L528.674 28.8338ZM525.429 10.0332C525.429 10.0332 513.172 5.03095 513.742 16.4019C513.863 18.8213 517.214 34.7188 521.215 29.909C522.675 28.1524 523.995 26.778 523.995 26.778L525.429 10.0332Z" stroke="white" stroke-width="0.943449" stroke-linecap="round" stroke-linejoin="round"/>
<path d="M538.723 27.1232C538.723 27.1232 538.987 28.4147 542.816 27.6266C544.489 27.2814 543.481 28.5938 541.786 29.3793C540.395 30.0249 537.273 30.1897 537.222 29.3002C537.09 27.0006 538.864 27.6991 538.736 27.1232C538.62 26.604 537.825 26.0954 537.303 24.8251C536.844 23.718 531.018 15.2185 538.918 16.4796C539.209 16.4203 536.859 8.96837 529.465 8.86032C522.072 8.75226 522.306 17.9331 522.306 17.9331" fill="#336791"/>
<path d="M538.723 27.1232C538.723 27.1232 538.987 28.4147 542.816 27.6266C544.489 27.2814 543.481 28.5938 541.786 29.3793C540.395 30.0249 537.273 30.1897 537.222 29.3002C537.09 27.0006 538.864 27.6991 538.736 27.1232C538.62 26.604 537.825 26.0954 537.303 24.8251C536.844 23.718 531.018 15.2185 538.918 16.4796C539.209 16.4203 536.859 8.96837 529.465 8.86032C522.072 8.75226 522.306 17.9331 522.306 17.9331" stroke="white" stroke-width="0.943449" stroke-linecap="round" stroke-linejoin="bevel"/>
<path d="M526.609 27.9131C525.579 29.0622 525.883 29.2638 523.824 29.6868C521.74 30.115 522.965 30.878 523.763 31.0784C524.732 31.3209 526.974 31.6635 528.489 29.5457C528.951 28.9 528.487 27.8722 527.853 27.6114C527.547 27.4849 527.137 27.3267 526.612 27.9144L526.609 27.9131Z" fill="#336791" stroke="white" stroke-width="0.943449" stroke-linejoin="round"/>
<path d="M526.536 27.8924C526.431 27.2164 526.758 26.4139 527.108 25.4731C527.634 24.0632 528.846 22.6531 527.877 18.1766C527.154 14.8427 522.305 17.4822 522.305 17.9342C522.305 18.3862 522.524 20.2272 522.226 22.3684C521.834 25.1648 524.008 27.5289 526.511 27.2877" fill="#336791"/>
<path d="M526.536 27.8924C526.431 27.2164 526.758 26.4139 527.108 25.4731C527.634 24.0632 528.846 22.6531 527.877 18.1766C527.154 14.8427 522.305 17.4822 522.305 17.9342C522.305 18.3862 522.524 20.2272 522.226 22.3684C521.834 25.1648 524.008 27.5289 526.511 27.2877" stroke="white" stroke-width="0.943449" stroke-linecap="round" stroke-linejoin="round"/>
<path d="M525.384 17.8684C525.361 18.0226 525.668 18.4351 526.065 18.4904C526.463 18.5458 526.802 18.2242 526.824 18.0687C526.847 17.9132 526.54 17.7446 526.143 17.6892C525.746 17.6339 525.404 17.7156 525.384 17.8684Z" fill="white" stroke="white" stroke-width="0.314858"/>
<path d="M537.484 17.552C537.505 17.7062 537.2 18.1187 536.803 18.174C536.406 18.2294 536.064 17.9078 536.044 17.7523C536.024 17.5968 536.328 17.4282 536.725 17.3728C537.122 17.3175 537.464 17.3992 537.484 17.552Z" fill="white" stroke="white" stroke-width="0.156867"/>
<path d="M538.9 16.4844C538.966 17.6967 538.638 18.5203 538.596 19.8105C538.535 21.6843 539.491 23.8296 538.051 25.9776" fill="#336791"/>
<path d="M538.9 16.4844C538.966 17.6967 538.638 18.5203 538.596 19.8105C538.535 21.6843 539.491 23.8296 538.051 25.9776" stroke="white" stroke-width="0.943449" stroke-linecap="round" stroke-linejoin="round"/>
</g>
</g>
<g clip-path="url(#clip9_1069_30)">
<path d="M628.032 0.511719H653.569C659.516 0.511951 664.335 5.32362 664.335 11.2568V36.7451C664.335 42.6783 659.516 47.49 653.569 47.4902H628.032C622.085 47.4902 617.266 42.6785 617.266 36.7451V11.2568L617.279 10.7041C617.567 5.02741 622.271 0.511719 628.032 0.511719Z" fill="#F4F2ED" stroke="#E5E5E5"/>
<path d="M639.379 4.50781L657.327 15.3071V35.8024L643.809 43.6304V23.1352L625.852 12.3445L639.379 4.50781Z" fill="#242938"/>
<path d="M638.005 42.4948V26.5L624.461 34.3452L638.005 42.4948Z" fill="#242938"/>
</g>
<g clip-path="url(#clip10_1069_30)">
<path d="M740.173 0.511719H765.71C771.657 0.511951 776.476 5.32361 776.476 11.2568V36.7451C776.476 42.6783 771.657 47.49 765.71 47.4902H740.173C734.226 47.4902 729.406 42.6785 729.406 36.7451V11.2568L729.42 10.7041C729.708 5.02741 734.412 0.511719 740.173 0.511719Z" fill="#F4F2ED" stroke="#E5E5E5"/>
<path fill-rule="evenodd" clip-rule="evenodd" d="M772.097 24.2005C772.097 21.4683 770.771 19.3125 768.237 19.3125C765.692 19.3125 764.152 21.4683 764.152 24.1791C764.152 27.3914 765.97 29.0137 768.579 29.0137C769.852 29.0137 770.814 28.7254 771.541 28.3199V26.1856C770.814 26.5484 769.98 26.7726 768.921 26.7726C767.884 26.7726 766.965 26.4095 766.847 25.1503H772.076C772.076 25.0116 772.097 24.4567 772.097 24.2005ZM766.815 23.1866C766.815 21.9805 767.553 21.479 768.226 21.479C768.879 21.479 769.574 21.9805 769.574 23.1866H766.815Z" fill="#635BFF"/>
<path fill-rule="evenodd" clip-rule="evenodd" d="M760.021 19.3125C758.973 19.3125 758.299 19.8035 757.925 20.145L757.786 19.4832H755.434V31.9272L758.107 31.3616L758.117 28.3412C758.502 28.6188 759.069 29.0137 760.01 29.0137C761.924 29.0137 763.667 27.4769 763.667 24.0937C763.656 20.9989 761.892 19.3125 760.021 19.3125ZM759.379 26.6657C758.748 26.6657 758.374 26.4416 758.117 26.1642L758.107 22.2047C758.385 21.8953 758.77 21.6818 759.379 21.6818C760.352 21.6818 761.026 22.7703 761.026 24.1684C761.026 25.5986 760.363 26.6657 759.379 26.6657Z" fill="#635BFF"/>
<path fill-rule="evenodd" clip-rule="evenodd" d="M751.758 18.6842L754.442 18.1079V15.9414L751.758 16.507V18.6842Z" fill="#635BFF"/>
<path d="M754.442 19.4961H751.758V28.8343H754.442V19.4961Z" fill="#635BFF"/>
<path fill-rule="evenodd" clip-rule="evenodd" d="M748.883 20.2868L748.712 19.497H746.402V28.8353H749.076V22.5067C749.706 21.6849 750.776 21.8343 751.107 21.9518V19.497C750.765 19.369 749.514 19.1342 748.883 20.2868Z" fill="#635BFF"/>
<path fill-rule="evenodd" clip-rule="evenodd" d="M743.534 17.1797L740.925 17.7346L740.914 26.2831C740.914 27.8626 742.101 29.0259 743.683 29.0259C744.56 29.0259 745.202 28.8658 745.555 28.6737V26.5072C745.212 26.6459 743.523 27.1369 743.523 25.5574V21.7688H745.555V19.4956H743.523L743.534 17.1797Z" fill="#635BFF"/>
<path fill-rule="evenodd" clip-rule="evenodd" d="M736.303 22.2047C736.303 21.7884 736.645 21.6284 737.212 21.6284C738.024 21.6284 739.051 21.8739 739.863 22.3115V19.8035C738.976 19.4514 738.099 19.3125 737.212 19.3125C735.041 19.3125 733.598 20.4437 733.598 22.3329C733.598 25.2783 737.661 24.8088 737.661 26.0788C737.661 26.5698 737.233 26.7298 736.634 26.7298C735.747 26.7298 734.613 26.367 733.715 25.876V28.416C734.71 28.8429 735.715 29.0244 736.634 29.0244C738.858 29.0244 740.387 27.9252 740.387 26.0147C740.377 22.8344 736.303 23.4 736.303 22.2047Z" fill="#635BFF"/>
</g>
<g clip-path="url(#clip11_1069_30)">
<path d="M291.614 0.5H317.151C323.098 0.500233 327.917 5.3119 327.917 11.2451V36.7334C327.917 42.6666 323.098 47.4783 317.151 47.4785H291.614C285.667 47.4785 280.848 42.6668 280.848 36.7334V11.2451L280.861 10.6924C281.149 5.0157 285.853 0.5 291.614 0.5Z" fill="#FFF312" stroke="#E5E5E5"/>
<path d="M300.226 18L293.495 29.989H287.363L292.618 20.628C293.434 19.176 295.467 18 297.16 18H300.226ZM315.262 20.997C315.262 19.342 316.635 18 318.328 18C320.021 18 321.394 19.342 321.394 20.997C321.394 22.653 320.021 23.995 318.328 23.995C316.635 23.995 315.262 22.653 315.262 20.997ZM301.375 18H307.507L300.776 29.989H294.644L301.375 18ZM308.618 18H314.749L309.493 27.362C308.679 28.813 306.646 29.989 304.953 29.989H301.887L308.618 18Z" fill="black"/>
</g>
<g clip-path="url(#clip12_1069_30)">
<path d="M403.755 0.5H429.292C435.239 0.500233 440.058 5.3119 440.058 11.2451V36.7334C440.058 42.6666 435.239 47.4783 429.292 47.4785H403.755C397.808 47.4785 392.988 42.6668 392.988 36.7334V11.2451L393.002 10.6924C393.29 5.0157 397.994 0.5 403.755 0.5Z" fill="#F4F2ED" stroke="#E5E5E5"/>
<path d="M419.847 9C425.649 9 429.1 12.4556 429.1 17.0427C429.1 21.6299 425.649 25.0854 419.847 25.0854H416.915L431.482 39H421.19L410.105 28.4493C409.311 27.7157 408.944 26.8594 408.944 26.1255C408.944 25.0857 409.677 24.1683 411.082 23.7707L416.793 22.2415C418.961 21.6604 420.458 19.9784 420.458 17.7766C420.457 15.0856 418.258 13.526 415.541 13.526H401.523V9H419.847Z" fill="black"/>
</g>
<g clip-path="url(#clip13_1069_30)">
<path d="M684.103 0.5H709.64C715.586 0.500232 720.405 5.31189 720.405 11.2451V36.7334C720.405 42.6666 715.586 47.4783 709.64 47.4785H684.103C678.156 47.4785 673.336 42.6667 673.336 36.7334V11.2451L673.35 10.6924C673.638 5.01569 678.341 0.5 684.103 0.5Z" fill="#F4F2ED" stroke="#E5E5E5"/>
</g>
<path d="M701.326 18.2344C700.497 18.2344 699.826 18.9029 699.826 19.7257V24.2035C699.826 25.8491 698.477 27.1881 696.821 27.1881C695.165 27.1881 693.817 25.8491 693.817 24.2035V19.7257C693.817 18.9011 693.146 18.2344 692.317 18.2344C691.488 18.2344 690.816 18.9029 690.816 19.7257V24.2035C690.816 27.4948 693.511 30.1726 696.821 30.1726C700.132 30.1726 702.826 27.4948 702.826 24.2035V19.7257C702.828 18.9029 702.155 18.2344 701.326 18.2344ZM701.326 20.7524C700.755 20.7524 700.293 20.2933 700.293 19.7257C700.293 19.1582 700.755 18.699 701.326 18.699C701.896 18.699 702.358 19.1582 702.358 19.7257C702.358 20.2933 701.896 20.7524 701.326 20.7524Z" fill="black"/>
<path d="M707.652 24.203L704.21 27.6247C703.623 28.2069 703.623 29.1528 704.21 29.735C704.797 30.3173 705.747 30.3173 706.332 29.735L709.774 26.3134L713.217 29.735C713.804 30.3173 714.754 30.3173 715.339 29.735C715.926 29.1528 715.926 28.2069 715.339 27.6247L711.898 24.203L715.341 20.7814C715.928 20.1991 715.928 19.2533 715.341 18.671C714.754 18.0888 713.804 18.0888 713.219 18.671L709.776 22.0927L706.332 18.671C705.745 18.0888 704.795 18.0888 704.21 18.671C703.623 19.2533 703.623 20.1991 704.21 20.7814L707.652 24.203ZM714.281 29.7075C713.71 29.7075 713.248 29.2483 713.248 28.6808C713.248 28.1133 713.71 27.6541 714.281 27.6541C714.851 27.6541 715.313 28.1133 715.313 28.6808C715.313 29.2465 714.851 29.7075 714.281 29.7075Z" fill="black"/>
<path d="M688.667 18.3481C688.106 18.1167 687.461 18.2453 687.031 18.6714L683.587 22.0931L680.144 18.6714C679.715 18.2453 679.069 18.1167 678.508 18.3481C677.947 18.5795 677.582 19.1232 677.582 19.7256V28.6793C677.582 29.504 678.253 30.1725 679.082 30.1725C679.911 30.1725 680.583 29.504 680.583 28.6811V23.3273L682.525 25.2576C683.112 25.8398 684.062 25.8398 684.647 25.2576L686.589 23.3273V28.6793C686.589 29.504 687.261 30.1707 688.09 30.1707C688.919 30.1707 689.59 29.5021 689.59 28.6793V19.7256C689.594 19.1232 689.229 18.5795 688.667 18.3481ZM688.092 29.7078C687.521 29.7078 687.059 29.2487 687.059 28.6811C687.059 28.1136 687.521 27.6544 688.092 27.6544C688.662 27.6544 689.124 28.1136 689.124 28.6811C689.126 29.2468 688.662 29.7078 688.092 29.7078Z" fill="black"/>
<g clip-path="url(#clip14_1069_30)">
<path d="M571.962 0.5H597.499C603.446 0.500232 608.265 5.31189 608.265 11.2451V36.7334C608.265 42.6666 603.446 47.4783 597.499 47.4785H571.962C566.015 47.4785 561.195 42.6667 561.195 36.7334V11.2451L561.209 10.6924C561.497 5.01569 566.201 0.5 571.962 0.5Z" fill="#F4F2ED" stroke="#E5E5E5"/>
<path d="M599.551 31.9116C597.782 32.8345 588.617 36.6029 586.665 37.6198C584.714 38.6369 583.63 38.6273 582.088 37.8906C580.546 37.154 570.793 33.2144 569.035 32.374C568.156 31.9537 567.695 31.6004 567.695 31.2664V27.9148C567.695 27.9148 580.394 25.1503 582.445 24.4145C584.496 23.6788 585.205 23.6524 586.951 24.2915C588.697 24.9305 599.128 26.8125 600.852 27.4445V30.7496C600.852 31.081 600.454 31.4527 599.553 31.9134L599.551 31.9116Z" fill="#A41E11"/>
<path d="M599.552 28.5604C597.783 29.4833 588.617 33.2517 586.666 34.2686C584.715 35.2857 583.631 35.2759 582.089 34.5393C580.547 33.8028 570.794 29.863 569.036 29.0228C567.278 28.1824 567.243 27.605 568.968 26.9289L582.445 21.7111C584.495 20.9763 585.205 20.9489 586.951 21.5881C588.697 22.2272 597.807 25.8531 599.53 26.4947C601.252 27.1365 601.32 27.6462 599.551 28.5692L599.552 28.5604Z" fill="#D82C20"/>
<path d="M599.551 26.4468C597.782 27.3697 588.617 31.1381 586.665 32.155C584.714 33.1721 583.63 33.1623 582.088 32.4257C580.546 31.6892 570.793 27.7494 569.035 26.9092C568.156 26.4889 567.695 26.1356 567.695 25.8016V22.4498C567.695 22.4498 580.394 19.6853 582.445 18.9497C584.496 18.214 585.205 18.1876 586.951 18.8266C588.697 19.4657 599.128 21.3477 600.852 21.9797V25.2848C600.852 25.616 600.454 25.9879 599.553 26.4485L599.551 26.4468Z" fill="#A41E11"/>
<path d="M599.552 23.0949C597.783 24.0179 588.617 27.7862 586.666 28.8033C584.715 29.8202 583.631 29.8106 582.089 29.074C580.547 28.3373 570.794 24.3977 569.036 23.5573C567.278 22.7169 567.243 22.1395 568.968 21.4634L582.445 16.2466C584.495 15.5108 585.205 15.4845 586.951 16.1235C588.697 16.7625 597.807 20.3893 599.531 21.0196C601.256 21.6499 601.322 22.1712 599.552 23.0941V23.0949Z" fill="#D82C20"/>
<path d="M599.551 20.7796C597.782 21.7026 588.617 25.4709 586.665 26.4889C584.714 27.5068 583.63 27.4962 582.088 26.7596C580.546 26.023 570.793 22.0832 569.035 21.2429C568.156 20.8227 567.695 20.4695 567.695 20.1354V16.7819C567.695 16.7819 580.394 14.0175 582.445 13.2817C584.496 12.546 585.205 12.5196 586.951 13.1587C588.697 13.7977 599.128 15.6797 600.852 16.3117V19.6168C600.852 19.9482 600.454 20.3199 599.553 20.7806L599.551 20.7796Z" fill="#A41E11"/>
<path d="M599.552 17.427C597.783 18.3499 588.617 22.1182 586.666 23.1353C584.715 24.1523 583.631 24.1426 582.089 23.406C580.547 22.6695 570.794 18.7297 569.036 17.8893C567.278 17.049 567.243 16.4715 568.968 15.7955L582.445 10.5786C584.495 9.84287 585.205 9.81649 586.951 10.4555C588.697 11.0946 597.807 14.7214 599.531 15.3516C601.256 15.9819 601.322 16.5031 599.552 17.4261V17.427Z" fill="#D82C20"/>
<path d="M585.101 16.0444L584.062 14.3171L580.744 14.0182L583.22 13.1252L582.477 11.7539L584.794 12.6593L586.979 11.9438L586.388 13.3607L588.616 14.1958L585.743 14.4947L585.101 16.0444ZM579.566 19.4831L587.249 18.3034L584.928 21.7069L579.566 19.4831Z" fill="white"/>
<path d="M577.497 18.2385C579.765 18.2385 581.604 17.5257 581.604 16.6466C581.604 15.7674 579.765 15.0547 577.497 15.0547C575.229 15.0547 573.391 15.7674 573.391 16.6466C573.391 17.5257 575.229 18.2385 577.497 18.2385Z" fill="white"/>
<path d="M596.556 16.4187L592.011 18.2136L592.008 14.6211L596.556 16.4187Z" fill="#7A0C00"/>
<path d="M592.014 18.2127L591.521 18.4061L586.98 16.6112L592.011 14.6211L592.014 18.2127Z" fill="#AD2115"/>
</g>
</g>
<defs>
<linearGradient id="paint0_linear_1069_30" x1="184.447" y1="13.8789" x2="198.868" y2="34.8013" gradientUnits="userSpaceOnUse">
<stop stop-color="#32B1C1"/>
<stop offset="1" stop-color="#14C6B7"/>
</linearGradient>
<clipPath id="clip0_1069_30">
<rect width="777" height="48" fill="white"/>
</clipPath>
<clipPath id="clip1_1069_30">
<rect width="48.0696" height="47.9783" fill="white" transform="translate(0 0.0117188)"/>
</clipPath>
<clipPath id="clip2_1069_30">
<rect width="48.0696" height="47.9783" fill="white" transform="translate(56.0703 0.0117188)"/>
</clipPath>
<clipPath id="clip3_1069_30">
<rect width="48.0696" height="47.9783" fill="white" transform="translate(112.141 0.0117188)"/>
</clipPath>
<clipPath id="clip4_1069_30">
<rect width="48.0696" height="47.9783" fill="white" transform="translate(168.207 0.0117188)"/>
</clipPath>
<clipPath id="clip5_1069_30">
<rect width="48.0696" height="47.9783" fill="white" transform="translate(224.277 0.0117188)"/>
</clipPath>
<clipPath id="clip6_1069_30">
<rect width="48.0696" height="47.9783" fill="white" transform="translate(336.418 0.0117188)"/>
</clipPath>
<clipPath id="clip7_1069_30">
<rect width="48.0696" height="47.9783" fill="white" transform="translate(448.559 0.0117188)"/>
</clipPath>
<clipPath id="clip8_1069_30">
<rect width="48.0696" height="47.9783" fill="white" transform="translate(504.625 0.0117188)"/>
</clipPath>
<clipPath id="clip9_1069_30">
<rect width="48.0696" height="47.9783" fill="white" transform="translate(616.766 0.0117188)"/>
</clipPath>
<clipPath id="clip10_1069_30">
<rect width="48.0696" height="47.9783" fill="white" transform="translate(728.906 0.0117188)"/>
</clipPath>
<clipPath id="clip11_1069_30">
<rect width="48.0696" height="47.9783" fill="white" transform="translate(280.348)"/>
</clipPath>
<clipPath id="clip12_1069_30">
<rect width="48.0696" height="47.9783" fill="white" transform="translate(392.488)"/>
</clipPath>
<clipPath id="clip13_1069_30">
<rect width="48.0696" height="47.9783" fill="white" transform="translate(672.836)"/>
</clipPath>
<clipPath id="clip14_1069_30">
<rect width="48.0696" height="47.9783" fill="white" transform="translate(560.695)"/>
</clipPath>
</defs>
</svg>
