<svg width="666" height="48" viewBox="0 0 666 48" fill="none" xmlns="http://www.w3.org/2000/svg">
<g clip-path="url(#clip0_1069_30)">
<g clip-path="url(#clip1_1069_30)">
<path d="M11.2822 0.511719H36.8545C42.8106 0.511846 47.6357 5.3242 47.6357 11.2568V36.7451C47.6357 42.6778 42.8106 47.4901 36.8545 47.4902H11.2822C5.32599 47.4902 0.5 42.6778 0.5 36.7451V11.2568L0.513672 10.7041C0.80222 5.02799 5.51203 0.511719 11.2822 0.511719Z" fill="#F4F2ED" stroke="#E5E5E5"/>
<path d="M22.8335 5.2679C22.7526 5.27523 22.4952 5.30088 22.2636 5.3192C16.9223 5.79918 11.9191 8.67179 8.75033 13.087C6.9858 15.5419 5.85725 18.3265 5.43082 21.276C5.28011 22.3057 5.26172 22.6099 5.26172 24.0057C5.26172 25.4018 5.28011 25.706 5.43082 26.7355C6.45277 33.774 11.478 39.6879 18.2935 41.879C19.514 42.2711 20.8005 42.5385 22.2636 42.6997C22.8335 42.7619 25.2963 42.7619 25.8663 42.6997C28.3917 42.4212 30.5311 41.7984 32.6412 40.7247C32.9646 40.56 33.0273 40.5159 32.9831 40.4794C32.9537 40.4573 31.5751 38.6142 29.921 36.3866L26.914 32.3379L23.1458 26.7795C21.0726 23.7237 19.3669 21.2247 19.3521 21.2247C19.3374 21.2211 19.3227 23.6907 19.3154 26.7062C19.3043 31.9861 19.3007 32.1986 19.2346 32.3231C19.139 32.5026 19.0655 32.5759 18.911 32.6567C18.7934 32.7151 18.6905 32.7262 18.1354 32.7262H17.4994L17.3303 32.6199C17.22 32.5504 17.1392 32.4587 17.084 32.3525L17.0068 32.1876L17.0142 24.8412L17.0252 17.4911L17.1392 17.3482C17.198 17.2713 17.323 17.1724 17.4112 17.1247C17.5619 17.0514 17.6207 17.0441 18.2567 17.0441C19.0067 17.0441 19.1315 17.0734 19.3265 17.286C19.3816 17.3446 21.4217 20.4077 23.8628 24.0974C26.3036 27.787 29.6416 32.8251 31.281 35.2983L34.2587 39.7942L34.4095 39.6952C35.7438 38.8305 37.1555 37.5994 38.273 36.3169C40.6514 33.5945 42.1844 30.275 42.6991 26.7355C42.8497 25.706 42.8681 25.4018 42.8681 24.0057C42.8681 22.6099 42.8497 22.3057 42.6991 21.276C41.6771 14.2375 36.6518 8.32371 29.8364 6.13262C28.6343 5.74423 27.3551 5.47676 25.9214 5.31554C25.5684 5.2789 23.1385 5.23859 22.8335 5.2679ZM30.5311 16.6044C30.7075 16.6924 30.851 16.8609 30.9025 17.0368C30.9318 17.132 30.9392 19.1693 30.9318 23.7602L30.9207 30.3483L29.7555 28.5674L28.5865 26.7868V21.998C28.5865 18.9019 28.6012 17.1614 28.6232 17.0771C28.682 16.8719 28.8106 16.7107 28.9872 16.6154C29.1378 16.5385 29.1931 16.5312 29.7702 16.5312C30.3143 16.5312 30.4099 16.5385 30.5311 16.6044Z" fill="black"/>
</g>
<g clip-path="url(#clip2_1069_30)">
<path d="M67.4189 0.511719H92.9912C98.9473 0.511846 103.772 5.3242 103.772 11.2568V36.7451C103.772 42.6778 98.9473 47.4901 92.9912 47.4902H67.4189C61.4627 47.4902 56.6367 42.6778 56.6367 36.7451V11.2568L56.6504 10.7041C56.9389 5.02799 61.6487 0.511719 67.4189 0.511719Z" fill="#007ACC" stroke="#E5E5E5"/>
<path d="M66.7809 24.1617L66.7656 26.1266H69.8983H73.031V34.9988V43.8709H75.2468H77.4626V34.9988V26.1266H80.5952H83.7278V24.1997C83.7278 23.1335 83.7051 22.2426 83.6744 22.2197C83.6515 22.1893 79.8388 22.174 75.2162 22.1816L66.8038 22.2045L66.7809 24.1617Z" fill="white"/>
<path d="M94.9761 22.1467C96.1985 22.4514 97.1308 22.9921 97.9865 23.8754C98.4297 24.3477 99.0867 25.2083 99.1403 25.4139C99.1555 25.4748 97.062 26.8761 95.7937 27.6604C95.7478 27.691 95.5643 27.4929 95.358 27.1883C94.7392 26.2897 94.0898 25.9012 93.0964 25.8328C91.6371 25.7336 90.6973 26.4953 90.705 27.7671C90.705 28.1402 90.7584 28.361 90.9113 28.6657C91.2321 29.3282 91.8281 29.7243 93.7002 30.5315C97.146 32.009 98.6206 32.9838 99.5376 34.3697C100.561 35.9157 100.791 38.3832 100.095 40.2186C99.3313 42.2138 97.4364 43.5694 94.7697 44.0188C93.9446 44.1635 91.9885 44.1406 91.1023 43.9808C89.1692 43.638 87.3355 42.6861 86.2046 41.4372C85.7615 40.9497 84.898 39.6779 84.9516 39.5864C84.9744 39.5561 85.1731 39.4342 85.3946 39.3047C85.6086 39.1829 86.4186 38.7183 87.1826 38.2766L88.5656 37.4769L88.8559 37.9034C89.2609 38.5202 90.1471 39.3657 90.6821 39.6473C92.2177 40.4547 94.3267 40.3404 95.3658 39.4114C95.8089 39.0077 95.9923 38.5888 95.9923 37.972C95.9923 37.416 95.9235 37.1723 95.6331 36.7535C95.2588 36.2205 94.4948 35.771 92.3247 34.8343C89.8416 33.7681 88.7718 33.1056 87.7939 32.0546C87.2285 31.4455 86.6935 30.4705 86.472 29.6557C86.2887 28.978 86.2428 27.2796 86.388 26.5942C86.8998 24.203 88.7107 22.5352 91.3238 22.04C92.172 21.8802 94.1432 21.9411 94.9761 22.1467Z" fill="white"/>
</g>
<g clip-path="url(#clip3_1069_30)">
<path d="M123.556 0.511719H149.128C155.084 0.511846 159.909 5.3242 159.909 11.2568V36.7451C159.909 42.6778 155.084 47.4901 149.128 47.4902H123.556C117.599 47.4902 112.773 42.6778 112.773 36.7451V11.2568L112.787 10.7041C113.076 5.02799 117.785 0.511719 123.556 0.511719Z" fill="#F4F2ED" stroke="#E5E5E5"/>
<path d="M136.34 27.5514C138.277 27.5514 139.848 25.986 139.848 24.055C139.848 22.1241 138.277 20.5586 136.34 20.5586C134.403 20.5586 132.832 22.1241 132.832 24.055C132.832 25.986 134.403 27.5514 136.34 27.5514Z" fill="#00D8FF"/>
<path fill-rule="evenodd" clip-rule="evenodd" d="M136.339 16.9453C141.049 16.9453 145.424 17.6189 148.723 18.7509C152.698 20.1148 155.142 22.1822 155.142 24.0543C155.142 26.0051 152.552 28.2014 148.283 29.611C145.056 30.6766 140.81 31.2329 136.339 31.2329C131.755 31.2329 127.414 30.7107 124.151 29.5992C120.022 28.1926 117.535 25.968 117.535 24.0543C117.535 22.1974 119.869 20.1459 123.787 18.7842C127.099 17.6335 131.582 16.9453 136.338 16.9453H136.339Z" stroke="#00D8FF" stroke-width="1.67006"/>
<path fill-rule="evenodd" clip-rule="evenodd" d="M130.133 20.5216C132.486 16.4551 135.257 13.0138 137.889 10.7308C141.06 7.98021 144.078 6.90299 145.705 7.83809C147.4 8.81265 148.015 12.1463 147.108 16.5358C146.423 19.8546 144.784 23.7989 142.55 27.6593C140.26 31.6171 137.638 35.1042 135.042 37.3659C131.757 40.2281 128.581 41.264 126.918 40.3079C125.304 39.381 124.687 36.3409 125.461 32.2768C126.115 28.8428 127.757 24.628 130.132 20.5216H130.133Z" stroke="#00D8FF" stroke-width="1.67006"/>
<path fill-rule="evenodd" clip-rule="evenodd" d="M130.141 27.6707C127.781 23.6087 126.174 19.4964 125.504 16.0835C124.697 11.9715 125.267 8.82749 126.893 7.88967C128.587 6.91226 131.791 8.04607 135.154 11.0218C137.696 13.2716 140.306 16.6558 142.546 20.5124C144.843 24.4665 146.564 28.4725 147.234 31.8437C148.081 36.11 147.395 39.3697 145.734 40.3284C144.122 41.2587 141.171 40.2738 138.025 37.5754C135.367 35.2957 132.523 31.7732 130.141 27.6707Z" stroke="#00D8FF" stroke-width="1.67006"/>
</g>
<g clip-path="url(#clip4_1069_30)">
<path d="M179.692 0.511719H205.265C211.221 0.511846 216.046 5.3242 216.046 11.2568V36.7451C216.046 42.6778 211.221 47.4901 205.265 47.4902H179.692C173.736 47.4902 168.91 42.6778 168.91 36.7451V11.2568L168.924 10.7041C169.212 5.02799 173.922 0.511719 179.692 0.511719Z" fill="#F4F2ED" stroke="#E5E5E5"/>
<path fill-rule="evenodd" clip-rule="evenodd" d="M184.016 20.6259C185.144 16.1281 187.965 13.8789 192.478 13.8789C199.247 13.8789 200.093 18.9391 203.477 19.7825C205.734 20.3449 207.708 19.5016 209.4 17.2524C208.272 21.7502 205.452 23.9993 200.939 23.9993C194.17 23.9993 193.324 18.9391 189.939 18.0958C187.683 17.5333 185.708 18.3767 184.016 20.6259ZM175.555 30.7463C176.683 26.2485 179.504 23.9993 184.016 23.9993C190.785 23.9993 191.631 29.0596 195.016 29.9029C197.273 30.4654 199.247 29.622 200.939 27.3728C199.811 31.8706 196.99 34.1198 192.478 34.1198C185.708 34.1198 184.862 29.0596 181.478 28.2162C179.221 27.6538 177.247 28.4971 175.555 30.7463Z" fill="url(#paint0_linear_1069_30)"/>
</g>
<g clip-path="url(#clip5_1069_30)">
<path d="M291.962 0.324219H317.534C323.49 0.324347 328.315 5.1367 328.315 11.0693V36.5576C328.315 42.4902 323.49 47.3026 317.534 47.3027H291.962C286.006 47.3027 281.18 42.4903 281.18 36.5576V11.0693L281.193 10.5166C281.482 4.84049 286.192 0.324219 291.962 0.324219Z" fill="#F4F2ED" stroke="#E5E5E5"/>
<path d="M321.858 26.0525C323.033 24.8815 323.033 22.9828 321.858 21.8118C320.683 20.6407 318.778 20.6407 317.603 21.8118L302.552 36.8133C301.377 37.9844 301.377 39.883 302.552 41.0541C303.727 42.2251 305.632 42.2251 306.807 41.0541L321.858 26.0525Z" fill="black"/>
<path d="M318.842 9.56031C320.017 8.38926 320.017 6.49063 318.842 5.31958C317.667 4.14854 315.762 4.14854 314.588 5.31958L286.001 33.812C284.827 34.983 284.827 36.8816 286.001 38.0527C287.176 39.2237 289.081 39.2237 290.256 38.0527L318.842 9.56031Z" fill="black"/>
</g>
<g clip-path="url(#clip6_1069_30)">
<path d="M348.099 0.511719H373.671C379.627 0.511846 384.452 5.3242 384.452 11.2568V36.7451C384.452 42.6778 379.627 47.4901 373.671 47.4902H348.099C342.142 47.4902 337.316 42.6778 337.316 36.7451V11.2568L337.33 10.7041C337.619 5.02799 342.328 0.511719 348.099 0.511719Z" fill="#F4F2ED" stroke="#E5E5E5"/>
<path d="M343.586 36.9336H352.235V28.3125H360.885V19.6914H352.235V11.0703H343.586V36.9336ZM360.885 28.3125V36.9336H378.184V11.0703H360.885V19.6914H369.534V28.3125H360.885Z" fill="black"/>
</g>
<g clip-path="url(#clip7_1069_30)">
<path d="M460.372 0.511719H485.944C491.9 0.511847 496.726 5.3242 496.726 11.2568V36.7451C496.726 42.6777 491.9 47.4901 485.944 47.4902H460.372C454.416 47.4902 449.59 42.6778 449.59 36.7451V11.2568L449.604 10.7041C449.892 5.02799 454.602 0.511719 460.372 0.511719Z" fill="#F4F2ED" stroke="#E5E5E5"/>
<path d="M463.069 23.6612C463.507 22.8997 463.239 21.9356 462.47 21.5078C461.701 21.0799 460.724 21.3502 460.286 22.1114L455.148 31.0482C454.71 31.8094 454.978 32.7735 455.747 33.2016C456.515 33.6294 457.493 33.3592 457.931 32.5979L463.069 23.6612Z" fill="#8DBF15"/>
<path d="M474.143 16.8095C474.581 16.0482 474.313 15.0841 473.544 14.6562C472.776 14.2283 471.798 14.4986 471.36 15.2599L466.222 24.1966C465.784 24.9579 466.052 25.9219 466.821 26.35C467.589 26.7779 468.567 26.5076 469.005 25.7463L474.143 16.8095Z" fill="#8DBF15"/>
<path d="M491.186 16.8095C491.624 16.0482 491.356 15.0842 490.587 14.6562C489.819 14.2283 488.841 14.4986 488.403 15.2599L483.265 24.1967C482.827 24.958 483.095 25.922 483.864 26.3499C484.632 26.7778 485.61 26.5075 486.048 25.7462L491.186 16.8095Z" fill="#8DBF15"/>
<path d="M480.104 23.6612C480.542 22.8997 480.274 21.9356 479.505 21.5078C478.737 21.0799 477.759 21.3502 477.321 22.1114L472.183 31.0482C471.745 31.8094 472.013 32.7735 472.782 33.2016C473.55 33.6294 474.528 33.3592 474.966 32.5979L480.104 23.6612Z" fill="#8DBF15"/>
</g>
<g clip-path="url(#clip8_1069_30)">
<path d="M516.509 0.511719H542.081C548.037 0.511846 552.862 5.3242 552.862 11.2568V36.7451C552.862 42.6778 548.037 47.4901 542.081 47.4902H516.509C510.553 47.4902 505.727 42.6778 505.727 36.7451V11.2568L505.74 10.7041C506.029 5.02799 510.739 0.511719 516.509 0.511719Z" fill="#F4F2ED" stroke="#E5E5E5"/>
<mask id="mask0_1069_30" style="mask-type:luminance" maskUnits="userSpaceOnUse" x="512" y="7" width="35" height="34">
<path d="M546.217 7.13281H512.371V40.8676H546.217V7.13281Z" fill="white"/>
</mask>
<g mask="url(#mask0_1069_30)">
<path d="M537.469 31.6928C537.684 29.9047 537.62 29.6438 538.955 29.9324L539.295 29.9626C540.322 30.0087 541.665 29.7978 542.468 29.4329C544.167 28.6475 545.174 27.335 543.499 27.6802C539.678 28.4657 539.401 27.1755 539.401 27.1755C543.437 21.2062 545.125 13.629 543.667 11.7749C539.695 6.71464 532.819 9.10771 532.704 9.17096L532.667 9.17754C531.914 9.01942 531.081 8.92717 530.115 8.91399C528.386 8.88764 527.075 9.36598 526.078 10.1184C526.078 10.1184 513.813 5.08193 514.383 16.4529C514.504 18.8723 517.86 34.7698 521.866 29.96C523.332 28.2022 524.747 26.7169 524.747 26.7169C525.447 27.1821 526.289 27.4194 527.171 27.3337L527.24 27.2758C527.22 27.5035 527.229 27.7329 527.268 27.9584C526.237 29.1074 526.541 29.3091 524.478 29.7321C522.392 30.1603 523.619 30.9233 524.417 31.1236C525.388 31.3661 527.633 31.7087 529.15 29.5924L529.09 29.8335C529.494 30.1564 529.466 32.1527 529.526 33.5786C529.585 35.0044 529.679 36.3368 529.971 37.1207C530.264 37.9049 530.606 39.9277 533.316 39.3609C535.581 38.8774 537.313 38.1802 537.472 31.7048" fill="black"/>
<path d="M537.469 31.6928C537.684 29.9047 537.62 29.6438 538.955 29.9324L539.295 29.9626C540.322 30.0087 541.665 29.7978 542.468 29.4329C544.167 28.6475 545.174 27.335 543.499 27.6802C539.678 28.4657 539.401 27.1755 539.401 27.1755C543.437 21.2062 545.125 13.629 543.667 11.7749C539.695 6.71464 532.819 9.10771 532.704 9.17096L532.667 9.17754C531.914 9.01942 531.081 8.92717 530.115 8.91399C528.386 8.88764 527.075 9.36598 526.078 10.1184C526.078 10.1184 513.813 5.08193 514.383 16.4529C514.504 18.8723 517.86 34.7698 521.866 29.96C523.332 28.2022 524.747 26.7169 524.747 26.7169C525.447 27.1821 526.289 27.4194 527.171 27.3337L527.24 27.2758C527.22 27.5035 527.229 27.7329 527.268 27.9584C526.237 29.1074 526.541 29.3091 524.478 29.7321C522.392 30.1603 523.619 30.9233 524.417 31.1236C525.388 31.3661 527.633 31.7087 529.15 29.5924L529.09 29.8335C529.494 30.1564 529.466 32.1527 529.526 33.5786C529.585 35.0044 529.679 36.3368 529.971 37.1207C530.264 37.9049 530.606 39.9277 533.316 39.3609C535.581 38.8774 537.313 38.1802 537.472 31.7048" fill="#336791"/>
<path d="M537.469 31.6928C537.684 29.9047 537.62 29.6438 538.955 29.9324L539.295 29.9626C540.322 30.0087 541.665 29.7978 542.468 29.4329C544.167 28.6475 545.174 27.335 543.499 27.6802C539.678 28.4657 539.401 27.1755 539.401 27.1755C543.437 21.2062 545.125 13.629 543.667 11.7749C539.695 6.71464 532.819 9.10771 532.704 9.17096L532.667 9.17754C531.914 9.01942 531.081 8.92717 530.115 8.91399C528.386 8.88764 527.075 9.36598 526.078 10.1184C526.078 10.1184 513.813 5.08193 514.383 16.4529C514.504 18.8723 517.86 34.7698 521.866 29.96C523.332 28.2022 524.747 26.7169 524.747 26.7169C525.447 27.1821 526.289 27.4194 527.171 27.3337L527.24 27.2758C527.22 27.5035 527.229 27.7329 527.268 27.9584C526.237 29.1074 526.541 29.3091 524.478 29.7321C522.392 30.1603 523.619 30.9233 524.417 31.1236C525.388 31.3661 527.633 31.7087 529.15 29.5924L529.09 29.8335C529.494 30.1564 529.466 32.1527 529.526 33.5786C529.585 35.0044 529.679 36.3368 529.971 37.1207C530.264 37.9049 530.606 39.9277 533.316 39.3609C535.581 38.8774 537.313 38.1802 537.472 31.7048" stroke="black" stroke-width="2.83185"/>
<path d="M543.485 27.6916C539.664 28.4768 539.386 27.1869 539.386 27.1869C543.423 21.2173 545.111 13.6402 543.654 11.7861C539.683 6.72586 532.806 9.12024 532.691 9.18216L532.654 9.18876C531.814 9.0208 530.961 8.93211 530.104 8.92388C528.375 8.89753 527.063 9.37587 526.066 10.1283C526.066 10.1283 513.8 5.09182 514.371 16.4628C514.493 18.8823 517.848 34.7798 521.854 29.97C523.329 28.2015 524.744 26.7163 524.744 26.7163C525.445 27.1814 526.287 27.4187 527.169 27.333L527.237 27.2751C527.217 27.5028 527.227 27.7322 527.265 27.9577C526.234 29.1067 526.538 29.3084 524.476 29.7314C522.389 30.1596 523.616 30.9226 524.415 31.123C525.385 31.3655 527.63 31.7081 529.148 29.5918L529.087 29.8328C529.492 30.1557 529.775 31.932 529.727 33.5423C529.679 35.1528 529.648 36.257 529.965 37.1214C530.282 37.9859 530.6 39.9283 533.31 39.3616C535.575 38.878 536.747 37.6222 536.913 35.5323C537.029 34.0457 537.291 34.2644 537.309 32.9362L537.521 32.3063C537.763 30.2901 537.56 29.6405 538.955 29.9436L539.295 29.9739C540.322 30.02 541.667 29.8092 542.455 29.4441C544.154 28.6588 545.161 27.3462 543.486 27.6916H543.485Z" fill="#336791"/>
<path d="M532.691 9.11996C532.268 9.25175 539.519 6.47786 543.641 11.7265C545.095 13.5806 543.41 21.1578 539.373 27.1272M529.312 28.8338C529.206 32.5842 529.339 36.3608 529.706 37.2675C530.074 38.174 530.863 39.9689 533.575 39.3917C535.839 38.9081 536.664 37.971 537.021 35.9035L537.858 29.2924L529.312 28.8338ZM526.062 10.0332C526.062 10.0332 513.788 5.03095 514.359 16.4019C514.481 18.8213 517.836 34.7188 521.842 29.909C523.304 28.1524 524.627 26.778 524.627 26.778L526.062 10.0332Z" fill="#336791"/>
<path d="M532.691 9.11996C532.268 9.25175 539.519 6.47786 543.641 11.7265C545.095 13.5806 543.41 21.1578 539.373 27.1272M529.312 28.8338C529.206 32.5842 529.339 36.3608 529.706 37.2675C530.074 38.174 530.863 39.9689 533.575 39.3917C535.839 38.9081 536.664 37.971 537.021 35.9035L537.858 29.2924L529.312 28.8338ZM526.062 10.0332C526.062 10.0332 513.788 5.03095 514.359 16.4019C514.481 18.8213 517.836 34.7188 521.842 29.909C523.304 28.1524 524.627 26.778 524.627 26.778L526.062 10.0332Z" stroke="white" stroke-width="0.943449" stroke-linecap="round" stroke-linejoin="round"/>
<path d="M539.375 27.1232C539.375 27.1232 539.639 28.4147 543.473 27.6266C545.148 27.2814 544.14 28.5938 542.442 29.3793C541.049 30.0249 537.923 30.1897 537.872 29.3002C537.739 27.0006 539.516 27.6991 539.388 27.1232C539.272 26.604 538.476 26.0954 537.952 24.8251C537.493 23.718 531.659 15.2185 539.57 16.4796C539.861 16.4203 537.508 8.96837 530.104 8.86032C522.7 8.75226 522.934 17.9331 522.934 17.9331" fill="#336791"/>
<path d="M539.375 27.1232C539.375 27.1232 539.639 28.4147 543.473 27.6266C545.148 27.2814 544.14 28.5938 542.442 29.3793C541.049 30.0249 537.923 30.1897 537.872 29.3002C537.739 27.0006 539.516 27.6991 539.388 27.1232C539.272 26.604 538.476 26.0954 537.952 24.8251C537.493 23.718 531.659 15.2185 539.57 16.4796C539.861 16.4203 537.508 8.96837 530.104 8.86032C522.7 8.75226 522.934 17.9331 522.934 17.9331" stroke="white" stroke-width="0.943449" stroke-linecap="round" stroke-linejoin="bevel"/>
<path d="M527.243 27.9131C526.212 29.0622 526.516 29.2638 524.454 29.6868C522.368 30.115 523.595 30.878 524.393 31.0784C525.364 31.3209 527.608 31.6635 529.126 29.5457C529.589 28.9 529.124 27.8722 528.489 27.6114C528.182 27.4849 527.772 27.3267 527.246 27.9144L527.243 27.9131Z" fill="#336791" stroke="white" stroke-width="0.943449" stroke-linejoin="round"/>
<path d="M527.171 27.8924C527.065 27.2164 527.393 26.4139 527.744 25.4731C528.27 24.0632 529.484 22.6531 528.513 18.1766C527.79 14.8427 522.934 17.4822 522.934 17.9342C522.934 18.3862 523.153 20.2272 522.855 22.3684C522.462 25.1648 524.639 27.5289 527.146 27.2877" fill="#336791"/>
<path d="M527.171 27.8924C527.065 27.2164 527.393 26.4139 527.744 25.4731C528.27 24.0632 529.484 22.6531 528.513 18.1766C527.79 14.8427 522.934 17.4822 522.934 17.9342C522.934 18.3862 523.153 20.2272 522.855 22.3684C522.462 25.1648 524.639 27.5289 527.146 27.2877" stroke="white" stroke-width="0.943449" stroke-linecap="round" stroke-linejoin="round"/>
<path d="M526.017 17.8684C525.994 18.0226 526.301 18.4351 526.699 18.4904C527.097 18.5458 527.437 18.2242 527.459 18.0687C527.482 17.9132 527.175 17.7446 526.777 17.6892C526.379 17.6339 526.037 17.7156 526.017 17.8684Z" fill="white" stroke="white" stroke-width="0.314858"/>
<path d="M538.135 17.552C538.156 17.7062 537.85 18.1187 537.453 18.174C537.054 18.2294 536.712 17.9078 536.692 17.7523C536.672 17.5968 536.977 17.4282 537.375 17.3728C537.772 17.3175 538.115 17.3992 538.135 17.552Z" fill="white" stroke="white" stroke-width="0.156867"/>
<path d="M539.553 16.4844C539.619 17.6967 539.291 18.5203 539.249 19.8105C539.188 21.6843 540.146 23.8296 538.703 25.9776" fill="#336791"/>
<path d="M539.553 16.4844C539.619 17.6967 539.291 18.5203 539.249 19.8105C539.188 21.6843 540.146 23.8296 538.703 25.9776" stroke="white" stroke-width="0.943449" stroke-linecap="round" stroke-linejoin="round"/>
</g>
</g>
<g clip-path="url(#clip9_1069_30)">
<path d="M572.646 0.511719H598.218C604.174 0.511846 608.999 5.3242 608.999 11.2568V36.7451C608.999 42.6778 604.174 47.4901 598.218 47.4902H572.646C566.689 47.4902 561.863 42.6778 561.863 36.7451V11.2568L561.877 10.7041C562.166 5.02799 566.875 0.511719 572.646 0.511719Z" fill="#F4F2ED" stroke="#E5E5E5"/>
<path d="M584.007 4.50781L601.98 15.3071V35.8024L588.443 43.6304V23.1352L570.461 12.3445L584.007 4.50781Z" fill="#242938"/>
<path d="M582.634 42.4948V26.5L569.07 34.3452L582.634 42.4948Z" fill="#242938"/>
</g>
<g clip-path="url(#clip10_1069_30)">
<path d="M628.778 0.511719H654.351C660.307 0.511847 665.132 5.3242 665.132 11.2568V36.7451C665.132 42.6777 660.307 47.4901 654.351 47.4902H628.778C622.822 47.4902 617.996 42.6778 617.996 36.7451V11.2568L618.01 10.7041C618.298 5.02799 623.008 0.511719 628.778 0.511719Z" fill="#F4F2ED" stroke="#E5E5E5"/>
<path fill-rule="evenodd" clip-rule="evenodd" d="M660.745 24.2005C660.745 21.4683 659.417 19.3125 656.879 19.3125C654.331 19.3125 652.789 21.4683 652.789 24.1791C652.789 27.3914 654.609 29.0137 657.222 29.0137C658.496 29.0137 659.46 28.7254 660.188 28.3199V26.1856C659.46 26.5484 658.625 26.7726 657.565 26.7726C656.526 26.7726 655.605 26.4095 655.487 25.1503H660.723C660.723 25.0116 660.745 24.4567 660.745 24.2005ZM655.455 23.1866C655.455 21.9805 656.194 21.479 656.869 21.479C657.522 21.479 658.218 21.9805 658.218 23.1866H655.455Z" fill="#635BFF"/>
<path fill-rule="evenodd" clip-rule="evenodd" d="M648.652 19.3125C647.603 19.3125 646.928 19.8035 646.553 20.145L646.414 19.4832H644.059V31.9272L646.735 31.3616L646.746 28.3412C647.132 28.6188 647.699 29.0137 648.641 29.0137C650.558 29.0137 652.303 27.4769 652.303 24.0937C652.293 20.9989 650.526 19.3125 648.652 19.3125ZM648.01 26.6657C647.378 26.6657 647.003 26.4416 646.746 26.1642L646.735 22.2047C647.014 21.8953 647.399 21.6818 648.01 21.6818C648.984 21.6818 649.659 22.7703 649.659 24.1684C649.659 25.5986 648.995 26.6657 648.01 26.6657Z" fill="#635BFF"/>
<path fill-rule="evenodd" clip-rule="evenodd" d="M640.379 18.6842L643.066 18.1079V15.9414L640.379 16.507V18.6842Z" fill="#635BFF"/>
<path d="M643.066 19.4961H640.379V28.8343H643.066V19.4961Z" fill="#635BFF"/>
<path fill-rule="evenodd" clip-rule="evenodd" d="M637.5 20.2868L637.328 19.497H635.016V28.8353H637.693V22.5067C638.324 21.6849 639.395 21.8343 639.727 21.9518V19.497C639.384 19.369 638.131 19.1342 637.5 20.2868Z" fill="#635BFF"/>
<path fill-rule="evenodd" clip-rule="evenodd" d="M632.143 17.1797L629.53 17.7346L629.52 26.2831C629.52 27.8626 630.708 29.0259 632.293 29.0259C633.171 29.0259 633.813 28.8658 634.167 28.6737V26.5072C633.824 26.6459 632.132 27.1369 632.132 25.5574V21.7688H634.167V19.4956H632.132L632.143 17.1797Z" fill="#635BFF"/>
<path fill-rule="evenodd" clip-rule="evenodd" d="M624.904 22.2047C624.904 21.7884 625.247 21.6284 625.814 21.6284C626.628 21.6284 627.656 21.8739 628.47 22.3115V19.8035C627.581 19.4514 626.703 19.3125 625.814 19.3125C623.641 19.3125 622.195 20.4437 622.195 22.3329C622.195 25.2783 626.264 24.8088 626.264 26.0788C626.264 26.5698 625.836 26.7298 625.236 26.7298C624.347 26.7298 623.213 26.367 622.313 25.876V28.416C623.309 28.8429 624.315 29.0244 625.236 29.0244C627.463 29.0244 628.994 27.9252 628.994 26.0147C628.984 22.8344 624.904 23.4 624.904 22.2047Z" fill="#635BFF"/>
</g>
<g clip-path="url(#clip11_1069_30)">
<path d="M235.825 0.5H261.397C267.354 0.500127 272.179 5.31248 272.179 11.2451V36.7334C272.179 42.666 267.354 47.4784 261.397 47.4785H235.825C229.869 47.4785 225.043 42.6661 225.043 36.7334V11.2451L225.057 10.6924C225.345 5.01628 230.055 0.5 235.825 0.5Z" fill="#FFF312" stroke="#E5E5E5"/>
<path d="M244.447 18L237.707 29.989H231.566L236.829 20.628C237.645 19.176 239.681 18 241.377 18H244.447ZM259.504 20.997C259.504 19.342 260.879 18 262.574 18C264.27 18 265.644 19.342 265.644 20.997C265.644 22.653 264.27 23.995 262.574 23.995C260.879 23.995 259.504 22.653 259.504 20.997ZM245.597 18H251.738L244.997 29.989H238.857L245.597 18ZM252.85 18H258.99L253.727 27.362C252.911 28.813 250.876 29.989 249.18 29.989H246.11L252.85 18Z" fill="black"/>
</g>
<g clip-path="url(#clip12_1069_30)">
<path d="M404.235 0.5H429.808C435.764 0.500127 440.589 5.31248 440.589 11.2451V36.7334C440.589 42.666 435.764 47.4784 429.808 47.4785H404.235C398.279 47.4785 393.453 42.6661 393.453 36.7334V11.2451L393.467 10.6924C393.755 5.01628 398.465 0.5 404.235 0.5Z" fill="#F4F2ED" stroke="#E5E5E5"/>
<path d="M420.349 9C426.159 9 429.614 12.4556 429.614 17.0427C429.614 21.6299 426.159 25.0854 420.349 25.0854H417.413L432 39H421.694L410.593 28.4493C409.798 27.7157 409.431 26.8594 409.431 26.1255C409.431 25.0857 410.165 24.1683 411.572 23.7707L417.29 22.2415C419.462 21.6604 420.96 19.9784 420.96 17.7766C420.96 15.0856 418.758 13.526 416.036 13.526H402V9H420.349Z" fill="black"/>
</g>
</g>
<defs>
<linearGradient id="paint0_linear_1069_30" x1="184.674" y1="13.8789" x2="199.088" y2="34.82" gradientUnits="userSpaceOnUse">
<stop stop-color="#32B1C1"/>
<stop offset="1" stop-color="#14C6B7"/>
</linearGradient>
<clipPath id="clip0_1069_30">
<rect width="666" height="48" fill="white"/>
</clipPath>
<clipPath id="clip1_1069_30">
<rect width="48.1362" height="47.9783" fill="white" transform="translate(0 0.0117188)"/>
</clipPath>
<clipPath id="clip2_1069_30">
<rect width="48.1362" height="47.9783" fill="white" transform="translate(56.1367 0.0117188)"/>
</clipPath>
<clipPath id="clip3_1069_30">
<rect width="48.1362" height="47.9783" fill="white" transform="translate(112.273 0.0117188)"/>
</clipPath>
<clipPath id="clip4_1069_30">
<rect width="48.1362" height="47.9783" fill="white" transform="translate(168.41 0.0117188)"/>
</clipPath>
<clipPath id="clip5_1069_30">
<rect width="48.1362" height="47.9783" fill="white" transform="translate(280.68 0.0117188)"/>
</clipPath>
<clipPath id="clip6_1069_30">
<rect width="48.1362" height="47.9783" fill="white" transform="translate(336.816 0.0117188)"/>
</clipPath>
<clipPath id="clip7_1069_30">
<rect width="48.1362" height="47.9783" fill="white" transform="translate(449.09 0.0117188)"/>
</clipPath>
<clipPath id="clip8_1069_30">
<rect width="48.1362" height="47.9783" fill="white" transform="translate(505.227 0.0117188)"/>
</clipPath>
<clipPath id="clip9_1069_30">
<rect width="48.1362" height="47.9783" fill="white" transform="translate(561.363 0.0117188)"/>
</clipPath>
<clipPath id="clip10_1069_30">
<rect width="48.1362" height="47.9783" fill="white" transform="translate(617.496 0.0117188)"/>
</clipPath>
<clipPath id="clip11_1069_30">
<rect width="48.1362" height="47.9783" fill="white" transform="translate(224.543)"/>
</clipPath>
<clipPath id="clip12_1069_30">
<rect width="48.1362" height="47.9783" fill="white" transform="translate(392.953)"/>
</clipPath>
</defs>
</svg>
