<svg width="777" height="48" viewBox="0 0 777 48" fill="none" xmlns="http://www.w3.org/2000/svg">
<g clip-path="url(#clip0_1069_99)">
<g clip-path="url(#clip1_1069_99)">
<path d="M11.2676 0.511719H36.8066C42.7543 0.511719 47.5742 5.32352 47.5742 11.2568V36.7451C47.5742 42.6784 42.7543 47.4902 36.8066 47.4902H11.2676C5.31996 47.4902 0.5 42.6784 0.5 36.7451V11.2568L0.513672 10.7041C0.792539 5.21068 5.20651 0.804109 10.7129 0.525391L11.2676 0.511719Z" fill="#0A0A0A" stroke="#2E2F2F"/>
<path d="M22.8031 5.2679C22.7223 5.27523 22.4653 5.30088 22.2339 5.3192C16.8995 5.79918 11.9028 8.67179 8.73803 13.087C6.97577 15.5419 5.84868 18.3265 5.42279 21.276C5.27227 22.3057 5.25391 22.6099 5.25391 24.0057C5.25391 25.4018 5.27227 25.706 5.42279 26.7355C6.44343 33.774 11.4622 39.6879 18.2689 41.879C19.4878 42.2711 20.7727 42.5385 22.2339 42.6997C22.8031 42.7619 25.2628 42.7619 25.832 42.6997C28.3542 42.4212 30.4908 41.7984 32.5982 40.7247C32.9212 40.56 32.9838 40.5159 32.9396 40.4794C32.9103 40.4573 31.5335 38.6142 29.8815 36.3866L26.8783 32.3379L23.115 26.7795C21.0444 23.7237 19.341 21.2247 19.3262 21.2247C19.3115 21.2211 19.2969 23.6907 19.2895 26.7062C19.2785 31.9861 19.2749 32.1986 19.2088 32.3231C19.1134 32.5026 19.04 32.5759 18.8856 32.6567C18.7682 32.7151 18.6654 32.7262 18.111 32.7262H17.4759L17.307 32.6199C17.1969 32.5504 17.1161 32.4587 17.061 32.3525L16.9839 32.1876L16.9912 24.8412L17.0023 17.4911L17.1161 17.3482C17.1748 17.2713 17.2997 17.1724 17.3878 17.1247C17.5383 17.0514 17.597 17.0441 18.2322 17.0441C18.9812 17.0441 19.1059 17.0734 19.3006 17.286C19.3556 17.3446 21.3932 20.4077 23.8311 24.0974C26.2688 27.787 29.6024 32.8251 31.2398 35.2983L34.2136 39.7942L34.3642 39.6952C35.6968 38.8305 37.1067 37.5994 38.2227 36.3169C40.5981 33.5945 42.1291 30.275 42.6431 26.7355C42.7936 25.706 42.812 25.4018 42.812 24.0057C42.812 22.6099 42.7936 22.3057 42.6431 21.276C41.6225 14.2375 36.6036 8.32371 29.797 6.13262C28.5964 5.74423 27.3189 5.47676 25.887 5.31554C25.5345 5.2789 23.1077 5.23859 22.8031 5.2679ZM30.4909 16.6044C30.667 16.6924 30.8103 16.8609 30.8617 17.0368C30.891 17.132 30.8984 19.1693 30.891 23.7602L30.88 30.3483L29.7162 28.5674L28.5487 26.7868V21.998C28.5487 18.9019 28.5634 17.1614 28.5853 17.0771C28.6441 16.8719 28.7726 16.7107 28.9489 16.6154C29.0993 16.5385 29.1545 16.5312 29.7309 16.5312C30.2743 16.5312 30.3697 16.5385 30.4909 16.6044Z" fill="white"/>
</g>
<g clip-path="url(#clip2_1069_99)">
<path d="M67.334 0.511719H92.873C98.8207 0.511719 103.641 5.32352 103.641 11.2568V36.7451C103.641 42.6784 98.8207 47.4902 92.873 47.4902H67.334C61.3864 47.4902 56.5664 42.6784 56.5664 36.7451V11.2568L56.5801 10.7041C56.8589 5.21068 61.2729 0.804109 66.7793 0.525391L67.334 0.511719Z" fill="#007ACC" stroke="#2E2F2F"/>
<path d="M66.6989 24.1617L66.6836 26.1266H69.8122H72.9409V34.9988V43.8709H75.1539H77.3668V34.9988V26.1266H80.4954H83.624V24.1997C83.624 23.1335 83.6013 22.2426 83.5707 22.2197C83.5477 22.1893 79.7399 22.174 75.1233 22.1816L66.7218 22.2045L66.6989 24.1617Z" fill="white"/>
<path d="M94.8578 22.1467C96.0786 22.4514 97.0097 22.9921 97.8643 23.8754C98.3069 24.3477 98.9631 25.2083 99.0166 25.4139C99.0318 25.4748 96.9409 26.8761 95.6743 27.6604C95.6285 27.691 95.4452 27.4929 95.2392 27.1883C94.6212 26.2897 93.9725 25.9012 92.9805 25.8328C91.523 25.7336 90.5844 26.4953 90.5921 27.7671C90.5921 28.1402 90.6455 28.361 90.7981 28.6657C91.1185 29.3282 91.7138 29.7243 93.5834 30.5315C97.0249 32.009 98.4975 32.9838 99.4134 34.3697C100.436 35.9157 100.665 38.3832 99.9704 40.2186C99.2074 42.2138 97.3148 43.5694 94.6516 44.0188C93.8276 44.1635 91.874 44.1406 90.9889 43.9808C89.0583 43.638 87.2269 42.6861 86.0976 41.4372C85.6549 40.9497 84.7926 39.6779 84.8461 39.5864C84.8689 39.5561 85.0673 39.4342 85.2886 39.3047C85.5023 39.1829 86.3113 38.7183 87.0743 38.2766L88.4555 37.4769L88.7454 37.9034C89.1499 38.5202 90.035 39.3657 90.5692 39.6473C92.1029 40.4547 94.2092 40.3404 95.2469 39.4114C95.6895 39.0077 95.8726 38.5888 95.8726 37.972C95.8726 37.416 95.8039 37.1723 95.5139 36.7535C95.14 36.2205 94.377 35.771 92.2098 34.8343C89.7298 33.7681 88.6615 33.1056 87.6848 32.0546C87.1201 31.4455 86.5858 30.4705 86.3646 29.6557C86.1815 28.978 86.1357 27.2796 86.2807 26.5942C86.7918 24.203 88.6004 22.5352 91.2102 22.04C92.0573 21.8802 94.0259 21.9411 94.8578 22.1467Z" fill="white"/>
</g>
<g clip-path="url(#clip3_1069_99)">
<path d="M123.396 0.511719H148.936C154.883 0.511719 159.703 5.32352 159.703 11.2568V36.7451C159.703 42.6784 154.883 47.4902 148.936 47.4902H123.396C117.449 47.4902 112.629 42.6784 112.629 36.7451V11.2568L112.643 10.7041C112.921 5.21068 117.335 0.804109 122.842 0.525391L123.396 0.511719Z" fill="#0A0A0A" stroke="#2E2F2F"/>
<path d="M136.164 27.5514C138.099 27.5514 139.667 25.986 139.667 24.055C139.667 22.1241 138.099 20.5586 136.164 20.5586C134.229 20.5586 132.66 22.1241 132.66 24.055C132.66 25.986 134.229 27.5514 136.164 27.5514Z" fill="#00D8FF"/>
<path fill-rule="evenodd" clip-rule="evenodd" d="M136.162 16.9453C140.866 16.9453 145.236 17.6189 148.53 18.7509C152.5 20.1148 154.941 22.1822 154.941 24.0543C154.941 26.0051 152.354 28.2014 148.091 29.611C144.868 30.6766 140.627 31.2329 136.162 31.2329C131.584 31.2329 127.249 30.7107 123.99 29.5992C119.866 28.1926 117.383 25.968 117.383 24.0543C117.383 22.1974 119.713 20.1459 123.627 18.7842C126.934 17.6335 131.412 16.9453 136.162 16.9453Z" stroke="#00D8FF" stroke-width="1.67006"/>
<path fill-rule="evenodd" clip-rule="evenodd" d="M129.966 20.5216C132.316 16.4551 135.084 13.0138 137.712 10.7308C140.879 7.98021 143.893 6.90299 145.518 7.83809C147.211 8.81265 147.826 12.1463 146.92 16.5358C146.235 19.8546 144.599 23.7989 142.368 27.6593C140.081 31.6171 137.462 35.1042 134.869 37.3659C131.588 40.2281 128.416 41.264 126.755 40.3079C125.144 39.381 124.527 36.3409 125.3 32.2768C125.954 28.8428 127.593 24.628 129.965 20.5216H129.966Z" stroke="#00D8FF" stroke-width="1.67006"/>
<path fill-rule="evenodd" clip-rule="evenodd" d="M129.974 27.6707C127.617 23.6087 126.013 19.4964 125.343 16.0835C124.537 11.9715 125.107 8.82749 126.73 7.88967C128.422 6.91226 131.623 8.04606 134.981 11.0218C137.52 13.2716 140.127 16.6558 142.364 20.5124C144.658 24.4665 146.377 28.4725 147.045 31.8437C147.892 36.11 147.207 39.3697 145.547 40.3284C143.937 41.2587 140.99 40.2738 137.849 37.5754C135.194 35.2957 132.354 31.7732 129.974 27.6707Z" stroke="#00D8FF" stroke-width="1.67006"/>
</g>
<g clip-path="url(#clip4_1069_99)">
<path d="M179.463 0.511719H205.002C210.95 0.511719 215.77 5.32352 215.77 11.2568V36.7451C215.77 42.6784 210.95 47.4902 205.002 47.4902H179.463C173.515 47.4902 168.695 42.6784 168.695 36.7451V11.2568L168.709 10.7041C168.988 5.21068 173.402 0.804109 178.908 0.525391L179.463 0.511719Z" fill="#0A0A0A" stroke="#2E2F2F"/>
<path fill-rule="evenodd" clip-rule="evenodd" d="M183.783 20.6259C184.909 16.1281 187.726 13.8789 192.233 13.8789C198.994 13.8789 199.839 18.9391 203.219 19.7825C205.473 20.3449 207.444 19.5016 209.134 17.2524C208.008 21.7502 205.19 23.9993 200.684 23.9993C193.923 23.9993 193.078 18.9391 189.698 18.0958C187.444 17.5333 185.473 18.3767 183.783 20.6259ZM175.332 30.7463C176.459 26.2485 179.276 23.9993 183.783 23.9993C190.543 23.9993 191.388 29.0596 194.768 29.9029C197.022 30.4654 198.994 29.622 200.684 27.3728C199.557 31.8706 196.74 34.1198 192.233 34.1198C185.473 34.1198 184.628 29.0596 181.247 28.2162C178.994 27.6538 177.022 28.4971 175.332 30.7463Z" fill="url(#paint0_linear_1069_99)"/>
</g>
<g clip-path="url(#clip5_1069_99)">
<path d="M235.525 0.511719H261.064C267.012 0.511719 271.832 5.32352 271.832 11.2568V36.7451C271.832 42.6784 267.012 47.4902 261.064 47.4902H235.525C229.578 47.4902 224.758 42.6784 224.758 36.7451V11.2568L224.771 10.7041C225.06 5.02745 229.764 0.511719 235.525 0.511719Z" fill="#0A0A0A" stroke="#2E2F2F"/>
<path d="M265.457 26.1189C266.63 24.9479 266.63 23.0492 265.457 21.8782C264.283 20.7071 262.381 20.7071 261.207 21.8782L246.176 36.8797C245.002 38.0508 245.002 39.9494 246.176 41.1205C247.349 42.2915 249.252 42.2915 250.425 41.1205L265.457 26.1189Z" fill="white"/>
<path d="M262.445 9.62672C263.618 8.45567 263.618 6.55703 262.445 5.38599C261.272 4.21494 259.369 4.21494 258.196 5.38599L229.646 33.8784C228.473 35.0494 228.473 36.9481 229.646 38.1191C230.82 39.2901 232.722 39.2901 233.896 38.1191L262.445 9.62672Z" fill="white"/>
</g>
<g clip-path="url(#clip6_1069_99)">
<path d="M347.654 0.511719H373.193C379.141 0.511719 383.961 5.32352 383.961 11.2568V36.7451C383.961 42.6784 379.141 47.4902 373.193 47.4902H347.654C341.707 47.4902 336.887 42.6784 336.887 36.7451V11.2568L336.9 10.7041C337.179 5.21068 341.593 0.804109 347.1 0.525391L347.654 0.511719Z" fill="#0A0A0A" stroke="#2E2F2F"/>
<path d="M343.148 36.9336H351.787V28.3125H360.425V19.6914H351.787V11.0703H343.148V36.9336ZM360.425 28.3125V36.9336H377.702V11.0703H360.425V19.6914H369.063V28.3125H360.425Z" fill="white"/>
</g>
<g clip-path="url(#clip7_1069_99)">
<path d="M459.783 0.511719H485.322C491.27 0.511719 496.09 5.32352 496.09 11.2568V36.7451C496.09 42.6784 491.27 47.4902 485.322 47.4902H459.783C453.836 47.4902 449.016 42.6784 449.016 36.7451V11.2568L449.029 10.7041C449.317 5.02745 454.021 0.511719 459.783 0.511719Z" fill="#0A0A0A" stroke="#2E2F2F"/>
<path d="M462.477 23.6612C462.914 22.8997 462.646 21.9356 461.878 21.5078C461.111 21.0799 460.134 21.3502 459.697 22.1114L454.565 31.0482C454.128 31.8094 454.396 32.7735 455.164 33.2016C455.931 33.6294 456.908 33.3592 457.345 32.5979L462.477 23.6612Z" fill="#C5F74F"/>
<path d="M473.535 16.8095C473.972 16.0482 473.704 15.0841 472.937 14.6562C472.169 14.2283 471.193 14.4986 470.756 15.2599L465.624 24.1966C465.187 24.9579 465.455 25.9219 466.222 26.35C466.99 26.7779 467.966 26.5076 468.404 25.7463L473.535 16.8095Z" fill="#C5F74F"/>
<path d="M490.559 16.8095C490.996 16.0482 490.728 15.0842 489.96 14.6562C489.193 14.2283 488.216 14.4986 487.779 15.2599L482.647 24.1967C482.21 24.958 482.478 25.922 483.246 26.3499C484.013 26.7778 484.99 26.5075 485.427 25.7462L490.559 16.8095Z" fill="#C5F74F"/>
<path d="M479.488 23.6612C479.925 22.8997 479.658 21.9356 478.89 21.5078C478.123 21.0799 477.146 21.3502 476.709 22.1114L471.577 31.0482C471.14 31.8094 471.408 32.7735 472.175 33.2016C472.943 33.6294 473.92 33.3592 474.357 32.5979L479.488 23.6612Z" fill="#C5F74F"/>
</g>
<g clip-path="url(#clip8_1069_99)">
<path d="M515.85 0.511719H541.389C547.336 0.511719 552.156 5.32352 552.156 11.2568V36.7451C552.156 42.6784 547.336 47.4902 541.389 47.4902H515.85C509.902 47.4902 505.082 42.6784 505.082 36.7451V11.2568L505.096 10.7041C505.375 5.21068 509.789 0.804109 515.295 0.525391L515.85 0.511719Z" fill="#0A0A0A" stroke="#2E2F2F"/>
<path d="M542.795 27.8791C538.979 28.6643 538.702 27.3744 538.702 27.3744C542.733 21.4048 544.419 13.8277 542.964 11.9736C538.998 6.91336 532.13 9.30774 532.015 9.36966L531.978 9.37626C531.14 9.2083 530.287 9.11961 529.431 9.11138C527.704 9.08503 526.394 9.56337 525.399 10.3158C525.399 10.3158 513.148 5.27932 513.719 16.6503C513.84 19.0698 517.191 34.9673 521.192 30.1575C522.666 28.389 524.078 26.9038 524.078 26.9038C524.778 27.3689 525.619 27.6062 526.5 27.5205L526.569 27.4626C526.548 27.6903 526.558 27.9197 526.596 28.1452C525.567 29.2942 525.87 29.4959 523.81 29.9189C521.727 30.3471 522.952 31.1101 523.75 31.3105C524.719 31.553 526.961 31.8956 528.477 29.7793L528.416 30.0203C528.82 30.3432 529.102 32.1195 529.055 33.7298C529.007 35.3403 528.976 36.4445 529.293 37.3089C529.609 38.1734 529.926 40.1158 532.633 39.5491C534.895 39.0655 536.066 37.8097 536.231 35.7198C536.348 34.2332 536.609 34.4519 536.628 33.1237L536.839 32.4938C537.08 30.4776 536.878 29.828 538.271 30.1311L538.611 30.1614C539.637 30.2075 540.98 29.9967 541.766 29.6316C543.463 28.8463 544.469 27.5337 542.796 27.8791H542.795Z" fill="#336791"/>
<path d="M532.015 9.11996C531.593 9.25175 538.834 6.47786 542.951 11.7265C544.404 13.5806 542.72 21.1578 538.689 27.1272M528.64 28.8338C528.535 32.5842 528.667 36.3608 529.034 37.2675C529.401 38.174 530.189 39.9689 532.897 39.3917C535.159 38.9081 535.983 37.971 536.34 35.9035L537.176 29.2924L528.64 28.8338ZM525.395 10.0332C525.395 10.0332 513.136 5.03095 513.707 16.4019C513.828 18.8213 517.179 34.7188 521.18 29.909C522.641 28.1524 523.961 26.778 523.961 26.778L525.395 10.0332Z" fill="#336791"/>
<path d="M532.015 9.11996C531.593 9.25175 538.834 6.47786 542.951 11.7265C544.404 13.5806 542.72 21.1578 538.689 27.1272M528.64 28.8338C528.535 32.5842 528.667 36.3608 529.034 37.2675C529.401 38.174 530.189 39.9689 532.897 39.3917C535.159 38.9081 535.983 37.971 536.34 35.9035L537.176 29.2924L528.64 28.8338ZM525.395 10.0332C525.395 10.0332 513.136 5.03095 513.707 16.4019C513.828 18.8213 517.179 34.7188 521.18 29.909C522.641 28.1524 523.961 26.778 523.961 26.778L525.395 10.0332Z" stroke="white" stroke-width="0.943449" stroke-linecap="round" stroke-linejoin="round"/>
<path d="M538.686 27.1232C538.686 27.1232 538.95 28.4147 542.779 27.6266C544.452 27.2814 543.444 28.5938 541.749 29.3793C540.357 30.0249 537.236 30.1897 537.184 29.3002C537.052 27.0006 538.827 27.6991 538.699 27.1232C538.583 26.604 537.788 26.0954 537.265 24.8251C536.807 23.718 530.98 15.2185 538.881 16.4796C539.172 16.4203 536.821 8.96837 529.427 8.86032C522.033 8.75226 522.266 17.9331 522.266 17.9331" fill="#336791"/>
<path d="M538.686 27.1232C538.686 27.1232 538.95 28.4147 542.779 27.6266C544.452 27.2814 543.444 28.5938 541.749 29.3793C540.357 30.0249 537.236 30.1897 537.184 29.3002C537.052 27.0006 538.827 27.6991 538.699 27.1232C538.583 26.604 537.788 26.0954 537.265 24.8251C536.807 23.718 530.98 15.2185 538.881 16.4796C539.172 16.4203 536.821 8.96837 529.427 8.86032C522.033 8.75226 522.266 17.9331 522.266 17.9331" stroke="white" stroke-width="0.943449" stroke-linecap="round" stroke-linejoin="bevel"/>
<path d="M526.567 27.9131C525.537 29.0622 525.84 29.2638 523.781 29.6868C521.697 30.115 522.922 30.878 523.72 31.0784C524.689 31.3209 526.931 31.6635 528.447 29.5457C528.909 28.9 528.444 27.8722 527.81 27.6114C527.504 27.4849 527.095 27.3267 526.569 27.9144L526.567 27.9131Z" fill="#336791" stroke="white" stroke-width="0.943449" stroke-linejoin="round"/>
<path d="M526.502 27.8924C526.396 27.2164 526.723 26.4139 527.073 25.4731C527.599 24.0632 528.811 22.6531 527.842 18.1766C527.12 14.8427 522.27 17.4822 522.27 17.9342C522.27 18.3862 522.489 20.2272 522.191 22.3684C521.798 25.1648 523.973 27.5289 526.476 27.2877" fill="#336791"/>
<path d="M526.502 27.8924C526.396 27.2164 526.723 26.4139 527.073 25.4731C527.599 24.0632 528.811 22.6531 527.842 18.1766C527.12 14.8427 522.27 17.4822 522.27 17.9342C522.27 18.3862 522.489 20.2272 522.191 22.3684C521.798 25.1648 523.973 27.5289 526.476 27.2877" stroke="white" stroke-width="0.943449" stroke-linecap="round" stroke-linejoin="round"/>
<path d="M525.345 17.8684C525.322 18.0226 525.629 18.4351 526.026 18.4904C526.424 18.5458 526.763 18.2242 526.785 18.0687C526.808 17.9132 526.502 17.7446 526.104 17.6892C525.707 17.6339 525.365 17.7156 525.345 17.8684Z" fill="white" stroke="white" stroke-width="0.314858"/>
<path d="M537.445 17.552C537.466 17.7062 537.161 18.1187 536.764 18.174C536.367 18.2294 536.025 17.9078 536.005 17.7523C535.985 17.5968 536.289 17.4282 536.686 17.3728C537.083 17.3175 537.425 17.3992 537.445 17.552Z" fill="white" stroke="white" stroke-width="0.156867"/>
<path d="M538.869 16.4844C538.935 17.6967 538.607 18.5203 538.565 19.8105C538.504 21.6843 539.46 23.8296 538.02 25.9776" fill="#0A0A0A"/>
<path d="M538.869 16.4844C538.935 17.6967 538.607 18.5203 538.565 19.8105C538.504 21.6843 539.46 23.8296 538.02 25.9776" stroke="white" stroke-width="0.943449" stroke-linecap="round" stroke-linejoin="round"/>
</g>
<g clip-path="url(#clip9_1069_99)">
<path d="M627.979 0.511719H653.518C659.465 0.511719 664.285 5.32352 664.285 11.2568V36.7451C664.285 42.6784 659.465 47.4902 653.518 47.4902H627.979C622.031 47.4902 617.211 42.6784 617.211 36.7451V11.2568L617.225 10.7041C617.503 5.21068 621.917 0.804109 627.424 0.525391L627.979 0.511719Z" fill="#0A0A0A" stroke="#2E2F2F"/>
<path d="M639.325 4.50781L657.276 15.3071V35.8024L643.756 43.6304V23.1352L625.797 12.3445L639.325 4.50781Z" fill="#F4F2ED"/>
<path d="M637.952 42.4948V26.5L624.406 34.3452L637.952 42.4948Z" fill="#F4F2ED"/>
</g>
<g clip-path="url(#clip10_1069_99)">
<path d="M740.107 0.511719H765.646C771.594 0.511719 776.414 5.32352 776.414 11.2568V36.7451C776.414 42.6784 771.594 47.4902 765.646 47.4902H740.107C734.16 47.4902 729.34 42.6784 729.34 36.7451V11.2568L729.354 10.7041C729.642 5.02745 734.346 0.511719 740.107 0.511719Z" fill="#0A0A0A" stroke="#2E2F2F"/>
<path fill-rule="evenodd" clip-rule="evenodd" d="M772.031 24.2005C772.031 21.4683 770.705 19.3125 768.171 19.3125C765.626 19.3125 764.086 21.4683 764.086 24.1791C764.086 27.3914 765.904 29.0137 768.513 29.0137C769.786 29.0137 770.748 28.7254 771.475 28.3199V26.1856C770.748 26.5484 769.914 26.7726 768.855 26.7726C767.818 26.7726 766.898 26.4095 766.781 25.1503H772.01C772.01 25.0116 772.031 24.4567 772.031 24.2005ZM766.749 23.1866C766.749 21.9805 767.487 21.479 768.16 21.479C768.813 21.479 769.508 21.9805 769.508 23.1866H766.749Z" fill="#635BFF"/>
<path fill-rule="evenodd" clip-rule="evenodd" d="M759.955 19.3125C758.907 19.3125 758.233 19.8035 757.859 20.145L757.72 19.4832H755.367V31.9272L758.041 31.3616L758.051 28.3412C758.436 28.6188 759.003 29.0137 759.944 29.0137C761.858 29.0137 763.601 27.4769 763.601 24.0937C763.591 20.9989 761.826 19.3125 759.955 19.3125ZM759.313 26.6657C758.682 26.6657 758.308 26.4416 758.051 26.1642L758.041 22.2047C758.318 21.8953 758.703 21.6818 759.313 21.6818C760.286 21.6818 760.96 22.7703 760.96 24.1684C760.96 25.5986 760.297 26.6657 759.313 26.6657Z" fill="#635BFF"/>
<path fill-rule="evenodd" clip-rule="evenodd" d="M751.691 18.6842L754.375 18.1079V15.9414L751.691 16.507V18.6842Z" fill="#635BFF"/>
<path d="M754.375 19.4961H751.691V28.8343H754.375V19.4961Z" fill="#635BFF"/>
<path fill-rule="evenodd" clip-rule="evenodd" d="M748.817 20.2868L748.646 19.497H746.336V28.8353H749.009V22.5067C749.64 21.6849 750.71 21.8343 751.041 21.9518V19.497C750.699 19.369 749.448 19.1342 748.817 20.2868Z" fill="#635BFF"/>
<path fill-rule="evenodd" clip-rule="evenodd" d="M743.468 17.1797L740.858 17.7346L740.848 26.2831C740.848 27.8626 742.035 29.0259 743.617 29.0259C744.494 29.0259 745.136 28.8658 745.489 28.6737V26.5072C745.146 26.6459 743.457 27.1369 743.457 25.5574V21.7688H745.489V19.4956H743.457L743.468 17.1797Z" fill="#635BFF"/>
<path fill-rule="evenodd" clip-rule="evenodd" d="M736.237 22.2047C736.237 21.7884 736.579 21.6284 737.146 21.6284C737.958 21.6284 738.985 21.8739 739.798 22.3115V19.8035C738.91 19.4514 738.033 19.3125 737.146 19.3125C734.975 19.3125 733.531 20.4437 733.531 22.3329C733.531 25.2783 737.595 24.8088 737.595 26.0788C737.595 26.5698 737.167 26.7298 736.568 26.7298C735.681 26.7298 734.547 26.367 733.649 25.876V28.416C734.643 28.8429 735.649 29.0244 736.568 29.0244C738.793 29.0244 740.322 27.9252 740.322 26.0147C740.311 22.8344 736.237 23.4 736.237 22.2047Z" fill="#635BFF"/>
</g>
<g clip-path="url(#clip11_1069_99)">
<path d="M571.912 0.5H597.451C603.399 0.5 608.219 5.3118 608.219 11.2451V36.7334C608.219 42.6667 603.399 47.4785 597.451 47.4785H571.912C565.964 47.4785 561.145 42.6667 561.145 36.7334V11.2451L561.158 10.6924C561.446 5.01573 566.15 0.5 571.912 0.5Z" fill="#0A0A0A" stroke="#2E2F2F"/>
<path d="M599.452 31.9116C597.685 32.8345 588.531 36.6029 586.582 37.6198C584.633 38.6369 583.551 38.6273 582.011 37.8906C580.471 37.154 570.73 33.2144 568.975 32.374C568.097 31.9537 567.637 31.6004 567.637 31.2664V27.9148C567.637 27.9148 580.32 25.1503 582.367 24.4145C584.416 23.6788 585.124 23.6524 586.868 24.2915C588.611 24.9305 599.029 26.8125 600.75 27.4445V30.7496C600.75 31.081 600.354 31.4527 599.454 31.9134L599.452 31.9116Z" fill="#A41E11"/>
<path d="M599.453 28.5604C597.686 29.4833 588.532 33.2517 586.583 34.2686C584.634 35.2857 583.552 35.2759 582.012 34.5393C580.472 33.8028 570.731 29.863 568.975 29.0228C567.22 28.1824 567.185 27.605 568.908 26.9289L582.367 21.7111C584.415 20.9763 585.124 20.9489 586.867 21.5881C588.611 22.2272 597.709 25.8531 599.43 26.4947C601.151 27.1365 601.218 27.6462 599.451 28.5692L599.453 28.5604Z" fill="#D82C20"/>
<path d="M599.452 26.4468C597.685 27.3697 588.531 31.1381 586.582 32.155C584.633 33.1721 583.551 33.1623 582.011 32.4257C580.471 31.6892 570.73 27.7494 568.975 26.9092C568.097 26.4889 567.637 26.1356 567.637 25.8016V22.4498C567.637 22.4498 580.32 19.6853 582.367 18.9497C584.416 18.214 585.124 18.1876 586.868 18.8266C588.611 19.4657 599.029 21.3477 600.75 21.9797V25.2848C600.75 25.616 600.354 25.9879 599.454 26.4485L599.452 26.4468Z" fill="#A41E11"/>
<path d="M599.453 23.0949C597.686 24.0179 588.532 27.7862 586.583 28.8033C584.634 29.8202 583.552 29.8106 582.012 29.074C580.472 28.3373 570.731 24.3977 568.975 23.5573C567.22 22.7169 567.185 22.1395 568.908 21.4634L582.367 16.2466C584.415 15.5108 585.124 15.4845 586.867 16.1235C588.611 16.7625 597.709 20.3893 599.432 21.0196C601.154 21.6499 601.22 22.1712 599.453 23.0941V23.0949Z" fill="#D82C20"/>
<path d="M599.452 20.7796C597.685 21.7026 588.531 25.4709 586.582 26.4889C584.633 27.5068 583.551 27.4962 582.011 26.7596C580.471 26.023 570.73 22.0832 568.975 21.2429C568.097 20.8227 567.637 20.4695 567.637 20.1354V16.7819C567.637 16.7819 580.32 14.0175 582.367 13.2817C584.416 12.546 585.124 12.5196 586.868 13.1587C588.611 13.7977 599.029 15.6797 600.75 16.3117V19.6168C600.75 19.9482 600.354 20.3199 599.454 20.7806L599.452 20.7796Z" fill="#A41E11"/>
<path d="M599.453 17.427C597.686 18.3499 588.532 22.1182 586.583 23.1353C584.634 24.1523 583.552 24.1426 582.012 23.406C580.472 22.6695 570.731 18.7297 568.975 17.8893C567.22 17.049 567.185 16.4715 568.908 15.7955L582.367 10.5786C584.415 9.84287 585.124 9.81649 586.867 10.4555C588.611 11.0946 597.709 14.7214 599.432 15.3516C601.154 15.9819 601.22 16.5031 599.453 17.4261V17.427Z" fill="#D82C20"/>
<path d="M585.019 16.0444L583.982 14.3171L580.669 14.0182L583.141 13.1252L582.399 11.7539L584.713 12.6593L586.895 11.9438L586.305 13.3607L588.53 14.1958L585.661 14.4947L585.019 16.0444ZM579.492 19.4831L587.165 18.3034L584.847 21.7069L579.492 19.4831Z" fill="white"/>
<path d="M577.426 18.2385C579.691 18.2385 581.527 17.5257 581.527 16.6466C581.527 15.7674 579.691 15.0547 577.426 15.0547C575.161 15.0547 573.324 15.7674 573.324 16.6466C573.324 17.5257 575.161 18.2385 577.426 18.2385Z" fill="white"/>
<path d="M596.46 16.4187L591.921 18.2136L591.918 14.6211L596.46 16.4187Z" fill="#7A0C00"/>
<path d="M591.925 18.2127L591.434 18.4061L586.898 16.6112L591.922 14.6211L591.925 18.2127Z" fill="#AD2115"/>
</g>
<g clip-path="url(#clip12_1069_99)">
<path d="M291.592 0.5H317.131C323.078 0.5 327.898 5.3118 327.898 11.2451V36.7334C327.898 42.6667 323.078 47.4785 317.131 47.4785H291.592C285.644 47.4785 280.824 42.6667 280.824 36.7334V11.2451L280.838 10.6924C281.117 5.19896 285.531 0.792391 291.037 0.513672L291.592 0.5Z" fill="#FFF312" stroke="#2E2F2F"/>
<path d="M300.204 18L293.472 29.989H287.34L292.595 20.628C293.411 19.176 295.444 18 297.137 18H300.204ZM315.242 20.997C315.242 19.342 316.614 18 318.308 18C320.001 18 321.374 19.342 321.374 20.997C321.374 22.653 320.001 23.995 318.308 23.995C316.614 23.995 315.242 22.653 315.242 20.997ZM301.353 18H307.485L300.754 29.989H294.621L301.353 18ZM308.596 18H314.729L309.472 27.362C308.657 28.813 306.624 29.989 304.931 29.989H301.865L308.596 18Z" fill="black"/>
</g>
<g clip-path="url(#clip13_1069_99)">
<path d="M403.721 0.5H429.26C435.207 0.5 440.027 5.3118 440.027 11.2451V36.7334C440.027 42.6667 435.207 47.4785 429.26 47.4785H403.721C397.773 47.4785 392.953 42.6667 392.953 36.7334V11.2451L392.967 10.6924C393.246 5.19896 397.66 0.792391 403.166 0.513672L403.721 0.5Z" fill="#0A0A0A" stroke="#2E2F2F"/>
<path d="M419.813 9C425.616 9 429.067 12.4556 429.067 17.0427C429.067 21.6299 425.616 25.0854 419.813 25.0854H416.881L431.45 39H421.157L410.07 28.4493C409.276 27.7157 408.91 26.8594 408.91 26.1255C408.91 25.0857 409.643 24.1683 411.048 23.7707L416.759 22.2415C418.928 21.6604 420.424 19.9784 420.424 17.7766C420.424 15.0856 418.225 13.526 415.507 13.526H401.488V9H419.813Z" fill="white"/>
</g>
<g clip-path="url(#clip14_1069_99)">
<path d="M684.041 0.5H709.58C715.528 0.5 720.348 5.3118 720.348 11.2451V36.7334C720.348 42.6667 715.528 47.4785 709.58 47.4785H684.041C678.093 47.4785 673.273 42.6667 673.273 36.7334V11.2451L673.287 10.6924C673.575 5.01573 678.279 0.5 684.041 0.5Z" fill="#0A0A0A" stroke="#2E2F2F"/>
</g>
<path d="M701.261 18.2344C700.431 18.2344 699.76 18.9029 699.76 19.7257V24.2035C699.76 25.8491 698.412 27.1881 696.755 27.1881C695.099 27.1881 693.751 25.8491 693.751 24.2035V19.7257C693.751 18.9011 693.08 18.2344 692.25 18.2344C691.421 18.2344 690.75 18.9029 690.75 19.7257V24.2035C690.75 27.4948 693.445 30.1726 696.755 30.1726C700.066 30.1726 702.761 27.4948 702.761 24.2035V19.7257C702.763 18.9029 702.09 18.2344 701.261 18.2344ZM701.261 20.7524C700.69 20.7524 700.228 20.2933 700.228 19.7257C700.228 19.1582 700.69 18.699 701.261 18.699C701.831 18.699 702.293 19.1582 702.293 19.7257C702.293 20.2933 701.831 20.7524 701.261 20.7524Z" fill="white"/>
<path d="M707.586 24.203L704.143 27.6247C703.556 28.2069 703.556 29.1528 704.143 29.735C704.73 30.3173 705.68 30.3173 706.266 29.735L709.709 26.3134L713.152 29.735C713.739 30.3173 714.689 30.3173 715.274 29.735C715.861 29.1528 715.861 28.2069 715.274 27.6247L711.833 24.203L715.276 20.7814C715.863 20.1991 715.863 19.2533 715.276 18.671C714.689 18.0888 713.739 18.0888 713.153 18.671L709.71 22.0927L706.266 18.671C705.679 18.0888 704.728 18.0888 704.143 18.671C703.556 19.2533 703.556 20.1991 704.143 20.7814L707.586 24.203ZM714.215 29.7075C713.645 29.7075 713.183 29.2483 713.183 28.6808C713.183 28.1133 713.645 27.6541 714.215 27.6541C714.786 27.6541 715.248 28.1133 715.248 28.6808C715.248 29.2465 714.786 29.7075 714.215 29.7075Z" fill="white"/>
<path d="M688.602 18.3481C688.041 18.1167 687.395 18.2453 686.966 18.6714L683.521 22.0931L680.078 18.6714C679.649 18.2453 679.003 18.1167 678.442 18.3481C677.881 18.5795 677.516 19.1232 677.516 19.7256V28.6793C677.516 29.504 678.187 30.1725 679.016 30.1725C679.845 30.1725 680.517 29.504 680.517 28.6811V23.3273L682.459 25.2576C683.046 25.8398 683.996 25.8398 684.581 25.2576L686.524 23.3273V28.6793C686.524 29.504 687.195 30.1707 688.024 30.1707C688.853 30.1707 689.525 29.5021 689.525 28.6793V19.7256C689.528 19.1232 689.163 18.5795 688.602 18.3481ZM688.026 29.7078C687.456 29.7078 686.993 29.2487 686.993 28.6811C686.993 28.1136 687.456 27.6544 688.026 27.6544C688.597 27.6544 689.059 28.1136 689.059 28.6811C689.061 29.2468 688.597 29.7078 688.026 29.7078Z" fill="white"/>
</g>
<defs>
<linearGradient id="paint0_linear_1069_99" x1="184.44" y1="13.8789" x2="198.861" y2="34.8027" gradientUnits="userSpaceOnUse">
<stop stop-color="#32B1C1"/>
<stop offset="1" stop-color="#14C6B7"/>
</linearGradient>
<clipPath id="clip0_1069_99">
<rect width="777" height="48" fill="white"/>
</clipPath>
<clipPath id="clip1_1069_99">
<rect width="48.0743" height="47.9783" fill="white" transform="translate(0 0.0117188)"/>
</clipPath>
<clipPath id="clip2_1069_99">
<rect width="48.0743" height="47.9783" fill="white" transform="translate(56.0664 0.0117188)"/>
</clipPath>
<clipPath id="clip3_1069_99">
<rect width="48.0743" height="47.9783" fill="white" transform="translate(112.129 0.0117188)"/>
</clipPath>
<clipPath id="clip4_1069_99">
<rect width="48.0743" height="47.9783" fill="white" transform="translate(168.195 0.0117188)"/>
</clipPath>
<clipPath id="clip5_1069_99">
<rect width="48.0743" height="47.9783" fill="white" transform="translate(224.258 0.0117188)"/>
</clipPath>
<clipPath id="clip6_1069_99">
<rect width="48.0743" height="47.9783" fill="white" transform="translate(336.387 0.0117188)"/>
</clipPath>
<clipPath id="clip7_1069_99">
<rect width="48.0743" height="47.9783" fill="white" transform="translate(448.516 0.0117188)"/>
</clipPath>
<clipPath id="clip8_1069_99">
<rect width="48.0743" height="47.9783" fill="white" transform="translate(504.582 0.0117188)"/>
</clipPath>
<clipPath id="clip9_1069_99">
<rect width="48.0743" height="47.9783" fill="white" transform="translate(616.711 0.0117188)"/>
</clipPath>
<clipPath id="clip10_1069_99">
<rect width="48.0743" height="47.9783" fill="white" transform="translate(728.84 0.0117188)"/>
</clipPath>
<clipPath id="clip11_1069_99">
<rect width="48.0743" height="47.9783" fill="white" transform="translate(560.645)"/>
</clipPath>
<clipPath id="clip12_1069_99">
<rect width="48.0743" height="47.9783" fill="white" transform="translate(280.324)"/>
</clipPath>
<clipPath id="clip13_1069_99">
<rect width="48.0743" height="47.9783" fill="white" transform="translate(392.453)"/>
</clipPath>
<clipPath id="clip14_1069_99">
<rect width="48.0743" height="47.9783" fill="white" transform="translate(672.773)"/>
</clipPath>
</defs>
</svg>
